M48
;Layer_Color=9474304
;FILE_FORMAT=4:4
METRIC
;TYPE=PLATED
T1F00S00C0.3000
T2F00S00C0.3500
T3F00S00C0.4000
T4F00S00C1.2000
T5F00S00C1.6000
T6F00S00C1.7000
%
T01
X-00007920Y00014940
X00006350Y00016700
X00012030Y00027340
X00019050Y00021590
X00025030Y00027040
X00064840Y00030000
X00067310Y00076200
X00057220Y00126520
X00021590Y00111760
X-00000970Y00109520
X-00013970Y00110490
X-00025000Y00155000
X-00055000
X-00062780Y00126520
X-00070000Y00185000
X-00040000
X-00010000
X00020000
X00050000
X00080000
X00065000Y00215000
X00050000Y00245000
X00080000
X00005000Y00275000
X-00070000Y00245000
X-00085000Y00215000
X-00055000
X-00040000Y00065000
T02
X-00039512Y00076940
T03
X-00010160Y00058420
Y00069850
X00001270
Y00058420
X00013970
Y00069850
X00026670
Y00058420
Y00082550
X00013970
X00001270
X-00010160
T04
X-00089060Y00014940
X00088740Y00014964
Y00040340
Y00065740
Y00091140
X00088900Y00116840
X00088740Y00141940
X-00089060
Y00116540
Y00091140
Y00065740
X-00089043Y00040340
T05
X00000000Y00234950
T06
X-00025400Y00209550
X00025400
Y00260350
X-00025400
M30
