%FSLAX44Y44*%
%MOMM*%
G71*
G01*
G75*
G04 Layer_Physical_Order=1*
G04 Layer_Color=255*
%ADD10C,0.0586*%
%ADD11R,0.8000X0.9000*%
%ADD12R,0.9000X0.8000*%
%ADD13R,1.2000X2.0000*%
%ADD14R,1.8000X1.3000*%
%ADD15R,0.4500X1.5000*%
%ADD16O,0.4500X1.5000*%
%ADD17C,0.4000*%
%ADD18C,0.2000*%
%ADD19C,0.7000*%
%ADD20C,0.3000*%
%ADD21C,0.5000*%
%ADD22C,0.8000*%
%ADD23R,2.4400X2.4400*%
%ADD24R,2.4400X2.4400*%
%ADD25C,2.3000*%
%ADD26C,1.8000*%
%ADD27C,1.0000*%
%ADD28C,0.4000*%
%ADD29C,0.5000*%
G36*
X86601Y248992D02*
Y168330D01*
X83200D01*
Y161290D01*
Y154250D01*
X86171D01*
X86237Y153250D01*
X85728Y153183D01*
X82921Y152020D01*
X80510Y150170D01*
X78660Y147760D01*
X77497Y144953D01*
X77101Y141940D01*
X77497Y138927D01*
X78660Y136120D01*
X80510Y133710D01*
X82921Y131860D01*
X85728Y130697D01*
X86601Y130582D01*
Y127632D01*
X86028Y127557D01*
X83353Y126448D01*
X81055Y124685D01*
X80943Y124678D01*
X51755Y153866D01*
X52137Y154790D01*
X58720D01*
Y157212D01*
X61930D01*
Y154790D01*
X73930D01*
Y167790D01*
X61930D01*
Y165368D01*
X58720D01*
Y167790D01*
X46720D01*
Y160207D01*
X45796Y159825D01*
X44720Y160901D01*
Y167790D01*
X32720D01*
Y154790D01*
X39295D01*
X77890Y116195D01*
X78183Y113968D01*
X79292Y111293D01*
X81055Y108995D01*
X83353Y107232D01*
X86028Y106123D01*
X86601Y106048D01*
Y101953D01*
X85869Y101857D01*
X83193Y100749D01*
X80895Y98985D01*
X79132Y96687D01*
X78023Y94012D01*
X77645Y91140D01*
X78023Y88268D01*
X79132Y85593D01*
X80895Y83295D01*
X83193Y81532D01*
X85869Y80423D01*
X86601Y80327D01*
Y76553D01*
X85869Y76457D01*
X83193Y75349D01*
X80895Y73585D01*
X79132Y71287D01*
X78023Y68612D01*
X77860Y67370D01*
X77683Y67106D01*
X77411Y65740D01*
X77683Y64374D01*
X77860Y64110D01*
X78023Y62868D01*
X79132Y60193D01*
X80895Y57895D01*
X83193Y56132D01*
X85869Y55023D01*
X86601Y54927D01*
Y51153D01*
X85869Y51057D01*
X83193Y49949D01*
X80895Y48185D01*
X79132Y45887D01*
X78023Y43212D01*
X77645Y40340D01*
X78023Y37469D01*
X79054Y34980D01*
X58513Y14439D01*
X10761D01*
X10178Y15439D01*
X10428Y16700D01*
X10118Y18261D01*
X9234Y19584D01*
X8589Y20015D01*
Y23627D01*
X9589Y24160D01*
X10469Y23572D01*
X12030Y23262D01*
X13591Y23572D01*
X13829Y23731D01*
X15102Y23433D01*
X15282Y23151D01*
X14972Y21590D01*
X15282Y20029D01*
X16166Y18706D01*
X17489Y17822D01*
X19050Y17512D01*
X20611Y17822D01*
X21934Y18706D01*
X22818Y20029D01*
X23128Y21590D01*
X22961Y22431D01*
X23067Y22606D01*
X23828Y23201D01*
X25030Y22962D01*
X26591Y23272D01*
X27914Y24156D01*
X28798Y25479D01*
X29108Y27040D01*
X28798Y28601D01*
X28599Y28899D01*
Y31177D01*
X29481Y31648D01*
X29872Y31387D01*
X31530Y31057D01*
X33188Y31387D01*
X34594Y32326D01*
X35533Y33732D01*
X35863Y35390D01*
Y45349D01*
X36225Y45991D01*
X36829Y46160D01*
X43590D01*
Y57430D01*
X36320D01*
Y48171D01*
X35320Y47868D01*
X34594Y48954D01*
X33188Y49893D01*
X31530Y50223D01*
X29872Y49893D01*
X29040Y49338D01*
X28280Y49029D01*
X27520Y49338D01*
X26788Y49827D01*
X26770Y50226D01*
X26922Y50848D01*
X28638Y51074D01*
X30473Y51834D01*
X32048Y53042D01*
X33256Y54618D01*
X34016Y56452D01*
X34108Y57150D01*
X26670D01*
Y59690D01*
X34108D01*
X34016Y60388D01*
X33256Y62222D01*
X32048Y63798D01*
Y64472D01*
X33256Y66048D01*
X34016Y67882D01*
X34108Y68580D01*
X26670D01*
Y71120D01*
X34108D01*
X34016Y71818D01*
X33256Y73653D01*
X32048Y75228D01*
X31432Y75700D01*
Y76700D01*
X32048Y77172D01*
X33256Y78748D01*
X34016Y80582D01*
X34108Y81280D01*
X26670D01*
Y83820D01*
X34108D01*
X34016Y84518D01*
X33256Y86353D01*
X32048Y87928D01*
X30473Y89136D01*
X29955Y89350D01*
X30247Y90312D01*
X31530Y90057D01*
X33188Y90387D01*
X34594Y91326D01*
X35533Y92732D01*
X35863Y94390D01*
X36860Y94382D01*
Y82200D01*
X52860D01*
Y105845D01*
Y106200D01*
X36860D01*
Y104898D01*
X35863Y104890D01*
X35533Y106548D01*
X34594Y107954D01*
X33188Y108893D01*
X31530Y109223D01*
X29872Y108893D01*
X28466Y107954D01*
X28094D01*
X27189Y108559D01*
Y111760D01*
X26956Y112930D01*
X26293Y113923D01*
X25549Y114420D01*
X25843Y115420D01*
X33290D01*
Y128420D01*
X21740D01*
Y139970D01*
X8740D01*
Y127970D01*
X8740Y127970D01*
D01*
X8740Y127970D01*
X8620Y127150D01*
X8620D01*
X8620Y127150D01*
X8620D01*
X8620Y127020D01*
Y119832D01*
X7620Y119418D01*
X6620Y120418D01*
Y127020D01*
X6620Y127150D01*
X6620D01*
X6620Y127150D01*
X6620D01*
X6500Y127970D01*
Y127970D01*
X6500D01*
X6500Y127970D01*
Y139970D01*
X-6500D01*
Y127970D01*
X-6500Y127970D01*
X-6500D01*
X-6500Y127970D01*
X-6934Y127150D01*
X-16780D01*
Y114150D01*
X-16780Y114150D01*
X-16955Y113223D01*
X-17738Y112051D01*
X-17750Y111990D01*
X-18750Y112088D01*
Y113162D01*
X-18750Y113180D01*
X-18750D01*
X-18780Y114150D01*
X-18780Y114150D01*
Y127150D01*
X-30780D01*
Y114168D01*
X-30780Y114150D01*
X-30780D01*
X-30750Y113180D01*
X-30750Y113180D01*
Y100180D01*
Y93632D01*
X-31826Y92556D01*
X-32750Y92939D01*
Y99640D01*
X-32210D01*
Y105410D01*
X-38750D01*
Y106680D01*
X-40020D01*
Y113720D01*
X-45290D01*
X-45290Y113720D01*
Y113720D01*
X-45290Y113720D01*
X-46150Y114058D01*
Y114440D01*
X-68150D01*
Y97440D01*
X-54418D01*
X-48074Y91096D01*
X-48074Y91096D01*
X-46751Y90212D01*
X-46492Y90161D01*
X-45190Y89902D01*
X-44750Y89085D01*
Y87480D01*
X-38209D01*
X-37826Y86556D01*
X-41835Y82548D01*
X-46150D01*
Y85440D01*
X-68150D01*
Y68440D01*
X-46150D01*
Y71332D01*
X-39512D01*
X-37366Y71759D01*
X-35547Y72975D01*
X-21041Y87480D01*
X-18750D01*
Y92094D01*
X-17750Y92397D01*
X-17034Y91326D01*
X-15628Y90387D01*
X-14229Y90108D01*
X-14006Y89296D01*
X-13997Y89109D01*
X-15538Y87928D01*
X-16746Y86353D01*
X-17506Y84518D01*
X-17598Y83820D01*
X-10160D01*
Y81280D01*
X-17598D01*
X-17506Y80582D01*
X-16746Y78748D01*
X-15538Y77172D01*
X-14922Y76700D01*
Y75700D01*
X-15538Y75228D01*
X-16746Y73653D01*
X-17506Y71818D01*
X-17598Y71120D01*
X-10160D01*
Y68580D01*
X-17598D01*
X-17506Y67882D01*
X-16746Y66048D01*
X-15538Y64472D01*
Y63798D01*
X-16746Y62222D01*
X-17506Y60388D01*
X-17598Y59690D01*
X-10160D01*
Y57150D01*
X-17598D01*
X-17506Y56452D01*
X-16746Y54618D01*
X-15538Y53042D01*
X-13963Y51834D01*
X-12128Y51074D01*
X-12358Y50140D01*
X-18220D01*
Y40716D01*
X-30477Y28459D01*
X-64773D01*
X-78144Y41830D01*
X-78326Y43212D01*
X-79434Y45887D01*
X-81198Y48185D01*
X-83496Y49949D01*
X-85331Y50709D01*
Y55378D01*
X-83512Y56132D01*
X-81215Y57895D01*
X-79451Y60193D01*
X-78343Y62868D01*
X-77965Y65740D01*
X-78343Y68612D01*
X-79451Y71287D01*
X-81215Y73585D01*
X-83512Y75349D01*
X-85331Y76102D01*
Y80778D01*
X-83512Y81532D01*
X-81215Y83295D01*
X-79451Y85593D01*
X-78343Y88268D01*
X-77965Y91140D01*
X-78343Y94012D01*
X-79451Y96687D01*
X-81215Y98985D01*
X-83512Y100749D01*
X-85331Y101502D01*
Y106178D01*
X-83512Y106932D01*
X-81215Y108695D01*
X-79451Y110993D01*
X-78343Y113668D01*
X-77965Y116540D01*
X-78343Y119412D01*
X-79451Y122087D01*
X-81215Y124385D01*
X-83512Y126149D01*
X-85331Y126902D01*
Y130994D01*
X-83240Y131860D01*
X-80829Y133710D01*
X-78980Y136120D01*
X-77817Y138927D01*
X-77420Y141940D01*
X-77817Y144953D01*
X-78980Y147760D01*
X-80829Y150170D01*
X-83240Y152020D01*
X-85331Y152886D01*
Y158750D01*
Y210099D01*
X-85000Y210371D01*
X-83229Y210723D01*
X-81727Y211726D01*
X-80724Y213228D01*
X-80624Y213730D01*
X-85000D01*
Y216270D01*
X-80624D01*
X-80724Y216771D01*
X-81727Y218273D01*
X-83229Y219276D01*
X-85000Y219629D01*
X-85331Y219900D01*
Y250622D01*
X-39522Y296431D01*
X39162D01*
X86601Y248992D01*
D02*
G37*
%LPC*%
G36*
X-26270Y153730D02*
X-29376D01*
X-29277Y153228D01*
X-28273Y151727D01*
X-26772Y150723D01*
X-26270Y150623D01*
Y153730D01*
D02*
G37*
G36*
X-50624D02*
X-53730D01*
Y150623D01*
X-53229Y150723D01*
X-51727Y151727D01*
X-50724Y153228D01*
X-50624Y153730D01*
D02*
G37*
G36*
X-20624D02*
X-23730D01*
Y150623D01*
X-23229Y150723D01*
X-21727Y151727D01*
X-20724Y153228D01*
X-20624Y153730D01*
D02*
G37*
G36*
X-56270Y159376D02*
X-56772Y159276D01*
X-58273Y158273D01*
X-59277Y156771D01*
X-59377Y156270D01*
X-56270D01*
Y159376D01*
D02*
G37*
G36*
X80660Y160020D02*
X75390D01*
Y154250D01*
X80660D01*
Y160020D01*
D02*
G37*
G36*
X-56270Y153730D02*
X-59377D01*
X-59277Y153228D01*
X-58273Y151727D01*
X-56772Y150723D01*
X-56270Y150623D01*
Y153730D01*
D02*
G37*
G36*
X-61510Y130896D02*
Y127790D01*
X-58404D01*
X-58503Y128291D01*
X-59507Y129793D01*
X-61009Y130797D01*
X-61510Y130896D01*
D02*
G37*
G36*
X-64050D02*
X-64551Y130797D01*
X-66053Y129793D01*
X-67057Y128291D01*
X-67156Y127790D01*
X-64050D01*
Y130896D01*
D02*
G37*
G36*
X47830Y128960D02*
X42560D01*
Y123190D01*
X47830D01*
Y128960D01*
D02*
G37*
G36*
X6500Y166640D02*
X-6500D01*
Y154640D01*
X-6500D01*
Y153970D01*
X-6500D01*
Y141970D01*
X6500D01*
Y143892D01*
X8740D01*
Y141970D01*
X21740D01*
Y153970D01*
X8740D01*
Y152048D01*
X6500D01*
Y153970D01*
X6500D01*
Y154640D01*
X6500D01*
Y166640D01*
D02*
G37*
G36*
X58490Y130896D02*
Y127790D01*
X61596D01*
X61497Y128291D01*
X60493Y129793D01*
X58991Y130797D01*
X58490Y130896D01*
D02*
G37*
G36*
X55950D02*
X55449Y130797D01*
X53947Y129793D01*
X52943Y128291D01*
X52844Y127790D01*
X55950D01*
Y130896D01*
D02*
G37*
G36*
X18730Y183730D02*
X15624D01*
X15723Y183228D01*
X16727Y181726D01*
X18228Y180723D01*
X18730Y180623D01*
Y183730D01*
D02*
G37*
G36*
X-11270D02*
X-14376D01*
X-14277Y183228D01*
X-13273Y181726D01*
X-11772Y180723D01*
X-11270Y180623D01*
Y183730D01*
D02*
G37*
G36*
X-35624D02*
X-38730D01*
Y180623D01*
X-38229Y180723D01*
X-36727Y181726D01*
X-35724Y183228D01*
X-35624Y183730D01*
D02*
G37*
G36*
X54376D02*
X51270D01*
Y180623D01*
X51771Y180723D01*
X53273Y181726D01*
X54276Y183228D01*
X54376Y183730D01*
D02*
G37*
G36*
X48730D02*
X45623D01*
X45723Y183228D01*
X46727Y181726D01*
X48228Y180723D01*
X48730Y180623D01*
Y183730D01*
D02*
G37*
G36*
X24376D02*
X21270D01*
Y180623D01*
X21771Y180723D01*
X23273Y181726D01*
X24276Y183228D01*
X24376Y183730D01*
D02*
G37*
G36*
X-41270D02*
X-44377D01*
X-44277Y183228D01*
X-43273Y181726D01*
X-41772Y180723D01*
X-41270Y180623D01*
Y183730D01*
D02*
G37*
G36*
X-23730Y159376D02*
Y156270D01*
X-20624D01*
X-20724Y156771D01*
X-21727Y158273D01*
X-23229Y159276D01*
X-23730Y159376D01*
D02*
G37*
G36*
X-26270D02*
X-26772Y159276D01*
X-28273Y158273D01*
X-29277Y156771D01*
X-29376Y156270D01*
X-26270D01*
Y159376D01*
D02*
G37*
G36*
X-53730D02*
Y156270D01*
X-50624D01*
X-50724Y156771D01*
X-51727Y158273D01*
X-53229Y159276D01*
X-53730Y159376D01*
D02*
G37*
G36*
X-65624Y183730D02*
X-68730D01*
Y180623D01*
X-68229Y180723D01*
X-66727Y181726D01*
X-65724Y183228D01*
X-65624Y183730D01*
D02*
G37*
G36*
X-71270D02*
X-74377D01*
X-74277Y183228D01*
X-73273Y181726D01*
X-71772Y180723D01*
X-71270Y180623D01*
Y183730D01*
D02*
G37*
G36*
X80660Y168330D02*
X75390D01*
Y162560D01*
X80660D01*
Y168330D01*
D02*
G37*
G36*
X53400Y71240D02*
X46130D01*
Y59970D01*
X53400D01*
Y71240D01*
D02*
G37*
G36*
X43590D02*
X36320D01*
Y59970D01*
X43590D01*
Y71240D01*
D02*
G37*
G36*
X-48232Y57999D02*
X-48438Y57986D01*
X-48499Y57993D01*
X-48560Y57986D01*
X-48765Y57999D01*
X-51879Y57589D01*
X-52074Y57523D01*
X-52135Y57515D01*
X-52192Y57491D01*
X-52393Y57451D01*
X-55296Y56249D01*
X-55467Y56135D01*
X-55524Y56111D01*
X-55573Y56074D01*
X-55757Y55983D01*
X-58249Y54070D01*
X-58385Y53916D01*
X-58433Y53878D01*
X-58471Y53829D01*
X-58626Y53694D01*
X-60538Y51202D01*
X-60629Y51017D01*
X-60666Y50968D01*
X-60690Y50912D01*
X-60804Y50741D01*
X-60822Y50698D01*
X-61781Y50889D01*
X-61781Y50889D01*
X-62178D01*
X-62576D01*
X-62576Y50889D01*
X-64592Y50488D01*
X-65328Y50184D01*
X-65328Y50184D01*
X-67037Y49042D01*
X-67037Y49042D01*
X-67318Y48760D01*
X-67600Y48479D01*
X-67600Y48479D01*
X-68741Y46770D01*
X-68742Y46770D01*
X-68868Y46465D01*
X-69046Y46034D01*
Y46034D01*
X-69447Y44018D01*
X-69447Y44018D01*
Y43620D01*
Y43223D01*
X-69447Y43222D01*
X-69046Y41206D01*
X-68742Y40471D01*
X-68741Y40471D01*
X-67600Y38762D01*
X-67600Y38762D01*
X-67318Y38481D01*
X-67037Y38199D01*
X-67037Y38199D01*
X-65328Y37057D01*
X-65328Y37057D01*
X-65023Y36931D01*
X-64592Y36753D01*
X-64592D01*
X-62576Y36352D01*
X-62576Y36352D01*
X-62178D01*
X-61781D01*
X-61781Y36352D01*
X-60812Y36544D01*
X-60805Y36526D01*
X-60767Y36477D01*
X-60676Y36293D01*
X-58764Y33801D01*
X-58609Y33665D01*
X-58572Y33616D01*
X-58523Y33579D01*
X-58388Y33424D01*
X-55895Y31512D01*
X-55711Y31421D01*
X-55662Y31384D01*
X-55605Y31360D01*
X-55434Y31246D01*
X-52532Y30043D01*
X-52330Y30003D01*
X-52274Y29980D01*
X-52212Y29972D01*
X-52018Y29906D01*
X-48903Y29496D01*
X-48698Y29509D01*
X-48637Y29501D01*
X-48576Y29509D01*
X-48371Y29496D01*
X-45256Y29906D01*
X-45062Y29972D01*
X-45001Y29980D01*
X-44944Y30003D01*
X-44742Y30043D01*
X-41840Y31246D01*
X-41669Y31360D01*
X-41612Y31384D01*
X-41563Y31421D01*
X-41379Y31512D01*
X-38886Y33424D01*
X-38751Y33579D01*
X-38702Y33616D01*
X-38665Y33665D01*
X-38510Y33801D01*
X-36598Y36293D01*
X-36507Y36477D01*
X-36469Y36526D01*
X-36446Y36583D01*
X-36331Y36754D01*
X-36266Y36912D01*
X-34788Y36618D01*
X-34788Y36618D01*
X-34390D01*
X-33992D01*
X-33992Y36618D01*
X-31976Y37019D01*
X-31241Y37324D01*
X-31241Y37324D01*
X-29531Y38466D01*
X-29531Y38466D01*
X-29250Y38747D01*
X-28969Y39028D01*
X-28969Y39028D01*
X-27827Y40738D01*
X-27827Y40738D01*
X-27701Y41042D01*
X-27522Y41473D01*
Y41473D01*
X-27121Y43489D01*
X-27121Y43489D01*
Y43887D01*
Y44285D01*
X-27121Y44285D01*
X-27522Y46301D01*
X-27827Y47036D01*
X-27827Y47036D01*
X-28969Y48745D01*
X-28969Y48745D01*
X-29250Y49027D01*
X-29531Y49308D01*
X-29531Y49308D01*
X-31241Y50450D01*
X-31241Y50450D01*
X-31545Y50576D01*
X-31976Y50754D01*
X-31976D01*
X-33992Y51156D01*
X-33992Y51156D01*
X-34390D01*
X-34788D01*
X-34788Y51156D01*
X-36273Y50860D01*
X-36307Y50912D01*
X-36331Y50968D01*
X-36368Y51017D01*
X-36459Y51202D01*
X-38372Y53694D01*
X-38526Y53829D01*
X-38564Y53878D01*
X-38613Y53916D01*
X-38748Y54070D01*
X-41240Y55983D01*
X-41425Y56074D01*
X-41473Y56111D01*
X-41530Y56135D01*
X-41701Y56249D01*
X-44604Y57451D01*
X-44805Y57491D01*
X-44862Y57515D01*
X-44923Y57523D01*
X-45118Y57589D01*
X-48232Y57999D01*
D02*
G37*
G36*
X-35624Y63730D02*
X-38730D01*
Y60623D01*
X-38229Y60723D01*
X-36727Y61727D01*
X-35724Y63228D01*
X-35624Y63730D01*
D02*
G37*
G36*
X-41270D02*
X-44377D01*
X-44277Y63228D01*
X-43273Y61727D01*
X-41772Y60723D01*
X-41270Y60623D01*
Y63730D01*
D02*
G37*
G36*
X71686Y74930D02*
X62934D01*
X63033Y74429D01*
X64037Y72927D01*
X65065Y72240D01*
X64761Y71240D01*
X56820D01*
Y59970D01*
X73900D01*
Y71240D01*
X69859D01*
X69555Y72240D01*
X70583Y72927D01*
X71587Y74429D01*
X71686Y74930D01*
D02*
G37*
G36*
X73900Y57430D02*
X66630D01*
Y46160D01*
X73900D01*
Y57430D01*
D02*
G37*
G36*
X63570Y34376D02*
X63069Y34277D01*
X61567Y33273D01*
X60563Y31771D01*
X60464Y31270D01*
X63570D01*
Y34376D01*
D02*
G37*
G36*
X69216Y28730D02*
X66110D01*
Y25624D01*
X66611Y25723D01*
X68113Y26727D01*
X69117Y28229D01*
X69216Y28730D01*
D02*
G37*
G36*
X63570D02*
X60464D01*
X60563Y28229D01*
X61567Y26727D01*
X63069Y25723D01*
X63570Y25624D01*
Y28730D01*
D02*
G37*
G36*
X64090Y57430D02*
X56820D01*
Y48695D01*
Y48260D01*
Y46160D01*
X64090D01*
Y57430D01*
D02*
G37*
G36*
X53400D02*
X46130D01*
Y46160D01*
X53400D01*
Y48260D01*
Y48695D01*
Y57430D01*
D02*
G37*
G36*
X66110Y34376D02*
Y31270D01*
X69216D01*
X69117Y31771D01*
X68113Y33273D01*
X66611Y34277D01*
X66110Y34376D01*
D02*
G37*
G36*
X-58404Y125250D02*
X-61510D01*
Y122144D01*
X-61009Y122243D01*
X-59507Y123247D01*
X-58503Y124749D01*
X-58404Y125250D01*
D02*
G37*
G36*
X-64050D02*
X-67156D01*
X-67057Y124749D01*
X-66053Y123247D01*
X-64551Y122243D01*
X-64050Y122144D01*
Y125250D01*
D02*
G37*
G36*
X47830Y120650D02*
X42560D01*
Y114880D01*
X47830D01*
Y120650D01*
D02*
G37*
G36*
X40020Y128960D02*
X34750D01*
Y123190D01*
X40020D01*
Y128960D01*
D02*
G37*
G36*
X61596Y125250D02*
X58490D01*
Y122144D01*
X58991Y122243D01*
X60493Y123247D01*
X61497Y124749D01*
X61596Y125250D01*
D02*
G37*
G36*
X55950D02*
X52844D01*
X52943Y124749D01*
X53947Y123247D01*
X55449Y122243D01*
X55950Y122144D01*
Y125250D01*
D02*
G37*
G36*
X40020Y120650D02*
X34750D01*
Y114880D01*
X40020D01*
Y120650D01*
D02*
G37*
G36*
X73900Y92930D02*
X56820D01*
Y81660D01*
X66362D01*
X66460Y80660D01*
X65539Y80477D01*
X64399Y79715D01*
X64037Y79473D01*
X63033Y77971D01*
X62934Y77470D01*
X71686D01*
X71587Y77971D01*
X70583Y79473D01*
X69081Y80477D01*
X68159Y80660D01*
X68258Y81660D01*
X73900D01*
Y92930D01*
D02*
G37*
G36*
X-38730Y69376D02*
Y66270D01*
X-35624D01*
X-35724Y66771D01*
X-36727Y68273D01*
X-38229Y69276D01*
X-38730Y69376D01*
D02*
G37*
G36*
X-41270D02*
X-41772Y69276D01*
X-43273Y68273D01*
X-44277Y66771D01*
X-44377Y66270D01*
X-41270D01*
Y69376D01*
D02*
G37*
G36*
X-32210Y113720D02*
X-37480D01*
Y107950D01*
X-32210D01*
Y113720D01*
D02*
G37*
G36*
X73900Y106740D02*
X66630D01*
Y95470D01*
X73900D01*
Y106740D01*
D02*
G37*
G36*
X64090D02*
X56820D01*
Y105845D01*
Y95470D01*
X64090D01*
Y106740D01*
D02*
G37*
G36*
X78730Y183730D02*
X75623D01*
X75723Y183228D01*
X76727Y181726D01*
X78228Y180723D01*
X78730Y180623D01*
Y183730D01*
D02*
G37*
G36*
X-26670Y259080D02*
X-40140D01*
Y245610D01*
X-26670D01*
Y259080D01*
D02*
G37*
G36*
X84376Y243730D02*
X81270D01*
Y240623D01*
X81771Y240723D01*
X83273Y241726D01*
X84276Y243228D01*
X84376Y243730D01*
D02*
G37*
G36*
X78730D02*
X75623D01*
X75723Y243228D01*
X76727Y241726D01*
X78228Y240723D01*
X78730Y240623D01*
Y243730D01*
D02*
G37*
G36*
X40140Y259080D02*
X26670D01*
Y245610D01*
X40140D01*
Y259080D01*
D02*
G37*
G36*
X24130D02*
X10660D01*
Y245610D01*
X24130D01*
Y259080D01*
D02*
G37*
G36*
X-10660D02*
X-24130D01*
Y245610D01*
X-10660D01*
Y259080D01*
D02*
G37*
G36*
X54376Y243730D02*
X51270D01*
Y240623D01*
X51771Y240723D01*
X53273Y241726D01*
X54276Y243228D01*
X54376Y243730D01*
D02*
G37*
G36*
X66270Y219376D02*
Y216270D01*
X69376D01*
X69276Y216771D01*
X68273Y218273D01*
X66771Y219276D01*
X66270Y219376D01*
D02*
G37*
G36*
X63730D02*
X63228Y219276D01*
X61727Y218273D01*
X60723Y216771D01*
X60623Y216270D01*
X63730D01*
Y219376D01*
D02*
G37*
G36*
X-53730D02*
Y216270D01*
X-50624D01*
X-50724Y216771D01*
X-51727Y218273D01*
X-53229Y219276D01*
X-53730Y219376D01*
D02*
G37*
G36*
X48730Y243730D02*
X45623D01*
X45723Y243228D01*
X46727Y241726D01*
X48228Y240723D01*
X48730Y240623D01*
Y243730D01*
D02*
G37*
G36*
X-65624D02*
X-68730D01*
Y240623D01*
X-68229Y240723D01*
X-66727Y241726D01*
X-65724Y243228D01*
X-65624Y243730D01*
D02*
G37*
G36*
X-71270D02*
X-74377D01*
X-74277Y243228D01*
X-73273Y241726D01*
X-71772Y240723D01*
X-71270Y240623D01*
Y243730D01*
D02*
G37*
G36*
X40140Y275090D02*
X26670D01*
Y261620D01*
X40140D01*
Y275090D01*
D02*
G37*
G36*
X24130D02*
X10660D01*
Y261620D01*
X24130D01*
Y275090D01*
D02*
G37*
G36*
X-10660D02*
X-24130D01*
Y261620D01*
X-10660D01*
Y275090D01*
D02*
G37*
G36*
X3730Y279376D02*
X3228Y279276D01*
X1727Y278273D01*
X723Y276771D01*
X624Y276270D01*
X3730D01*
Y279376D01*
D02*
G37*
G36*
X6270D02*
Y275000D01*
Y270623D01*
X6771Y270723D01*
X8273Y271726D01*
X9276Y273228D01*
X9629Y275000D01*
X9276Y276771D01*
X8273Y278273D01*
X6771Y279276D01*
X6270Y279376D01*
D02*
G37*
G36*
X3730Y273730D02*
X624D01*
X723Y273228D01*
X1727Y271726D01*
X3228Y270723D01*
X3730Y270623D01*
Y273730D01*
D02*
G37*
G36*
X-26670Y275090D02*
X-40140D01*
Y261620D01*
X-26670D01*
Y275090D01*
D02*
G37*
G36*
X48730Y249376D02*
X48228Y249276D01*
X46727Y248273D01*
X45723Y246771D01*
X45623Y246270D01*
X48730D01*
Y249376D01*
D02*
G37*
G36*
X-68730D02*
Y246270D01*
X-65624D01*
X-65724Y246771D01*
X-66727Y248273D01*
X-68229Y249276D01*
X-68730Y249376D01*
D02*
G37*
G36*
X-71270D02*
X-71772Y249276D01*
X-73273Y248273D01*
X-74277Y246771D01*
X-74377Y246270D01*
X-71270D01*
Y249376D01*
D02*
G37*
G36*
X81270D02*
Y246270D01*
X84376D01*
X84276Y246771D01*
X83273Y248273D01*
X81771Y249276D01*
X81270Y249376D01*
D02*
G37*
G36*
X78730D02*
X78228Y249276D01*
X76727Y248273D01*
X75723Y246771D01*
X75623Y246270D01*
X78730D01*
Y249376D01*
D02*
G37*
G36*
X51270D02*
Y246270D01*
X54376D01*
X54276Y246771D01*
X53273Y248273D01*
X51771Y249276D01*
X51270Y249376D01*
D02*
G37*
G36*
Y189376D02*
Y186270D01*
X54376D01*
X54276Y186771D01*
X53273Y188273D01*
X51771Y189276D01*
X51270Y189376D01*
D02*
G37*
G36*
X48730D02*
X48228Y189276D01*
X46727Y188273D01*
X45723Y186771D01*
X45623Y186270D01*
X48730D01*
Y189376D01*
D02*
G37*
G36*
X21270D02*
Y186270D01*
X24376D01*
X24276Y186771D01*
X23273Y188273D01*
X21771Y189276D01*
X21270Y189376D01*
D02*
G37*
G36*
X0Y248566D02*
X-3524Y248102D01*
X-6808Y246742D01*
X-9628Y244578D01*
X-11792Y241758D01*
X-13153Y238474D01*
X-13616Y234950D01*
X-13153Y231426D01*
X-11792Y228142D01*
X-9628Y225322D01*
X-6808Y223158D01*
X-6118Y222872D01*
Y189024D01*
X-7118Y188534D01*
X-8229Y189276D01*
X-8730Y189376D01*
Y185000D01*
Y180623D01*
X-8229Y180723D01*
X-7118Y181466D01*
X-7028Y181422D01*
X-6500Y180640D01*
Y168640D01*
X-591D01*
X-0Y168522D01*
X591Y168640D01*
X6500D01*
Y180640D01*
X6118D01*
Y222872D01*
X6808Y223158D01*
X9628Y225322D01*
X11792Y228142D01*
X13153Y231426D01*
X13616Y234950D01*
X13153Y238474D01*
X11792Y241758D01*
X9628Y244578D01*
X6808Y246742D01*
X3524Y248102D01*
X0Y248566D01*
D02*
G37*
G36*
X81270Y189376D02*
Y186270D01*
X84376D01*
X84276Y186771D01*
X83273Y188273D01*
X81771Y189276D01*
X81270Y189376D01*
D02*
G37*
G36*
X78730D02*
X78228Y189276D01*
X76727Y188273D01*
X75723Y186771D01*
X75623Y186270D01*
X78730D01*
Y189376D01*
D02*
G37*
G36*
X18730D02*
X18228Y189276D01*
X16727Y188273D01*
X15723Y186771D01*
X15624Y186270D01*
X18730D01*
Y189376D01*
D02*
G37*
G36*
X-68730D02*
Y186270D01*
X-65624D01*
X-65724Y186771D01*
X-66727Y188273D01*
X-68229Y189276D01*
X-68730Y189376D01*
D02*
G37*
G36*
X-71270D02*
X-71772Y189276D01*
X-73273Y188273D01*
X-74277Y186771D01*
X-74377Y186270D01*
X-71270D01*
Y189376D01*
D02*
G37*
G36*
X84376Y183730D02*
X81270D01*
Y180623D01*
X81771Y180723D01*
X83273Y181726D01*
X84276Y183228D01*
X84376Y183730D01*
D02*
G37*
G36*
X-11270Y189376D02*
X-11772Y189276D01*
X-13273Y188273D01*
X-14277Y186771D01*
X-14376Y186270D01*
X-11270D01*
Y189376D01*
D02*
G37*
G36*
X-38730D02*
Y186270D01*
X-35624D01*
X-35724Y186771D01*
X-36727Y188273D01*
X-38229Y189276D01*
X-38730Y189376D01*
D02*
G37*
G36*
X-41270D02*
X-41772Y189276D01*
X-43273Y188273D01*
X-44277Y186771D01*
X-44377Y186270D01*
X-41270D01*
Y189376D01*
D02*
G37*
G36*
X-26670Y224290D02*
X-40140D01*
Y210820D01*
X-26670D01*
Y224290D01*
D02*
G37*
G36*
X69376Y213730D02*
X66270D01*
Y210623D01*
X66771Y210723D01*
X68273Y211726D01*
X69276Y213228D01*
X69376Y213730D01*
D02*
G37*
G36*
X63730D02*
X60623D01*
X60723Y213228D01*
X61727Y211726D01*
X63228Y210723D01*
X63730Y210623D01*
Y213730D01*
D02*
G37*
G36*
X-10660Y224290D02*
X-24130D01*
Y210820D01*
X-10660D01*
Y224290D01*
D02*
G37*
G36*
X-56270Y219376D02*
X-56772Y219276D01*
X-58273Y218273D01*
X-59277Y216771D01*
X-59377Y216270D01*
X-56270D01*
Y219376D01*
D02*
G37*
G36*
X40140Y224290D02*
X26670D01*
Y210820D01*
X40140D01*
Y224290D01*
D02*
G37*
G36*
X24130D02*
X10660D01*
Y210820D01*
X24130D01*
Y224290D01*
D02*
G37*
G36*
X-10660Y208280D02*
X-24130D01*
Y194810D01*
X-10660D01*
Y208280D01*
D02*
G37*
G36*
X24130D02*
X10660D01*
Y194810D01*
X24130D01*
Y208280D01*
D02*
G37*
G36*
X40140D02*
X26670D01*
Y194810D01*
X40140D01*
Y208280D01*
D02*
G37*
G36*
X-26670D02*
X-40140D01*
Y194810D01*
X-26670D01*
Y208280D01*
D02*
G37*
G36*
X-50624Y213730D02*
X-53730D01*
Y210623D01*
X-53229Y210723D01*
X-51727Y211726D01*
X-50724Y213228D01*
X-50624Y213730D01*
D02*
G37*
G36*
X-56270D02*
X-59377D01*
X-59277Y213228D01*
X-58273Y211726D01*
X-56772Y210723D01*
X-56270Y210623D01*
Y213730D01*
D02*
G37*
%LPD*%
G36*
X-45384Y55567D02*
X-42482Y54365D01*
X-39989Y52453D01*
X-38077Y49960D01*
X-37436Y48413D01*
X-37436Y48412D01*
X-37391Y48302D01*
X-37484Y48078D01*
X-37545Y48052D01*
X-37547Y48054D01*
X-37546Y48055D01*
X-37548Y48056D01*
X-37547Y48054D01*
X-37579Y47976D01*
X-37804Y47883D01*
X-38019Y47972D01*
X-38005Y47986D01*
X-37982Y48010D01*
X-39918Y49599D01*
X-42567Y51015D01*
X-45441Y51886D01*
X-48429Y52181D01*
X-51418Y51886D01*
X-54292Y51015D01*
X-56940Y49599D01*
X-59132Y47800D01*
X-58453Y47346D01*
X-57311Y45637D01*
X-56910Y43620D01*
X-57311Y41604D01*
X-58453Y39895D01*
X-58864Y39621D01*
X-56987Y38080D01*
X-54338Y36665D01*
X-51464Y35793D01*
X-48475Y35498D01*
X-45487Y35793D01*
X-42613Y36665D01*
X-39964Y38080D01*
X-37737Y39908D01*
X-38115Y40161D01*
X-39257Y41871D01*
X-39659Y43887D01*
X-39257Y45903D01*
X-38115Y47612D01*
X-36406Y48755D01*
X-34390Y49156D01*
X-32374Y48755D01*
X-30664Y47612D01*
X-29522Y45903D01*
X-29121Y43887D01*
X-29522Y41871D01*
X-30664Y40161D01*
X-32374Y39019D01*
X-34390Y38618D01*
X-36406Y39019D01*
X-37242Y39578D01*
X-37229Y39565D01*
X-37381Y39440D01*
X-37413Y39472D01*
X-38215Y37534D01*
X-40128Y35042D01*
X-42620Y33130D01*
X-45522Y31927D01*
X-48637Y31517D01*
X-51752Y31927D01*
X-54654Y33130D01*
X-57146Y35042D01*
X-59059Y37534D01*
X-59693Y39066D01*
X-60162Y38753D01*
X-62178Y38352D01*
X-64195Y38753D01*
X-65904Y39895D01*
X-67046Y41604D01*
X-67447Y43620D01*
X-67046Y45637D01*
X-65904Y47346D01*
X-64195Y48488D01*
X-62178Y48889D01*
X-60162Y48488D01*
X-59667Y48157D01*
X-58920Y49960D01*
X-57008Y52453D01*
X-54516Y54365D01*
X-51613Y55567D01*
X-48499Y55977D01*
X-45384Y55567D01*
D02*
G37*
G36*
X-46575Y48534D02*
X-44865Y47392D01*
X-43723Y45683D01*
X-43322Y43667D01*
X-43723Y41650D01*
X-44865Y39941D01*
X-46575Y38799D01*
X-48591Y38398D01*
X-50607Y38799D01*
X-52316Y39941D01*
X-53458Y41650D01*
X-53860Y43667D01*
X-53458Y45683D01*
X-52316Y47392D01*
X-50607Y48534D01*
X-48591Y48935D01*
X-46575Y48534D01*
D02*
G37*
%LPC*%
G36*
X-37422Y39482D02*
X-37413Y39472D01*
X-37410Y39478D01*
X-37422Y39482D01*
D02*
G37*
%LPD*%
D10*
X-59101Y39478D02*
G03*
X-37490Y39827I10625J11339D01*
G01*
X-37804Y48201D02*
G03*
X-59414Y47853I-10625J-11339D01*
G01*
X-37709Y48302D02*
G03*
X-59447Y47886I-10790J-4359D01*
G01*
X-59427Y39192D02*
G03*
X-37688Y39609I10790J4359D01*
G01*
D11*
X14620Y120650D02*
D03*
X620D02*
D03*
X67930Y161290D02*
D03*
X81930D02*
D03*
X-10780Y120650D02*
D03*
X-24780D02*
D03*
X41290Y121920D02*
D03*
X27290D02*
D03*
X52720Y161290D02*
D03*
X38720D02*
D03*
X-38750Y106680D02*
D03*
X-24750D02*
D03*
X-38750Y93980D02*
D03*
X-24750D02*
D03*
D12*
X15240Y133970D02*
D03*
Y147970D02*
D03*
X0Y174640D02*
D03*
Y160640D02*
D03*
Y147970D02*
D03*
Y133970D02*
D03*
D13*
X44860Y94200D02*
D03*
X65360D02*
D03*
Y58700D02*
D03*
X44860D02*
D03*
D14*
X-57150Y76940D02*
D03*
Y105940D02*
D03*
D15*
X-13970Y40640D02*
D03*
D16*
X-7470D02*
D03*
X-970D02*
D03*
X5530D02*
D03*
X12030D02*
D03*
X18530D02*
D03*
X25030D02*
D03*
X31530D02*
D03*
X-13970Y99640D02*
D03*
X-7470D02*
D03*
X-970D02*
D03*
X5530D02*
D03*
X12030D02*
D03*
X18530D02*
D03*
X25030D02*
D03*
X31530D02*
D03*
D17*
X38720Y161133D02*
X83013Y116840D01*
X38720Y161133D02*
Y161290D01*
X83013Y116840D02*
X88900D01*
X-45190Y93980D02*
X-38750D01*
X-57150Y105940D02*
X-45190Y93980D01*
X-970Y99640D02*
Y110490D01*
X5530Y99640D02*
Y115740D01*
X620Y120650D02*
X5530Y115740D01*
X14620Y120650D02*
X27290D01*
X14620Y133350D02*
X15240Y133970D01*
X14620Y120650D02*
Y133350D01*
X-10160Y121270D02*
X-0D01*
Y133970D01*
X15240Y147970D02*
X15240Y147970D01*
X-0Y147970D02*
X15240D01*
X-0D02*
Y160640D01*
X14620Y114545D02*
Y120650D01*
X12030Y111955D02*
X14620Y114545D01*
X12030Y99640D02*
Y111955D01*
X52720Y161290D02*
X67930D01*
X67930Y161290D01*
D18*
X18530Y87110D02*
X19383Y84068D01*
X21590Y76200D01*
X31608Y76457D01*
X-19050Y76200D02*
X7620D01*
X13970Y82550D01*
X18530Y87110D01*
Y99640D01*
X1320Y11380D02*
X59780D01*
X5530Y15880D02*
Y40640D01*
X12030Y27340D02*
X12700Y26670D01*
X-970Y13670D02*
Y40640D01*
Y13670D02*
X1320Y11380D01*
X59780D02*
X83255Y34855D01*
X12030Y27340D02*
Y40640D01*
X24130Y100540D02*
X25030Y99640D01*
X24130Y100540D02*
Y111760D01*
X5530Y15880D02*
X6350Y16700D01*
X21590Y111760D02*
X24130D01*
X-29210Y25400D02*
X-13970Y40640D01*
X-89043Y40340D02*
X-80980D01*
X-66040Y25400D01*
X-29210D01*
D19*
X-24780Y91672D02*
Y120650D01*
X-57150Y76940D02*
X-39512D01*
X-24780Y91672D01*
D20*
X-13970Y99640D02*
Y110490D01*
X31530Y99640D02*
X39420D01*
X-7920Y40190D02*
X-7470Y40640D01*
X-7920Y14940D02*
Y40190D01*
X18530Y40640D02*
X19050Y40120D01*
Y21590D02*
Y40120D01*
X25030Y27040D02*
Y40640D01*
X88740Y89351D02*
Y91140D01*
X-89060Y63660D02*
Y65740D01*
X80980D02*
X88740D01*
D21*
X-0Y234950D02*
X0Y234950D01*
D22*
X-0Y174640D02*
Y234950D01*
D23*
X-25400Y209550D02*
D03*
Y260350D02*
D03*
D24*
X25400Y209550D02*
D03*
Y260350D02*
D03*
D25*
X0Y234950D02*
D03*
D26*
X-89060Y116540D02*
D03*
Y141940D02*
D03*
X88740Y91140D02*
D03*
X-89060Y14940D02*
D03*
X-89043Y40340D02*
D03*
X-89060Y65740D02*
D03*
Y91140D02*
D03*
X88740Y14964D02*
D03*
Y40340D02*
D03*
Y65740D02*
D03*
Y141940D02*
D03*
X88900Y116840D02*
D03*
D27*
X26670Y69850D02*
D03*
X13970D02*
D03*
Y82550D02*
D03*
X1270Y69850D02*
D03*
X-10160D02*
D03*
Y82550D02*
D03*
X26670Y58420D02*
D03*
X13970D02*
D03*
X-10160D02*
D03*
X1270D02*
D03*
X26670Y82550D02*
D03*
X1270D02*
D03*
D28*
X67310Y76200D02*
D03*
X64840Y30000D02*
D03*
X-970Y109520D02*
D03*
X-7920Y14940D02*
D03*
X19050Y21590D02*
D03*
X12030Y27340D02*
D03*
X-13970Y110490D02*
D03*
X6350Y16700D02*
D03*
X25030Y27040D02*
D03*
X21590Y111760D02*
D03*
X-70000Y185000D02*
D03*
X-85000Y215000D02*
D03*
X-70000Y245000D02*
D03*
X-40000Y65000D02*
D03*
X-55000Y155000D02*
D03*
X-40000Y185000D02*
D03*
X-55000Y215000D02*
D03*
X-25000Y155000D02*
D03*
X-10000Y185000D02*
D03*
X20000D02*
D03*
X5000Y275000D02*
D03*
X50000Y185000D02*
D03*
Y245000D02*
D03*
X80000Y185000D02*
D03*
X65000Y215000D02*
D03*
X80000Y245000D02*
D03*
X57220Y126520D02*
D03*
X-62780D02*
D03*
D29*
X-39512Y76940D02*
D03*
M02*
