%FSLAX44Y44*%
%MOMM*%
G71*
G01*
G75*
G04 Layer_Color=65535*
%ADD10C,0.0586*%
%ADD11R,0.8000X0.9000*%
%ADD12R,0.9000X0.8000*%
%ADD13R,1.2000X2.0000*%
%ADD14R,1.8000X1.3000*%
%ADD15R,0.4500X1.5000*%
%ADD16O,0.4500X1.5000*%
%ADD17C,0.4000*%
%ADD18C,0.2000*%
%ADD19C,0.7000*%
%ADD20C,0.3000*%
%ADD21C,0.5000*%
%ADD22C,0.8000*%
%ADD23R,2.4400X2.4400*%
%ADD24R,2.4400X2.4400*%
%ADD25C,2.3000*%
%ADD26C,1.8000*%
%ADD27C,1.0000*%
%ADD28C,0.4000*%
%ADD29C,0.5000*%
%ADD30C,0.1000*%
%ADD31C,0.1500*%
G36*
X-45614Y216836D02*
Y216762D01*
Y216688D01*
Y216614D01*
Y216540D01*
Y216466D01*
Y216392D01*
Y216318D01*
Y216244D01*
Y216170D01*
Y216096D01*
Y216023D01*
X-45984D01*
Y216096D01*
Y216170D01*
Y216244D01*
Y216318D01*
Y216392D01*
Y216466D01*
Y216540D01*
Y216614D01*
Y216688D01*
Y216762D01*
Y216836D01*
Y216910D01*
X-45614D01*
Y216836D01*
D02*
G37*
G36*
X-46649D02*
Y216762D01*
Y216688D01*
Y216614D01*
Y216540D01*
Y216466D01*
Y216392D01*
Y216318D01*
Y216244D01*
Y216170D01*
Y216096D01*
Y216023D01*
X-47906D01*
Y216096D01*
Y216170D01*
Y216244D01*
Y216318D01*
Y216392D01*
Y216466D01*
Y216540D01*
Y216614D01*
Y216688D01*
Y216762D01*
Y216836D01*
Y216910D01*
X-46649D01*
Y216836D01*
D02*
G37*
G36*
X-50345D02*
Y216762D01*
Y216688D01*
Y216614D01*
Y216540D01*
Y216466D01*
Y216392D01*
Y216318D01*
Y216244D01*
Y216170D01*
Y216096D01*
X-50271D01*
Y216023D01*
X-51601D01*
Y216096D01*
Y216170D01*
Y216244D01*
Y216318D01*
Y216392D01*
Y216466D01*
Y216540D01*
Y216614D01*
Y216688D01*
Y216762D01*
Y216836D01*
Y216910D01*
X-50345D01*
Y216836D01*
D02*
G37*
G36*
X-74072Y220014D02*
Y219940D01*
Y219866D01*
Y219792D01*
Y219718D01*
Y219645D01*
Y219571D01*
Y219497D01*
Y219423D01*
Y219349D01*
Y219275D01*
Y219201D01*
X-74441D01*
Y219275D01*
Y219349D01*
Y219423D01*
Y219497D01*
Y219571D01*
Y219645D01*
Y219718D01*
Y219792D01*
Y219866D01*
Y219940D01*
Y220014D01*
Y220088D01*
X-74072D01*
Y220014D01*
D02*
G37*
G36*
X-75845D02*
X-75919D01*
Y219940D01*
Y219866D01*
Y219792D01*
Y219718D01*
Y219645D01*
Y219571D01*
Y219497D01*
Y219423D01*
Y219349D01*
Y219275D01*
X-75845D01*
Y219201D01*
X-76215D01*
Y219275D01*
Y219349D01*
Y219423D01*
Y219497D01*
Y219571D01*
Y219645D01*
Y219718D01*
Y219792D01*
Y219866D01*
Y219940D01*
Y220014D01*
Y220088D01*
X-75845D01*
Y220014D01*
D02*
G37*
G36*
X-76880D02*
X-76954D01*
Y219940D01*
Y219866D01*
Y219792D01*
Y219718D01*
Y219645D01*
Y219571D01*
Y219497D01*
Y219423D01*
Y219349D01*
Y219275D01*
X-76880D01*
Y219201D01*
X-77250D01*
Y219275D01*
Y219349D01*
Y219423D01*
Y219497D01*
Y219571D01*
Y219645D01*
Y219718D01*
Y219792D01*
Y219866D01*
Y219940D01*
Y220014D01*
Y220088D01*
X-76880D01*
Y220014D01*
D02*
G37*
G36*
X-58919Y216836D02*
Y216762D01*
Y216688D01*
Y216614D01*
Y216540D01*
Y216466D01*
Y216392D01*
Y216318D01*
Y216244D01*
Y216170D01*
Y216096D01*
Y216023D01*
X-59289D01*
Y216096D01*
Y216170D01*
Y216244D01*
Y216318D01*
Y216392D01*
Y216466D01*
Y216540D01*
Y216614D01*
Y216688D01*
Y216762D01*
Y216836D01*
Y216910D01*
X-58919D01*
Y216836D01*
D02*
G37*
G36*
X-61654D02*
Y216762D01*
Y216688D01*
Y216614D01*
Y216540D01*
Y216466D01*
Y216392D01*
Y216318D01*
Y216244D01*
Y216170D01*
Y216096D01*
Y216023D01*
X-62910D01*
Y216096D01*
Y216170D01*
Y216244D01*
Y216318D01*
Y216392D01*
Y216466D01*
Y216540D01*
Y216614D01*
Y216688D01*
Y216762D01*
Y216836D01*
Y216910D01*
X-61654D01*
Y216836D01*
D02*
G37*
G36*
X-65350D02*
Y216762D01*
Y216688D01*
Y216614D01*
Y216540D01*
Y216466D01*
Y216392D01*
Y216318D01*
Y216244D01*
Y216170D01*
Y216096D01*
Y216023D01*
X-65719D01*
Y216096D01*
Y216170D01*
X-65645D01*
Y216244D01*
Y216318D01*
Y216392D01*
Y216466D01*
Y216540D01*
Y216614D01*
Y216688D01*
Y216762D01*
Y216836D01*
X-65719D01*
Y216910D01*
X-65350D01*
Y216836D01*
D02*
G37*
G36*
X-52267D02*
Y216762D01*
Y216688D01*
Y216614D01*
Y216540D01*
Y216466D01*
Y216392D01*
Y216318D01*
Y216244D01*
Y216170D01*
Y216096D01*
Y216023D01*
X-53523D01*
Y216096D01*
Y216170D01*
Y216244D01*
Y216318D01*
Y216392D01*
Y216466D01*
Y216540D01*
Y216614D01*
Y216688D01*
Y216762D01*
Y216836D01*
Y216910D01*
X-52267D01*
Y216836D01*
D02*
G37*
G36*
X-54188D02*
Y216762D01*
Y216688D01*
Y216614D01*
Y216540D01*
Y216466D01*
Y216392D01*
Y216318D01*
Y216244D01*
Y216170D01*
Y216096D01*
Y216023D01*
X-55519D01*
Y216096D01*
Y216170D01*
Y216244D01*
Y216318D01*
Y216392D01*
Y216466D01*
Y216540D01*
Y216614D01*
Y216688D01*
Y216762D01*
Y216836D01*
Y216910D01*
X-54188D01*
Y216836D01*
D02*
G37*
G36*
X-57884D02*
Y216762D01*
Y216688D01*
Y216614D01*
Y216540D01*
Y216466D01*
Y216392D01*
Y216318D01*
Y216244D01*
Y216170D01*
Y216096D01*
Y216023D01*
X-58254D01*
Y216096D01*
Y216170D01*
Y216244D01*
Y216318D01*
Y216392D01*
Y216466D01*
Y216540D01*
Y216614D01*
Y216688D01*
Y216762D01*
Y216836D01*
Y216910D01*
X-57884D01*
Y216836D01*
D02*
G37*
G36*
X-52267Y220014D02*
Y219940D01*
Y219866D01*
Y219792D01*
Y219718D01*
Y219645D01*
Y219571D01*
Y219497D01*
Y219423D01*
Y219349D01*
Y219275D01*
Y219201D01*
X-52636D01*
Y219275D01*
Y219349D01*
Y219423D01*
Y219497D01*
Y219571D01*
Y219645D01*
Y219718D01*
Y219792D01*
Y219866D01*
Y219940D01*
Y220014D01*
Y220088D01*
X-52267D01*
Y220014D01*
D02*
G37*
G36*
X-56480D02*
Y219940D01*
Y219866D01*
Y219792D01*
Y219718D01*
Y219645D01*
Y219571D01*
Y219497D01*
Y219423D01*
Y219349D01*
Y219275D01*
Y219201D01*
X-57736D01*
Y219275D01*
Y219349D01*
Y219423D01*
Y219497D01*
Y219571D01*
Y219645D01*
Y219718D01*
Y219792D01*
Y219866D01*
Y219940D01*
Y220014D01*
Y220088D01*
X-56480D01*
Y220014D01*
D02*
G37*
G36*
X-59215D02*
Y219940D01*
Y219866D01*
Y219792D01*
Y219718D01*
Y219645D01*
Y219571D01*
Y219497D01*
Y219423D01*
Y219349D01*
Y219275D01*
Y219201D01*
X-60471D01*
Y219275D01*
Y219349D01*
Y219423D01*
Y219497D01*
Y219571D01*
Y219645D01*
Y219718D01*
Y219792D01*
Y219866D01*
Y219940D01*
Y220014D01*
Y220088D01*
X-59215D01*
Y220014D01*
D02*
G37*
G36*
X-46575D02*
Y219940D01*
Y219866D01*
Y219792D01*
Y219718D01*
Y219645D01*
Y219571D01*
Y219497D01*
Y219423D01*
Y219349D01*
Y219275D01*
Y219201D01*
X-46945D01*
Y219275D01*
X-46871D01*
Y219349D01*
Y219423D01*
Y219497D01*
Y219571D01*
Y219645D01*
Y219718D01*
Y219792D01*
Y219866D01*
Y219940D01*
Y220014D01*
X-46945D01*
Y220088D01*
X-46575D01*
Y220014D01*
D02*
G37*
G36*
X-47610D02*
Y219940D01*
Y219866D01*
Y219792D01*
Y219718D01*
Y219645D01*
Y219571D01*
Y219497D01*
Y219423D01*
Y219349D01*
Y219275D01*
Y219201D01*
X-48866D01*
Y219275D01*
Y219349D01*
Y219423D01*
Y219497D01*
Y219571D01*
Y219645D01*
Y219718D01*
Y219792D01*
Y219866D01*
Y219940D01*
Y220014D01*
Y220088D01*
X-47610D01*
Y220014D01*
D02*
G37*
G36*
X-50345D02*
Y219940D01*
Y219866D01*
Y219792D01*
Y219718D01*
Y219645D01*
Y219571D01*
Y219497D01*
Y219423D01*
Y219349D01*
Y219275D01*
Y219201D01*
X-51601D01*
Y219275D01*
Y219349D01*
Y219423D01*
Y219497D01*
Y219571D01*
Y219645D01*
Y219718D01*
Y219792D01*
Y219866D01*
Y219940D01*
Y220014D01*
Y220088D01*
X-50345D01*
Y220014D01*
D02*
G37*
G36*
X-66902D02*
Y219940D01*
Y219866D01*
Y219792D01*
Y219718D01*
Y219645D01*
Y219571D01*
Y219497D01*
Y219423D01*
Y219349D01*
Y219275D01*
Y219201D01*
X-68158D01*
Y219275D01*
Y219349D01*
Y219423D01*
Y219497D01*
Y219571D01*
Y219645D01*
Y219718D01*
Y219792D01*
Y219866D01*
Y219940D01*
Y220014D01*
Y220088D01*
X-66902D01*
Y220014D01*
D02*
G37*
G36*
X-72002D02*
Y219940D01*
Y219866D01*
Y219792D01*
Y219718D01*
Y219645D01*
Y219571D01*
Y219497D01*
Y219423D01*
Y219349D01*
Y219275D01*
Y219201D01*
X-72372D01*
Y219275D01*
Y219349D01*
Y219423D01*
Y219497D01*
Y219571D01*
Y219645D01*
Y219718D01*
Y219792D01*
Y219866D01*
Y219940D01*
Y220014D01*
Y220088D01*
X-72002D01*
Y220014D01*
D02*
G37*
G36*
X-73037D02*
Y219940D01*
Y219866D01*
Y219792D01*
Y219718D01*
Y219645D01*
Y219571D01*
Y219497D01*
Y219423D01*
Y219349D01*
Y219275D01*
Y219201D01*
X-73406D01*
Y219275D01*
Y219349D01*
Y219423D01*
Y219497D01*
Y219571D01*
Y219645D01*
Y219718D01*
Y219792D01*
Y219866D01*
Y219940D01*
Y220014D01*
Y220088D01*
X-73037D01*
Y220014D01*
D02*
G37*
G36*
X-61136D02*
Y219940D01*
Y219866D01*
Y219792D01*
Y219718D01*
Y219645D01*
Y219571D01*
Y219497D01*
Y219423D01*
Y219349D01*
Y219275D01*
Y219201D01*
X-62467D01*
Y219275D01*
Y219349D01*
Y219423D01*
Y219497D01*
Y219571D01*
Y219645D01*
Y219718D01*
Y219792D01*
Y219866D01*
Y219940D01*
Y220014D01*
Y220088D01*
X-61136D01*
Y220014D01*
D02*
G37*
G36*
X-63132D02*
Y219940D01*
Y219866D01*
Y219792D01*
Y219718D01*
Y219645D01*
Y219571D01*
Y219497D01*
Y219423D01*
Y219349D01*
Y219275D01*
Y219201D01*
X-64389D01*
Y219275D01*
Y219349D01*
Y219423D01*
Y219497D01*
Y219571D01*
Y219645D01*
Y219718D01*
Y219792D01*
Y219866D01*
Y219940D01*
Y220014D01*
Y220088D01*
X-63132D01*
Y220014D01*
D02*
G37*
G36*
X-65867D02*
Y219940D01*
Y219866D01*
Y219792D01*
Y219718D01*
Y219645D01*
Y219571D01*
Y219497D01*
Y219423D01*
Y219349D01*
Y219275D01*
Y219201D01*
X-66237D01*
Y219275D01*
Y219349D01*
Y219423D01*
Y219497D01*
Y219571D01*
Y219645D01*
Y219718D01*
Y219792D01*
Y219866D01*
Y219940D01*
Y220014D01*
Y220088D01*
X-65867D01*
Y220014D01*
D02*
G37*
G36*
X-66384Y216836D02*
Y216762D01*
Y216688D01*
Y216614D01*
Y216540D01*
Y216466D01*
Y216392D01*
Y216318D01*
Y216244D01*
Y216170D01*
Y216096D01*
Y216023D01*
X-67641D01*
Y216096D01*
Y216170D01*
Y216244D01*
Y216318D01*
Y216392D01*
Y216466D01*
Y216540D01*
Y216614D01*
Y216688D01*
Y216762D01*
Y216836D01*
Y216910D01*
X-66384D01*
Y216836D01*
D02*
G37*
G36*
X-34526Y54989D02*
X-31776Y53850D01*
X-29414Y52038D01*
X-27602Y49676D01*
X-26462Y46926D01*
X-26074Y43974D01*
X-26462Y41023D01*
X-27602Y38272D01*
X-29414Y35910D01*
X-31776Y34098D01*
X-34526Y32959D01*
X-37477Y32571D01*
X-40429Y32959D01*
X-41353Y33342D01*
X-41350Y33344D01*
X-41620Y33379D01*
X-41617Y33395D01*
X-41784Y33464D01*
X-41877Y33689D01*
X-41802Y33870D01*
X-41795Y33865D01*
X-41795Y33865D01*
X-41795Y33865D01*
X-41795Y33865D01*
X-41756Y33960D01*
X-41531Y34053D01*
X-41423Y34008D01*
X-41423Y34008D01*
X-41423Y34007D01*
X-41200Y33915D01*
X-41199Y33917D01*
X-39552Y33700D01*
X-36918Y34047D01*
X-34463Y35064D01*
X-32355Y36681D01*
X-30738Y38789D01*
X-29721Y41244D01*
X-29374Y43878D01*
X-29721Y46512D01*
X-30738Y48967D01*
X-32355Y51075D01*
X-34463Y52692D01*
X-36918Y53709D01*
X-39552Y54056D01*
X-41607Y53786D01*
X-41600Y53753D01*
X-41661Y53728D01*
X-41886Y53822D01*
X-41953Y53983D01*
X-41952Y53982D01*
X-42020Y54144D01*
X-41926Y54369D01*
X-41814Y54415D01*
X-41814Y54415D01*
X-40429Y54989D01*
X-37477Y55378D01*
X-34526Y54989D01*
D02*
G37*
G36*
X19945Y291304D02*
X13332D01*
X13273Y291284D01*
X13195Y291206D01*
X13176Y291167D01*
X13156Y291089D01*
Y289021D01*
Y288982D01*
X13176Y288924D01*
X13254Y288865D01*
X13293Y288826D01*
X16921D01*
X17136Y288806D01*
X17389Y288787D01*
X17702Y288768D01*
X18014Y288709D01*
X18326Y288650D01*
X18618Y288553D01*
X18657Y288533D01*
X18735Y288494D01*
X18892Y288436D01*
X19048Y288358D01*
X19243Y288260D01*
X19438Y288143D01*
X19633Y287987D01*
X19808Y287831D01*
X19828Y287812D01*
X19886Y287753D01*
X19945Y287656D01*
X20042Y287539D01*
X20140Y287383D01*
X20238Y287207D01*
X20315Y286992D01*
X20394Y286778D01*
Y286758D01*
X20413Y286680D01*
X20452Y286544D01*
X20491Y286388D01*
X20511Y286193D01*
X20550Y285978D01*
X20569Y285744D01*
Y285490D01*
Y285451D01*
Y285354D01*
X20550Y285217D01*
Y285022D01*
X20511Y284808D01*
X20472Y284573D01*
X20433Y284320D01*
X20354Y284066D01*
Y284047D01*
X20315Y283949D01*
X20277Y283832D01*
X20199Y283676D01*
X20120Y283501D01*
X20003Y283305D01*
X19867Y283110D01*
X19711Y282935D01*
X19691Y282915D01*
X19633Y282857D01*
X19535Y282779D01*
X19418Y282662D01*
X19243Y282545D01*
X19067Y282428D01*
X18852Y282311D01*
X18599Y282194D01*
X18560Y282174D01*
X18482Y282155D01*
X18326Y282116D01*
X18131Y282077D01*
X17897Y282018D01*
X17604Y281979D01*
X17292Y281959D01*
X16941Y281940D01*
X11225D01*
Y283910D01*
X17136D01*
X17292Y283930D01*
X17467Y283969D01*
X17682Y284008D01*
X17877Y284086D01*
X18053Y284203D01*
X18209Y284339D01*
X18228Y284359D01*
X18267Y284417D01*
X18326Y284515D01*
X18404Y284652D01*
X18462Y284827D01*
X18521Y285022D01*
X18560Y285276D01*
X18579Y285529D01*
Y285568D01*
Y285646D01*
X18560Y285763D01*
X18540Y285919D01*
X18482Y286075D01*
X18423Y286271D01*
X18326Y286446D01*
X18189Y286602D01*
X18170Y286622D01*
X18111Y286661D01*
X18014Y286739D01*
X17877Y286817D01*
X17702Y286895D01*
X17467Y286973D01*
X17175Y287012D01*
X16843Y287031D01*
X12064D01*
X11966Y287051D01*
X11810Y287090D01*
X11635Y287148D01*
X11459Y287265D01*
X11323Y287421D01*
X11206Y287656D01*
X11186Y287792D01*
X11167Y287948D01*
Y292357D01*
Y292376D01*
Y292396D01*
X11186Y292493D01*
X11225Y292649D01*
X11284Y292825D01*
X11401Y292981D01*
X11557Y293137D01*
X11791Y293235D01*
X11947Y293274D01*
X19945D01*
Y291304D01*
D02*
G37*
G36*
X-6214Y293254D02*
X-6019Y293235D01*
X-5805Y293215D01*
X-5590Y293176D01*
X-5395Y293137D01*
X-5375D01*
X-5317Y293118D01*
X-5219Y293079D01*
X-5102Y293020D01*
X-4829Y292883D01*
X-4693Y292786D01*
X-4576Y292669D01*
X-4556Y292649D01*
X-4517Y292610D01*
X-4478Y292532D01*
X-4400Y292435D01*
X-4342Y292318D01*
X-4263Y292181D01*
X-4205Y292006D01*
X-4146Y291830D01*
Y291811D01*
X-4127Y291733D01*
X-4108Y291635D01*
X-4088Y291479D01*
X-4069Y291304D01*
X-4049Y291089D01*
X-4029Y290855D01*
Y290582D01*
Y281940D01*
X-6019D01*
Y290445D01*
Y290465D01*
Y290523D01*
Y290601D01*
X-6039Y290699D01*
X-6097Y290913D01*
X-6156Y291011D01*
X-6214Y291089D01*
Y291108D01*
X-6253Y291128D01*
X-6292Y291167D01*
X-6351Y291206D01*
X-6448Y291245D01*
X-6546Y291264D01*
X-6682Y291304D01*
X-7853D01*
Y293274D01*
X-6390D01*
X-6214Y293254D01*
D02*
G37*
G36*
X-70376Y192961D02*
X-70228D01*
Y192887D01*
X-70006D01*
Y192813D01*
X-69858D01*
Y192739D01*
Y192665D01*
Y192591D01*
Y192518D01*
Y192444D01*
X-70006D01*
Y192518D01*
X-70080D01*
Y192444D01*
X-70154D01*
Y192518D01*
X-70228D01*
Y192591D01*
X-70450D01*
Y192665D01*
X-70524D01*
Y192739D01*
Y192813D01*
Y192887D01*
Y192961D01*
Y193035D01*
X-70376D01*
Y192961D01*
D02*
G37*
G36*
X-42362Y204196D02*
X-42436D01*
Y204122D01*
Y204048D01*
Y203974D01*
X-42510D01*
Y203901D01*
Y203827D01*
Y203753D01*
X-42584D01*
Y203679D01*
X-42657D01*
Y203605D01*
X-42584D01*
Y203531D01*
X-42657D01*
Y203457D01*
X-42731D01*
Y203383D01*
Y203309D01*
Y203235D01*
X-42805D01*
Y203161D01*
Y203087D01*
X-42879D01*
Y203013D01*
Y202940D01*
X-42953D01*
Y202866D01*
Y202792D01*
X-43027D01*
Y202718D01*
Y202644D01*
X-43101D01*
Y202570D01*
Y202496D01*
Y202422D01*
X-43175D01*
Y202348D01*
X-43249D01*
Y202274D01*
Y202201D01*
X-43323D01*
Y202127D01*
Y202053D01*
X-43397D01*
Y201979D01*
Y201905D01*
X-43471D01*
Y201831D01*
Y201757D01*
X-43545D01*
Y201683D01*
X-43618D01*
Y201609D01*
Y201535D01*
Y201461D01*
X-43692D01*
Y201387D01*
X-43766D01*
Y201313D01*
X-43840D01*
Y201240D01*
Y201166D01*
Y201092D01*
X-43914D01*
Y201018D01*
X-43988D01*
Y200944D01*
Y200870D01*
X-44062D01*
Y200796D01*
Y200722D01*
X-44136D01*
Y200648D01*
X-44210D01*
Y200574D01*
X-44284D01*
Y200500D01*
Y200427D01*
Y200353D01*
X-44358D01*
Y200279D01*
X-44432D01*
Y200205D01*
X-44505D01*
Y200131D01*
X-44579D01*
Y200057D01*
X-44505D01*
Y199983D01*
X-44653D01*
Y199909D01*
Y199835D01*
X-44727D01*
Y199761D01*
X-44801D01*
Y199687D01*
X-44875D01*
Y199613D01*
Y199540D01*
X-44949D01*
Y199466D01*
Y199392D01*
X-45023D01*
Y199318D01*
X-45097D01*
Y199244D01*
X-45171D01*
Y199170D01*
X-45245D01*
Y199096D01*
X-45318D01*
Y199022D01*
X-45245D01*
Y198948D01*
X-45392D01*
Y198874D01*
Y198800D01*
X-45466D01*
Y198726D01*
X-45540D01*
Y198652D01*
X-45614D01*
Y198579D01*
X-45688D01*
Y198505D01*
X-45762D01*
Y198431D01*
X-45836D01*
Y198357D01*
X-45910D01*
Y198283D01*
Y198209D01*
X-45984D01*
Y198135D01*
Y198061D01*
X-46132D01*
Y197987D01*
Y197913D01*
X-46206D01*
Y197840D01*
X-46279D01*
Y197766D01*
X-46353D01*
Y197692D01*
X-46427D01*
Y197618D01*
X-46501D01*
Y197544D01*
X-46575D01*
Y197470D01*
X-46649D01*
Y197396D01*
X-46723D01*
Y197322D01*
X-46797D01*
Y197248D01*
X-46871D01*
Y197174D01*
X-46945D01*
Y197100D01*
X-47018D01*
Y197026D01*
X-47092D01*
Y196952D01*
X-47166D01*
Y196879D01*
X-47240D01*
Y196805D01*
X-47314D01*
Y196731D01*
X-47388D01*
Y196657D01*
X-47462D01*
Y196583D01*
X-47536D01*
Y196509D01*
X-47610D01*
Y196435D01*
X-47684D01*
Y196361D01*
X-47758D01*
Y196287D01*
X-47832D01*
Y196213D01*
X-47906D01*
Y196139D01*
X-47979D01*
Y196066D01*
X-48053D01*
Y195992D01*
X-48201D01*
Y195918D01*
X-48275D01*
Y195844D01*
X-48423D01*
Y195770D01*
Y195696D01*
X-48571D01*
Y195622D01*
X-48645D01*
Y195548D01*
X-48719D01*
Y195474D01*
X-48793D01*
Y195400D01*
X-48866D01*
Y195326D01*
X-48940D01*
Y195252D01*
X-49162D01*
Y195179D01*
X-49236D01*
Y195105D01*
X-49310D01*
Y195031D01*
X-49384D01*
Y194957D01*
X-49458D01*
Y194883D01*
X-49532D01*
Y194809D01*
X-49753D01*
Y194735D01*
X-49827D01*
Y194661D01*
X-49901D01*
Y194587D01*
X-49975D01*
Y194513D01*
X-50197D01*
Y194439D01*
X-50271D01*
Y194365D01*
X-50345D01*
Y194291D01*
X-50419D01*
Y194218D01*
X-50567D01*
Y194144D01*
X-50714D01*
Y194070D01*
X-50788D01*
Y193996D01*
X-50862D01*
Y193922D01*
X-51084D01*
Y193848D01*
X-51158D01*
Y193774D01*
X-51232D01*
Y193700D01*
X-51380D01*
Y193626D01*
X-51527D01*
Y193552D01*
X-51601D01*
Y193479D01*
X-51823D01*
Y193405D01*
X-51897D01*
Y193331D01*
X-52119D01*
Y193257D01*
X-52193D01*
Y193183D01*
X-52414D01*
Y193109D01*
X-52488D01*
Y193035D01*
X-52710D01*
Y192961D01*
X-52784D01*
Y192887D01*
X-53006D01*
Y192813D01*
X-53080D01*
Y192739D01*
X-53301D01*
Y192665D01*
X-53375D01*
Y192591D01*
X-53597D01*
Y192518D01*
X-53671D01*
Y192444D01*
X-54040D01*
Y192370D01*
X-54114D01*
Y192296D01*
X-54336D01*
Y192222D01*
X-54410D01*
Y192148D01*
X-54484D01*
Y192222D01*
X-54558D01*
Y192148D01*
X-54780D01*
Y192074D01*
X-54854D01*
Y192000D01*
X-54928D01*
Y192074D01*
X-55001D01*
Y192000D01*
X-55075D01*
Y191926D01*
X-55149D01*
Y192000D01*
X-55223D01*
Y191926D01*
X-55297D01*
Y191852D01*
X-55519D01*
Y191778D01*
X-55593D01*
Y191852D01*
X-55667D01*
Y191778D01*
X-55741D01*
Y191705D01*
X-55814D01*
Y191778D01*
X-55888D01*
Y191705D01*
X-56110D01*
Y191631D01*
X-56184D01*
Y191557D01*
X-56258D01*
Y191631D01*
X-56332D01*
Y191557D01*
X-56701D01*
Y191483D01*
X-56923D01*
Y191409D01*
X-57145D01*
Y191335D01*
X-57219D01*
Y191409D01*
X-57293D01*
Y191335D01*
X-57367D01*
Y191409D01*
X-57441D01*
Y191335D01*
X-57367D01*
Y191261D01*
X-57441D01*
Y191335D01*
X-57515D01*
Y191261D01*
X-57884D01*
Y191187D01*
X-57958D01*
Y191261D01*
X-58032D01*
Y191187D01*
X-58106D01*
Y191113D01*
X-58180D01*
Y191187D01*
X-58254D01*
Y191113D01*
X-58771D01*
Y191039D01*
X-58845D01*
Y191113D01*
X-58919D01*
Y191039D01*
X-59141D01*
Y190965D01*
X-59215D01*
Y191039D01*
X-59289D01*
Y190965D01*
X-59954D01*
Y190891D01*
X-60028D01*
Y190965D01*
X-60102D01*
Y190891D01*
X-60175D01*
Y190965D01*
X-60249D01*
Y190891D01*
X-60471D01*
Y190818D01*
X-60545D01*
Y190891D01*
X-60619D01*
Y190818D01*
X-60693D01*
Y190891D01*
X-60767D01*
Y190818D01*
X-60841D01*
Y190891D01*
X-60915D01*
Y190818D01*
X-60988D01*
Y190891D01*
X-61062D01*
Y190818D01*
X-61136D01*
Y190891D01*
X-61210D01*
Y190818D01*
X-61284D01*
Y190891D01*
X-61358D01*
Y190818D01*
X-61432D01*
Y190891D01*
X-61506D01*
Y190818D01*
X-61728D01*
Y190891D01*
X-61802D01*
Y190818D01*
X-62023D01*
Y190891D01*
X-62097D01*
Y190818D01*
X-62319D01*
Y190891D01*
X-62393D01*
Y190818D01*
X-62467D01*
Y190891D01*
X-62541D01*
Y190818D01*
X-62615D01*
Y190891D01*
X-62689D01*
Y190818D01*
X-62762D01*
Y190891D01*
X-62836D01*
Y190818D01*
X-62910D01*
Y190891D01*
X-62984D01*
Y190818D01*
X-63058D01*
Y190891D01*
X-63132D01*
Y190818D01*
X-63206D01*
Y190891D01*
X-63428D01*
Y190965D01*
X-63502D01*
Y190891D01*
X-63723D01*
Y190965D01*
X-63797D01*
Y190891D01*
X-63871D01*
Y190965D01*
X-64536D01*
Y191039D01*
X-64610D01*
Y190965D01*
X-64684D01*
Y191039D01*
X-64758D01*
Y191113D01*
X-64832D01*
Y191039D01*
X-64758D01*
Y190965D01*
X-64832D01*
Y191039D01*
X-64906D01*
Y191113D01*
X-64980D01*
Y191039D01*
X-65054D01*
Y191113D01*
X-65571D01*
Y191187D01*
X-65793D01*
Y191261D01*
X-65867D01*
Y191187D01*
X-65941D01*
Y191261D01*
X-66310D01*
Y191335D01*
X-66532D01*
Y191409D01*
X-66606D01*
Y191335D01*
X-66680D01*
Y191409D01*
X-66902D01*
Y191483D01*
X-66976D01*
Y191409D01*
X-67050D01*
Y191483D01*
X-67123D01*
Y191557D01*
X-67493D01*
Y191631D01*
X-67715D01*
Y191705D01*
X-67937D01*
Y191778D01*
X-68011D01*
Y191705D01*
X-68084D01*
Y191778D01*
X-68158D01*
Y191852D01*
X-68232D01*
Y191778D01*
X-68306D01*
Y191852D01*
X-68528D01*
Y191926D01*
X-68602D01*
Y192000D01*
X-68676D01*
Y191926D01*
X-68750D01*
Y192000D01*
X-68824D01*
Y192074D01*
X-68898D01*
Y192000D01*
X-68971D01*
Y191926D01*
Y191852D01*
Y191778D01*
Y191705D01*
Y191631D01*
Y191557D01*
Y191483D01*
Y191409D01*
Y191335D01*
X-69045D01*
Y191409D01*
Y191483D01*
Y191557D01*
Y191631D01*
Y191705D01*
Y191778D01*
Y191852D01*
Y191926D01*
Y192000D01*
Y192074D01*
Y192148D01*
Y192222D01*
Y192296D01*
Y192370D01*
Y192444D01*
X-68898D01*
Y192370D01*
X-68676D01*
Y192296D01*
X-68454D01*
Y192222D01*
X-68232D01*
Y192148D01*
X-68011D01*
Y192074D01*
X-67789D01*
Y192000D01*
X-67493D01*
Y191926D01*
X-67271D01*
Y191852D01*
X-66976D01*
Y191778D01*
X-66680D01*
Y191705D01*
X-66310D01*
Y191631D01*
X-66015D01*
Y191557D01*
X-65571D01*
Y191483D01*
X-65202D01*
Y191409D01*
X-64684D01*
Y191335D01*
X-64019D01*
Y191261D01*
X-63132D01*
Y191187D01*
X-60693D01*
Y191261D01*
X-59806D01*
Y191335D01*
X-59141D01*
Y191409D01*
X-58623D01*
Y191483D01*
X-58254D01*
Y191557D01*
X-57810D01*
Y191631D01*
X-57515D01*
Y191705D01*
X-57145D01*
Y191778D01*
X-56849D01*
Y191852D01*
X-56554D01*
Y191926D01*
X-56332D01*
Y192000D01*
X-56036D01*
Y192074D01*
X-55814D01*
Y192148D01*
X-55593D01*
Y192222D01*
X-55371D01*
Y192296D01*
X-55149D01*
Y192370D01*
X-54928D01*
Y192444D01*
X-54706D01*
Y192518D01*
X-54558D01*
Y192591D01*
X-54336D01*
Y192665D01*
X-54188D01*
Y192739D01*
X-53967D01*
Y192813D01*
X-53819D01*
Y192887D01*
X-53597D01*
Y192961D01*
X-53449D01*
Y193035D01*
X-53301D01*
Y193109D01*
X-53154D01*
Y193183D01*
X-53006D01*
Y193257D01*
X-52858D01*
Y193331D01*
X-52710D01*
Y193405D01*
X-52562D01*
Y193479D01*
X-52414D01*
Y193552D01*
X-52267D01*
Y193626D01*
X-52119D01*
Y193700D01*
X-51971D01*
Y193774D01*
X-51823D01*
Y193848D01*
X-51749D01*
Y193922D01*
X-51601D01*
Y193996D01*
X-51453D01*
Y194070D01*
X-51306D01*
Y194144D01*
X-51232D01*
Y194218D01*
X-51084D01*
Y194291D01*
X-51010D01*
Y194365D01*
X-50862D01*
Y194439D01*
X-50714D01*
Y194513D01*
X-50640D01*
Y194587D01*
X-50493D01*
Y194661D01*
X-50419D01*
Y194735D01*
X-50271D01*
Y194809D01*
X-50197D01*
Y194883D01*
X-50123D01*
Y194957D01*
X-49975D01*
Y195031D01*
X-49901D01*
Y195105D01*
X-49753D01*
Y195179D01*
X-49679D01*
Y195252D01*
X-49606D01*
Y195326D01*
X-49458D01*
Y195400D01*
X-49384D01*
Y195474D01*
X-49310D01*
Y195548D01*
X-49162D01*
Y195622D01*
X-49088D01*
Y195696D01*
X-49014D01*
Y195770D01*
X-48940D01*
Y195844D01*
X-48793D01*
Y195918D01*
X-48719D01*
Y195992D01*
X-48645D01*
Y196066D01*
X-48571D01*
Y196139D01*
X-48497D01*
Y196213D01*
X-48423D01*
Y196287D01*
X-48275D01*
Y196361D01*
X-48201D01*
Y196435D01*
X-48127D01*
Y196509D01*
X-48053D01*
Y196583D01*
X-47979D01*
Y196657D01*
X-47906D01*
Y196731D01*
X-47832D01*
Y196805D01*
X-47758D01*
Y196879D01*
X-47684D01*
Y196952D01*
X-47610D01*
Y197026D01*
X-47536D01*
Y197100D01*
X-47462D01*
Y197174D01*
X-47388D01*
Y197248D01*
X-47314D01*
Y197322D01*
X-47240D01*
Y197396D01*
X-47166D01*
Y197470D01*
X-47092D01*
Y197544D01*
X-47018D01*
Y197618D01*
X-46945D01*
Y197692D01*
X-46871D01*
Y197766D01*
X-46797D01*
Y197840D01*
X-46723D01*
Y197913D01*
X-46649D01*
Y197987D01*
X-46206D01*
Y198061D01*
Y198135D01*
Y198209D01*
Y198283D01*
Y198357D01*
Y198431D01*
Y198505D01*
X-46132D01*
Y198579D01*
X-46058D01*
Y198652D01*
X-45984D01*
Y198726D01*
Y198800D01*
X-45910D01*
Y198874D01*
X-45836D01*
Y198948D01*
X-45762D01*
Y199022D01*
X-45688D01*
Y199096D01*
Y199170D01*
X-45614D01*
Y199244D01*
X-45540D01*
Y199318D01*
X-45466D01*
Y199392D01*
X-45392D01*
Y199466D01*
Y199540D01*
X-45318D01*
Y199613D01*
X-45245D01*
Y199687D01*
Y199761D01*
X-45171D01*
Y199835D01*
X-45097D01*
Y199909D01*
X-45023D01*
Y199983D01*
Y200057D01*
X-44949D01*
Y200131D01*
X-44875D01*
Y200205D01*
Y200279D01*
X-44801D01*
Y200353D01*
X-44727D01*
Y200427D01*
Y200500D01*
X-44653D01*
Y200574D01*
X-44579D01*
Y200648D01*
Y200722D01*
X-44505D01*
Y200796D01*
X-44432D01*
Y200870D01*
Y200944D01*
X-44358D01*
Y201018D01*
Y201092D01*
X-44284D01*
Y201166D01*
X-44210D01*
Y201240D01*
Y201313D01*
X-44136D01*
Y201387D01*
Y201461D01*
X-44062D01*
Y201535D01*
X-43988D01*
Y201609D01*
Y201683D01*
X-43914D01*
Y201757D01*
Y201831D01*
X-43840D01*
Y201905D01*
Y201979D01*
X-43766D01*
Y202053D01*
Y202127D01*
X-43692D01*
Y202201D01*
X-43618D01*
Y202274D01*
Y202348D01*
X-43545D01*
Y202422D01*
Y202496D01*
X-43471D01*
Y202570D01*
Y202644D01*
X-43397D01*
Y202718D01*
Y202792D01*
X-43323D01*
Y202866D01*
Y202940D01*
Y203013D01*
X-43249D01*
Y203087D01*
Y203161D01*
X-43175D01*
Y203235D01*
Y203309D01*
X-43101D01*
Y203383D01*
Y203457D01*
X-43027D01*
Y203531D01*
Y203605D01*
X-42953D01*
Y203679D01*
Y203753D01*
Y203827D01*
X-42879D01*
Y203901D01*
Y203974D01*
X-42805D01*
Y204048D01*
Y204122D01*
X-42731D01*
Y204196D01*
Y204270D01*
X-42362D01*
Y204196D01*
D02*
G37*
G36*
X-56164Y54620D02*
X-55756Y54451D01*
X-55771Y54405D01*
X-55770Y54406D01*
X-55658Y54359D01*
X-55667Y54349D01*
X-55668Y54349D01*
X-55668Y54348D01*
X-55667Y54349D01*
X-55529Y54331D01*
X-55528Y54341D01*
X-55343Y54264D01*
X-55249Y54039D01*
X-55343Y53815D01*
X-55567Y53721D01*
X-55607Y53738D01*
X-55606Y53748D01*
X-56922Y53921D01*
X-59557Y53575D01*
X-62012Y52558D01*
X-64120Y50940D01*
X-65737Y48832D01*
X-66754Y46378D01*
X-67101Y43743D01*
X-66754Y41109D01*
X-65737Y38654D01*
X-64120Y36546D01*
X-62012Y34929D01*
X-59557Y33912D01*
X-56922Y33565D01*
X-55269Y33783D01*
X-55271Y33796D01*
X-55221Y33817D01*
X-54997Y33724D01*
X-54991Y33710D01*
X-54994Y33711D01*
X-54996Y33711D01*
X-54985Y33696D01*
X-54991Y33710D01*
X-54769Y33618D01*
X-54676Y33393D01*
X-54769Y33168D01*
X-54884Y33121D01*
X-54884Y33120D01*
X-56164Y32590D01*
X-59116Y32201D01*
X-62067Y32590D01*
X-64818Y33729D01*
X-67179Y35541D01*
X-68992Y37903D01*
X-70131Y40654D01*
X-70520Y43605D01*
X-70131Y46556D01*
X-68992Y49307D01*
X-67179Y51669D01*
X-64818Y53481D01*
X-62067Y54620D01*
X-59116Y55009D01*
X-56164Y54620D01*
D02*
G37*
G36*
X-33686Y23901D02*
X-33584D01*
X-33481Y23887D01*
X-33218Y23843D01*
X-32940Y23770D01*
X-32647Y23653D01*
X-32369Y23506D01*
X-32135Y23301D01*
X-32106Y23272D01*
X-32048Y23199D01*
X-31945Y23053D01*
X-31843Y22877D01*
X-31740Y22643D01*
X-31638Y22365D01*
X-31579Y22058D01*
X-31550Y21692D01*
Y21677D01*
Y21663D01*
Y21619D01*
Y21560D01*
X-31565Y21414D01*
X-31594Y21224D01*
Y21209D01*
Y21180D01*
X-31609Y21121D01*
X-31623Y21048D01*
X-31682Y20858D01*
X-31769Y20639D01*
Y20624D01*
X-31799Y20580D01*
X-31828Y20522D01*
X-31887Y20448D01*
X-31945Y20361D01*
X-32018Y20244D01*
X-32121Y20141D01*
X-32223Y20024D01*
X-32238Y20010D01*
X-32282Y19980D01*
X-32355Y19922D01*
X-32443Y19849D01*
X-32559Y19761D01*
X-32706Y19673D01*
X-32867Y19585D01*
X-33057Y19497D01*
X-37344Y17639D01*
X-37373Y17625D01*
X-37431Y17581D01*
X-37490Y17537D01*
X-37519Y17478D01*
X-31726D01*
Y15240D01*
X-39772D01*
Y17464D01*
Y17478D01*
Y17508D01*
Y17552D01*
X-39758Y17625D01*
X-39743Y17800D01*
X-39714Y18005D01*
Y18020D01*
X-39699Y18049D01*
X-39685Y18108D01*
X-39670Y18195D01*
X-39597Y18371D01*
X-39494Y18590D01*
X-39480Y18605D01*
X-39465Y18634D01*
X-39421Y18693D01*
X-39363Y18766D01*
X-39216Y18956D01*
X-39026Y19161D01*
X-39012Y19176D01*
X-38968Y19205D01*
X-38909Y19263D01*
X-38821Y19322D01*
X-38704Y19395D01*
X-38573Y19483D01*
X-38426Y19571D01*
X-38251Y19644D01*
X-33949Y21516D01*
X-33935D01*
X-33876Y21546D01*
X-33832Y21575D01*
X-33818Y21619D01*
Y21634D01*
X-33832Y21648D01*
X-33876Y21663D01*
X-33949Y21677D01*
X-39480D01*
Y23916D01*
X-33759D01*
X-33686Y23901D01*
D02*
G37*
G36*
X-40811Y15240D02*
X-43137D01*
Y17493D01*
X-40811D01*
Y15240D01*
D02*
G37*
G36*
X-46283Y23901D02*
X-46181D01*
X-46078Y23887D01*
X-45815Y23843D01*
X-45537Y23770D01*
X-45244Y23653D01*
X-44966Y23506D01*
X-44732Y23301D01*
X-44703Y23272D01*
X-44644Y23199D01*
X-44542Y23053D01*
X-44439Y22877D01*
X-44337Y22643D01*
X-44235Y22365D01*
X-44176Y22058D01*
X-44147Y21692D01*
Y21677D01*
Y21663D01*
Y21619D01*
Y21560D01*
X-44162Y21414D01*
X-44191Y21224D01*
Y21209D01*
Y21180D01*
X-44205Y21121D01*
X-44220Y21048D01*
X-44278Y20858D01*
X-44366Y20639D01*
Y20624D01*
X-44395Y20580D01*
X-44425Y20522D01*
X-44483Y20448D01*
X-44542Y20361D01*
X-44615Y20244D01*
X-44717Y20141D01*
X-44820Y20024D01*
X-44834Y20010D01*
X-44878Y19980D01*
X-44952Y19922D01*
X-45039Y19849D01*
X-45156Y19761D01*
X-45303Y19673D01*
X-45464Y19585D01*
X-45654Y19497D01*
X-49941Y17639D01*
X-49970Y17625D01*
X-50028Y17581D01*
X-50087Y17537D01*
X-50116Y17478D01*
X-44322D01*
Y15240D01*
X-52369D01*
Y17464D01*
Y17478D01*
Y17508D01*
Y17552D01*
X-52354Y17625D01*
X-52340Y17800D01*
X-52311Y18005D01*
Y18020D01*
X-52296Y18049D01*
X-52281Y18108D01*
X-52267Y18195D01*
X-52193Y18371D01*
X-52091Y18590D01*
X-52077Y18605D01*
X-52062Y18634D01*
X-52018Y18693D01*
X-51960Y18766D01*
X-51813Y18956D01*
X-51623Y19161D01*
X-51608Y19176D01*
X-51564Y19205D01*
X-51506Y19263D01*
X-51418Y19322D01*
X-51301Y19395D01*
X-51169Y19483D01*
X-51023Y19571D01*
X-50848Y19644D01*
X-46546Y21516D01*
X-46532D01*
X-46473Y21546D01*
X-46429Y21575D01*
X-46414Y21619D01*
Y21634D01*
X-46429Y21648D01*
X-46473Y21663D01*
X-46546Y21677D01*
X-52077D01*
Y23916D01*
X-46356D01*
X-46283Y23901D01*
D02*
G37*
G36*
X-12788Y293254D02*
X-12535D01*
X-12281Y293215D01*
X-11988Y293176D01*
X-11696Y293118D01*
X-11423Y293040D01*
X-11384D01*
X-11306Y293001D01*
X-11169Y292942D01*
X-10993Y292883D01*
X-10818Y292786D01*
X-10623Y292689D01*
X-10408Y292552D01*
X-10233Y292415D01*
X-10213Y292396D01*
X-10155Y292337D01*
X-10077Y292259D01*
X-9979Y292142D01*
X-9862Y291986D01*
X-9745Y291830D01*
X-9647Y291635D01*
X-9550Y291420D01*
X-9531Y291401D01*
X-9511Y291323D01*
X-9472Y291206D01*
X-9433Y291050D01*
X-9394Y290874D01*
X-9374Y290660D01*
X-9335Y290426D01*
Y290172D01*
Y290152D01*
Y290133D01*
Y290016D01*
X-9355Y289821D01*
X-9394Y289606D01*
X-9433Y289353D01*
X-9511Y289080D01*
X-9609Y288806D01*
X-9745Y288572D01*
X-9765Y288553D01*
X-9823Y288475D01*
X-9921Y288358D01*
X-10057Y288241D01*
X-10213Y288085D01*
X-10428Y287929D01*
X-10681Y287792D01*
X-10955Y287656D01*
X-10915Y287636D01*
X-10818Y287597D01*
X-10681Y287519D01*
X-10506Y287402D01*
X-10311Y287265D01*
X-10096Y287090D01*
X-9901Y286895D01*
X-9726Y286680D01*
X-9706Y286661D01*
X-9647Y286563D01*
X-9589Y286427D01*
X-9492Y286251D01*
X-9413Y286017D01*
X-9355Y285744D01*
X-9296Y285412D01*
X-9277Y285061D01*
Y285022D01*
Y284944D01*
X-9296Y284808D01*
Y284632D01*
X-9335Y284437D01*
X-9374Y284222D01*
X-9433Y284008D01*
X-9511Y283793D01*
Y283774D01*
X-9550Y283696D01*
X-9609Y283598D01*
X-9667Y283462D01*
X-9765Y283305D01*
X-9882Y283149D01*
X-10038Y282974D01*
X-10194Y282818D01*
X-10213Y282798D01*
X-10272Y282759D01*
X-10369Y282681D01*
X-10506Y282584D01*
X-10681Y282486D01*
X-10876Y282369D01*
X-11111Y282272D01*
X-11364Y282174D01*
X-11403D01*
X-11481Y282135D01*
X-11637Y282096D01*
X-11832Y282057D01*
X-12086Y282018D01*
X-12378Y281979D01*
X-12710Y281959D01*
X-13081Y281940D01*
X-18172D01*
X-18270Y281959D01*
X-18426Y281999D01*
X-18601Y282057D01*
X-18777Y282174D01*
X-18913Y282330D01*
X-19030Y282564D01*
X-19050Y282701D01*
X-19069Y282857D01*
Y292357D01*
Y292376D01*
Y292396D01*
X-19050Y292493D01*
X-19011Y292649D01*
X-18952Y292825D01*
X-18835Y292981D01*
X-18679Y293137D01*
X-18445Y293235D01*
X-18289Y293274D01*
X-12964D01*
X-12788Y293254D01*
D02*
G37*
G36*
X3812Y293430D02*
X4027Y293410D01*
X4261Y293371D01*
X4515Y293332D01*
X4807Y293254D01*
X5100Y293176D01*
X5412Y293079D01*
X5724Y292962D01*
X6036Y292825D01*
X6348Y292649D01*
X6641Y292435D01*
X6934Y292220D01*
X7187Y291947D01*
X7207Y291928D01*
X7246Y291869D01*
X7304Y291791D01*
X7402Y291674D01*
X7499Y291518D01*
X7616Y291323D01*
X7733Y291108D01*
X7850Y290855D01*
X7968Y290562D01*
X8104Y290231D01*
X8202Y289879D01*
X8299Y289489D01*
X8397Y289060D01*
X8455Y288612D01*
X8494Y288124D01*
X8514Y287597D01*
Y287558D01*
Y287480D01*
Y287324D01*
X8494Y287129D01*
X8475Y286895D01*
X8436Y286622D01*
X8397Y286310D01*
X8358Y285978D01*
X8202Y285276D01*
X8084Y284905D01*
X7968Y284554D01*
X7811Y284203D01*
X7636Y283852D01*
X7441Y283540D01*
X7207Y283247D01*
X7187Y283228D01*
X7148Y283188D01*
X7070Y283110D01*
X6973Y283013D01*
X6836Y282915D01*
X6661Y282779D01*
X6465Y282662D01*
X6251Y282525D01*
X5997Y282389D01*
X5705Y282252D01*
X5393Y282116D01*
X5061Y282018D01*
X4690Y281921D01*
X4281Y281842D01*
X3851Y281803D01*
X3403Y281784D01*
X3286D01*
X3169Y281803D01*
X2993D01*
X2779Y281823D01*
X2544Y281862D01*
X2271Y281901D01*
X1979Y281959D01*
X1686Y282038D01*
X1355Y282135D01*
X1042Y282252D01*
X730Y282408D01*
X418Y282564D01*
X126Y282759D01*
X-167Y282993D01*
X-421Y283247D01*
X-440Y283267D01*
X-479Y283325D01*
X-538Y283403D01*
X-616Y283520D01*
X-733Y283676D01*
X-830Y283871D01*
X-947Y284086D01*
X-1064Y284339D01*
X-1201Y284632D01*
X-1318Y284964D01*
X-1416Y285315D01*
X-1513Y285705D01*
X-1611Y286134D01*
X-1669Y286583D01*
X-1708Y287070D01*
X-1728Y287597D01*
Y287636D01*
Y287714D01*
Y287870D01*
X-1708Y288065D01*
X-1689Y288299D01*
X-1650Y288592D01*
X-1611Y288885D01*
X-1572Y289216D01*
X-1416Y289918D01*
X-1298Y290289D01*
X-1181Y290640D01*
X-1025Y290991D01*
X-850Y291343D01*
X-655Y291655D01*
X-421Y291947D01*
X-401Y291967D01*
X-362Y292006D01*
X-284Y292084D01*
X-167Y292181D01*
X-30Y292298D01*
X126Y292415D01*
X321Y292552D01*
X555Y292708D01*
X808Y292845D01*
X1101Y292981D01*
X1413Y293098D01*
X1745Y293215D01*
X2115Y293313D01*
X2525Y293391D01*
X2954Y293430D01*
X3403Y293449D01*
X3637D01*
X3812Y293430D01*
D02*
G37*
G36*
X-55749Y16454D02*
X-55763Y16425D01*
X-55793Y16352D01*
X-55851Y16220D01*
X-55939Y16074D01*
X-56041Y15913D01*
X-56173Y15752D01*
X-56319Y15606D01*
X-56495Y15474D01*
X-56524Y15460D01*
X-56583Y15430D01*
X-56685Y15386D01*
X-56831Y15328D01*
X-56992Y15269D01*
X-57197Y15225D01*
X-57417Y15196D01*
X-57665Y15181D01*
X-57782D01*
X-57914Y15196D01*
X-58075Y15211D01*
X-58265Y15255D01*
X-58470Y15299D01*
X-58675Y15386D01*
X-58880Y15489D01*
X-58894Y15503D01*
X-58967Y15547D01*
X-59055Y15620D01*
X-59158Y15737D01*
X-59275Y15869D01*
X-59392Y16030D01*
X-59509Y16235D01*
X-59597Y16454D01*
X-62230Y23916D01*
X-59860D01*
X-57680Y17639D01*
X-55485Y23916D01*
X-53101D01*
X-55749Y16454D01*
D02*
G37*
G36*
X-74959Y216836D02*
Y216762D01*
Y216688D01*
Y216614D01*
Y216540D01*
Y216466D01*
Y216392D01*
Y216318D01*
Y216244D01*
Y216170D01*
Y216096D01*
Y216023D01*
X-76215D01*
Y216096D01*
Y216170D01*
Y216244D01*
Y216318D01*
Y216392D01*
Y216466D01*
Y216540D01*
Y216614D01*
Y216688D01*
Y216762D01*
Y216836D01*
Y216910D01*
X-74959D01*
Y216836D01*
D02*
G37*
G36*
X-76954D02*
Y216762D01*
Y216688D01*
Y216614D01*
Y216540D01*
Y216466D01*
Y216392D01*
Y216318D01*
Y216244D01*
Y216170D01*
Y216096D01*
X-76880D01*
Y216023D01*
X-78211D01*
Y216096D01*
Y216170D01*
Y216244D01*
Y216318D01*
Y216392D01*
Y216466D01*
Y216540D01*
Y216614D01*
Y216688D01*
Y216762D01*
Y216836D01*
Y216910D01*
X-76954D01*
Y216836D01*
D02*
G37*
G36*
X-57958Y201831D02*
Y201757D01*
Y201683D01*
X-58032D01*
Y201609D01*
Y201535D01*
Y201461D01*
Y201387D01*
Y201313D01*
Y201240D01*
X-58106D01*
Y201166D01*
X-59215D01*
Y201240D01*
X-59141D01*
Y201313D01*
Y201387D01*
Y201461D01*
Y201535D01*
Y201609D01*
Y201683D01*
Y201757D01*
X-59067D01*
Y201831D01*
Y201905D01*
X-57958D01*
Y201831D01*
D02*
G37*
G36*
X-68306Y216836D02*
Y216762D01*
Y216688D01*
Y216614D01*
Y216540D01*
Y216466D01*
Y216392D01*
Y216318D01*
Y216244D01*
Y216170D01*
Y216096D01*
Y216023D01*
X-69563D01*
Y216096D01*
Y216170D01*
Y216244D01*
Y216318D01*
Y216392D01*
Y216466D01*
Y216540D01*
Y216614D01*
Y216688D01*
Y216762D01*
Y216836D01*
Y216910D01*
X-68306D01*
Y216836D01*
D02*
G37*
G36*
X-70302D02*
Y216762D01*
Y216688D01*
Y216614D01*
Y216540D01*
Y216466D01*
Y216392D01*
Y216318D01*
Y216244D01*
Y216170D01*
Y216096D01*
X-70228D01*
Y216023D01*
X-70598D01*
Y216096D01*
Y216170D01*
Y216244D01*
Y216318D01*
Y216392D01*
Y216466D01*
Y216540D01*
Y216614D01*
Y216688D01*
Y216762D01*
Y216836D01*
Y216910D01*
X-70302D01*
Y216836D01*
D02*
G37*
G36*
X-73037D02*
Y216762D01*
Y216688D01*
Y216614D01*
Y216540D01*
Y216466D01*
Y216392D01*
Y216318D01*
Y216244D01*
Y216170D01*
Y216096D01*
Y216023D01*
X-74293D01*
Y216096D01*
Y216170D01*
Y216244D01*
Y216318D01*
Y216392D01*
Y216466D01*
Y216540D01*
Y216614D01*
Y216688D01*
Y216762D01*
Y216836D01*
Y216910D01*
X-73037D01*
Y216836D01*
D02*
G37*
G36*
X-78063Y198948D02*
X-77989D01*
Y198874D01*
X-77915D01*
Y198800D01*
X-78137D01*
Y198874D01*
Y198948D01*
Y199022D01*
X-78063D01*
Y198948D01*
D02*
G37*
G36*
X-67567Y211292D02*
Y211218D01*
Y211144D01*
Y211070D01*
Y210996D01*
Y210923D01*
Y210849D01*
Y210775D01*
Y210701D01*
Y210627D01*
Y210553D01*
Y210479D01*
Y210405D01*
Y210331D01*
Y210257D01*
Y210183D01*
Y210109D01*
Y210035D01*
Y209962D01*
Y209888D01*
Y209814D01*
Y209740D01*
Y209666D01*
Y209592D01*
Y209518D01*
Y209444D01*
Y209370D01*
Y209296D01*
Y209222D01*
Y209149D01*
Y209075D01*
Y209001D01*
Y208927D01*
Y208853D01*
Y208779D01*
Y208705D01*
Y208631D01*
Y208557D01*
Y208483D01*
Y208409D01*
Y208335D01*
Y208262D01*
Y208188D01*
Y208114D01*
Y208040D01*
Y207966D01*
Y207892D01*
Y207818D01*
Y207744D01*
Y207670D01*
Y207596D01*
Y207522D01*
Y207448D01*
Y207374D01*
Y207301D01*
Y207227D01*
Y207153D01*
Y207079D01*
Y207005D01*
Y206931D01*
Y206857D01*
Y206783D01*
Y206709D01*
Y206635D01*
Y206562D01*
Y206488D01*
Y206414D01*
Y206340D01*
Y206266D01*
Y206192D01*
Y206118D01*
Y206044D01*
Y205970D01*
Y205896D01*
Y205822D01*
Y205748D01*
Y205674D01*
Y205601D01*
Y205527D01*
Y205453D01*
Y205379D01*
Y205305D01*
Y205231D01*
Y205157D01*
Y205083D01*
Y205009D01*
Y204935D01*
Y204861D01*
Y204788D01*
Y204714D01*
Y204640D01*
Y204566D01*
Y204492D01*
Y204418D01*
Y204344D01*
Y204270D01*
Y204196D01*
Y204122D01*
Y204048D01*
Y203974D01*
Y203901D01*
Y203827D01*
Y203753D01*
Y203679D01*
Y203605D01*
Y203531D01*
Y203457D01*
X-60175D01*
Y203383D01*
X-60028D01*
Y203309D01*
X-59880D01*
Y203235D01*
X-59806D01*
Y203161D01*
X-59732D01*
Y203087D01*
X-59658D01*
Y203013D01*
X-59584D01*
Y202940D01*
Y202866D01*
X-59510D01*
Y202792D01*
Y202718D01*
Y202644D01*
Y202570D01*
Y202496D01*
Y202422D01*
Y202348D01*
Y202274D01*
Y202201D01*
Y202127D01*
Y202053D01*
X-59584D01*
Y201979D01*
Y201905D01*
X-59658D01*
Y201831D01*
Y201757D01*
X-59732D01*
Y201683D01*
Y201609D01*
X-59806D01*
Y201535D01*
X-59880D01*
Y201461D01*
Y201387D01*
X-59806D01*
Y201313D01*
Y201240D01*
Y201166D01*
X-59732D01*
Y201092D01*
Y201018D01*
Y200944D01*
Y200870D01*
Y200796D01*
Y200722D01*
Y200648D01*
Y200574D01*
X-59806D01*
Y200500D01*
Y200427D01*
Y200353D01*
X-59880D01*
Y200279D01*
Y200205D01*
X-59954D01*
Y200131D01*
Y200057D01*
X-60028D01*
Y199983D01*
X-60102D01*
Y199909D01*
X-60175D01*
Y199835D01*
X-60249D01*
Y199761D01*
X-60397D01*
Y199687D01*
X-60619D01*
Y199613D01*
X-66015D01*
Y199540D01*
Y199466D01*
Y199392D01*
Y199318D01*
Y199244D01*
Y199170D01*
Y199096D01*
Y199022D01*
Y198948D01*
Y198874D01*
Y198800D01*
Y198726D01*
Y198652D01*
Y198579D01*
Y198505D01*
Y198431D01*
Y198357D01*
Y198283D01*
Y198209D01*
Y198135D01*
Y198061D01*
Y197987D01*
Y197913D01*
Y197840D01*
Y197766D01*
Y197692D01*
Y197618D01*
Y197544D01*
Y197470D01*
Y197396D01*
Y197322D01*
Y197248D01*
Y197174D01*
Y197100D01*
Y197026D01*
Y196952D01*
Y196879D01*
Y196805D01*
Y196731D01*
Y196657D01*
Y196583D01*
Y196509D01*
Y196435D01*
Y196361D01*
Y196287D01*
Y196213D01*
Y196139D01*
Y196066D01*
Y195992D01*
Y195918D01*
Y195844D01*
Y195770D01*
Y195696D01*
Y195622D01*
Y195548D01*
Y195474D01*
Y195400D01*
Y195326D01*
Y195252D01*
Y195179D01*
Y195105D01*
Y195031D01*
Y194957D01*
Y194883D01*
Y194809D01*
Y194735D01*
Y194661D01*
Y194587D01*
Y194513D01*
Y194439D01*
X-66754D01*
Y194513D01*
Y194587D01*
Y194661D01*
Y194735D01*
Y194809D01*
Y194883D01*
Y194957D01*
Y195031D01*
Y195105D01*
Y195179D01*
Y195252D01*
Y195326D01*
Y195400D01*
Y195474D01*
Y195548D01*
Y195622D01*
Y195696D01*
Y195770D01*
Y195844D01*
Y195918D01*
Y195992D01*
Y196066D01*
Y196139D01*
Y196213D01*
Y196287D01*
Y196361D01*
Y196435D01*
Y196509D01*
Y196583D01*
Y196657D01*
Y196731D01*
Y196805D01*
Y196879D01*
Y196952D01*
Y197026D01*
Y197100D01*
Y197174D01*
Y197248D01*
Y197322D01*
Y197396D01*
Y197470D01*
Y197544D01*
Y197618D01*
Y197692D01*
Y197766D01*
Y197840D01*
Y197913D01*
Y197987D01*
Y198061D01*
Y198135D01*
Y198209D01*
Y198283D01*
Y198357D01*
Y198431D01*
Y198505D01*
Y198579D01*
Y198652D01*
Y198726D01*
Y198800D01*
Y198874D01*
Y198948D01*
Y199022D01*
Y199096D01*
Y199170D01*
Y199244D01*
Y199318D01*
Y199392D01*
Y199466D01*
Y199540D01*
Y199613D01*
Y199687D01*
Y199761D01*
Y199835D01*
Y199909D01*
Y199983D01*
Y200057D01*
Y200131D01*
Y200205D01*
Y200279D01*
Y200353D01*
X-60619D01*
Y200427D01*
X-60545D01*
Y200500D01*
Y200574D01*
X-60471D01*
Y200648D01*
Y200722D01*
Y200796D01*
X-60397D01*
Y200870D01*
Y200944D01*
Y201018D01*
X-60471D01*
Y201092D01*
X-60545D01*
Y201166D01*
X-67567D01*
Y201092D01*
Y201018D01*
Y200944D01*
Y200870D01*
Y200796D01*
Y200722D01*
Y200648D01*
Y200574D01*
Y200500D01*
Y200427D01*
Y200353D01*
Y200279D01*
Y200205D01*
Y200131D01*
Y200057D01*
Y199983D01*
Y199909D01*
Y199835D01*
Y199761D01*
Y199687D01*
Y199613D01*
Y199540D01*
Y199466D01*
Y199392D01*
Y199318D01*
Y199244D01*
Y199170D01*
Y199096D01*
Y199022D01*
Y198948D01*
Y198874D01*
Y198800D01*
Y198726D01*
Y198652D01*
Y198579D01*
Y198505D01*
Y198431D01*
Y198357D01*
Y198283D01*
Y198209D01*
Y198135D01*
Y198061D01*
Y197987D01*
Y197913D01*
Y197840D01*
Y197766D01*
Y197692D01*
Y197618D01*
Y197544D01*
Y197470D01*
Y197396D01*
Y197322D01*
Y197248D01*
Y197174D01*
Y197100D01*
Y197026D01*
Y196952D01*
Y196879D01*
Y196805D01*
Y196731D01*
Y196657D01*
Y196583D01*
Y196509D01*
Y196435D01*
Y196361D01*
Y196287D01*
Y196213D01*
Y196139D01*
Y196066D01*
Y195992D01*
Y195918D01*
Y195844D01*
Y195770D01*
Y195696D01*
Y195622D01*
Y195548D01*
Y195474D01*
Y195400D01*
Y195326D01*
Y195252D01*
Y195179D01*
Y195105D01*
Y195031D01*
Y194957D01*
Y194883D01*
Y194809D01*
Y194735D01*
Y194661D01*
Y194587D01*
Y194513D01*
Y194439D01*
Y194365D01*
Y194291D01*
Y194218D01*
Y194144D01*
Y194070D01*
Y193996D01*
Y193922D01*
Y193848D01*
Y193774D01*
Y193700D01*
Y193626D01*
Y193552D01*
Y193479D01*
Y193405D01*
Y193331D01*
Y193257D01*
Y193183D01*
Y193109D01*
Y193035D01*
Y192961D01*
Y192887D01*
X-68232D01*
Y192961D01*
Y193035D01*
Y193109D01*
Y193183D01*
Y193257D01*
Y193331D01*
Y193405D01*
Y193479D01*
Y193552D01*
Y193626D01*
Y193700D01*
Y193774D01*
Y193848D01*
Y193922D01*
Y193996D01*
Y194070D01*
Y194144D01*
Y194218D01*
Y194291D01*
Y194365D01*
Y194439D01*
Y194513D01*
Y194587D01*
Y194661D01*
Y194735D01*
Y194809D01*
Y194883D01*
Y194957D01*
Y195031D01*
Y195105D01*
Y195179D01*
Y195252D01*
Y195326D01*
Y195400D01*
Y195474D01*
Y195548D01*
Y195622D01*
Y195696D01*
Y195770D01*
Y195844D01*
Y195918D01*
Y195992D01*
Y196066D01*
Y196139D01*
Y196213D01*
Y196287D01*
Y196361D01*
Y196435D01*
Y196509D01*
Y196583D01*
Y196657D01*
Y196731D01*
Y196805D01*
Y196879D01*
Y196952D01*
Y197026D01*
Y197100D01*
Y197174D01*
Y197248D01*
Y197322D01*
Y197396D01*
Y197470D01*
Y197544D01*
Y197618D01*
Y197692D01*
Y197766D01*
Y197840D01*
Y197913D01*
Y197987D01*
Y198061D01*
Y198135D01*
Y198209D01*
Y198283D01*
Y198357D01*
Y198431D01*
Y198505D01*
Y198579D01*
Y198652D01*
Y198726D01*
Y198800D01*
Y198874D01*
Y198948D01*
Y199022D01*
Y199096D01*
Y199170D01*
Y199244D01*
Y199318D01*
Y199392D01*
Y199466D01*
Y199540D01*
Y199613D01*
Y199687D01*
Y199761D01*
Y199835D01*
Y199909D01*
Y199983D01*
Y200057D01*
Y200131D01*
Y200205D01*
Y200279D01*
Y200353D01*
Y200427D01*
Y200500D01*
Y200574D01*
Y200648D01*
Y200722D01*
Y200796D01*
Y200870D01*
Y200944D01*
Y201018D01*
Y201092D01*
Y201166D01*
Y201240D01*
Y201313D01*
Y201387D01*
Y201461D01*
Y201535D01*
Y201609D01*
Y201683D01*
Y201757D01*
Y201831D01*
Y201905D01*
X-60397D01*
Y201979D01*
X-60323D01*
Y202053D01*
Y202127D01*
X-60249D01*
Y202201D01*
Y202274D01*
X-60175D01*
Y202348D01*
Y202422D01*
Y202496D01*
Y202570D01*
Y202644D01*
X-60249D01*
Y202718D01*
X-60397D01*
Y202792D01*
X-68232D01*
Y202866D01*
Y202940D01*
Y203013D01*
Y203087D01*
Y203161D01*
Y203235D01*
Y203309D01*
Y203383D01*
Y203457D01*
Y203531D01*
Y203605D01*
Y203679D01*
Y203753D01*
Y203827D01*
Y203901D01*
Y203974D01*
Y204048D01*
Y204122D01*
Y204196D01*
Y204270D01*
Y204344D01*
Y204418D01*
Y204492D01*
Y204566D01*
Y204640D01*
Y204714D01*
Y204788D01*
Y204861D01*
Y204935D01*
Y205009D01*
Y205083D01*
Y205157D01*
Y205231D01*
Y205305D01*
Y205379D01*
Y205453D01*
Y205527D01*
Y205601D01*
Y205674D01*
Y205748D01*
Y205822D01*
Y205896D01*
Y205970D01*
Y206044D01*
Y206118D01*
Y206192D01*
Y206266D01*
Y206340D01*
Y206414D01*
Y206488D01*
Y206562D01*
Y206635D01*
Y206709D01*
Y206783D01*
Y206857D01*
Y206931D01*
Y207005D01*
Y207079D01*
Y207153D01*
Y207227D01*
Y207301D01*
Y207374D01*
Y207448D01*
Y207522D01*
Y207596D01*
Y207670D01*
Y207744D01*
Y207818D01*
Y207892D01*
Y207966D01*
Y208040D01*
Y208114D01*
Y208188D01*
Y208262D01*
Y208335D01*
Y208409D01*
Y208483D01*
Y208557D01*
Y208631D01*
Y208705D01*
Y208779D01*
Y208853D01*
Y208927D01*
Y209001D01*
Y209075D01*
Y209149D01*
Y209222D01*
Y209296D01*
Y209370D01*
Y209444D01*
Y209518D01*
Y209592D01*
Y209666D01*
Y209740D01*
Y209814D01*
Y209888D01*
Y209962D01*
Y210035D01*
Y210109D01*
Y210183D01*
Y210257D01*
Y210331D01*
Y210405D01*
Y210479D01*
Y210553D01*
Y210627D01*
Y210701D01*
Y210775D01*
Y210849D01*
Y210923D01*
Y210996D01*
Y211070D01*
Y211144D01*
Y211218D01*
Y211292D01*
Y211366D01*
X-67567D01*
Y211292D01*
D02*
G37*
G36*
X-77176Y197913D02*
X-77102D01*
Y197840D01*
X-77028D01*
Y197766D01*
X-76954D01*
Y197692D01*
X-76880D01*
Y197618D01*
X-76807D01*
Y197544D01*
X-76733D01*
Y197470D01*
X-76659D01*
Y197396D01*
X-76585D01*
Y197322D01*
X-76511D01*
Y197248D01*
X-76437D01*
Y197174D01*
X-76363D01*
Y197100D01*
X-76289D01*
Y197026D01*
X-76215D01*
Y196952D01*
X-76141D01*
Y196879D01*
X-76067D01*
Y196805D01*
X-75993D01*
Y196731D01*
X-75919D01*
Y196657D01*
X-75845D01*
Y196583D01*
X-75772D01*
Y196509D01*
X-75698D01*
Y196435D01*
X-75624D01*
Y196361D01*
X-75550D01*
Y196287D01*
X-75402D01*
Y196213D01*
X-75328D01*
Y196139D01*
X-75254D01*
Y196066D01*
X-75180D01*
Y195992D01*
X-75106D01*
Y195918D01*
X-75033D01*
Y195844D01*
X-74885D01*
Y195770D01*
X-74811D01*
Y195696D01*
X-74737D01*
Y195622D01*
X-74663D01*
Y195548D01*
X-74515D01*
Y195474D01*
X-74441D01*
Y195400D01*
X-74367D01*
Y195326D01*
X-74219D01*
Y195252D01*
X-74145D01*
Y195179D01*
X-74072D01*
Y195105D01*
X-73924D01*
Y195031D01*
X-73850D01*
Y194957D01*
X-73702D01*
Y194883D01*
X-73628D01*
Y194809D01*
X-73554D01*
Y194735D01*
X-73406D01*
Y194661D01*
X-73332D01*
Y194587D01*
X-73185D01*
Y194513D01*
X-73111D01*
Y194439D01*
X-72963D01*
Y194365D01*
X-72815D01*
Y194291D01*
X-72741D01*
Y194218D01*
X-72593D01*
Y194144D01*
X-72519D01*
Y194070D01*
X-72372D01*
Y193996D01*
X-72224D01*
Y193922D01*
X-72076D01*
Y193848D01*
X-72002D01*
Y193774D01*
X-71854D01*
Y193700D01*
X-71706D01*
Y193626D01*
X-71558D01*
Y193552D01*
X-71411D01*
Y193479D01*
X-71337D01*
Y193405D01*
Y193331D01*
Y193257D01*
Y193183D01*
Y193109D01*
X-71411D01*
Y193183D01*
X-71632D01*
Y193257D01*
X-71706D01*
Y193331D01*
X-71928D01*
Y193405D01*
X-72002D01*
Y193479D01*
X-72224D01*
Y193552D01*
X-72298D01*
Y193626D01*
X-72519D01*
Y193700D01*
X-72593D01*
Y193774D01*
X-72667D01*
Y193848D01*
X-72741D01*
Y193922D01*
X-72963D01*
Y193996D01*
X-73037D01*
Y194070D01*
X-73111D01*
Y194144D01*
X-73185D01*
Y194218D01*
X-73259D01*
Y194144D01*
X-73332D01*
Y194218D01*
X-73406D01*
Y194291D01*
X-73480D01*
Y194365D01*
X-73554D01*
Y194439D01*
X-73702D01*
Y194513D01*
X-73850D01*
Y194587D01*
X-73924D01*
Y194661D01*
X-73998D01*
Y194735D01*
X-74072D01*
Y194809D01*
X-74293D01*
Y194883D01*
X-74367D01*
Y194957D01*
X-74441D01*
Y195031D01*
X-74515D01*
Y195105D01*
X-74589D01*
Y195179D01*
X-74663D01*
Y195252D01*
X-74885D01*
Y195326D01*
X-74959D01*
Y195400D01*
X-75033D01*
Y195474D01*
X-75106D01*
Y195548D01*
X-75180D01*
Y195622D01*
X-75254D01*
Y195696D01*
X-75402D01*
Y195770D01*
Y195844D01*
X-75624D01*
Y195918D01*
X-75698D01*
Y195992D01*
X-75772D01*
Y196066D01*
X-75845D01*
Y196139D01*
X-75919D01*
Y196213D01*
X-75993D01*
Y196287D01*
X-76067D01*
Y196361D01*
X-76141D01*
Y196435D01*
X-76215D01*
Y196509D01*
X-76289D01*
Y196583D01*
X-76363D01*
Y196657D01*
X-76437D01*
Y196731D01*
X-76511D01*
Y196805D01*
X-76585D01*
Y196879D01*
X-76659D01*
Y196952D01*
X-76733D01*
Y197026D01*
X-76807D01*
Y197100D01*
X-76880D01*
Y197174D01*
X-76954D01*
Y197248D01*
X-77028D01*
Y197322D01*
X-77102D01*
Y197396D01*
X-77176D01*
Y197470D01*
X-77250D01*
Y197544D01*
X-77324D01*
Y197618D01*
X-77398D01*
Y197692D01*
X-77472D01*
Y197766D01*
X-77546D01*
Y197840D01*
X-77620D01*
Y197913D01*
X-77693D01*
Y197987D01*
X-77176D01*
Y197913D01*
D02*
G37*
G36*
X-43840Y203383D02*
Y203309D01*
Y203235D01*
Y203161D01*
Y203087D01*
Y203013D01*
Y202940D01*
Y202866D01*
Y202792D01*
X-51675D01*
Y202718D01*
Y202644D01*
Y202570D01*
Y202496D01*
X-51749D01*
Y202422D01*
Y202348D01*
Y202274D01*
Y202201D01*
Y202127D01*
Y202053D01*
X-51823D01*
Y201979D01*
Y201905D01*
X-50862D01*
Y201831D01*
X-50640D01*
Y201757D01*
X-50493D01*
Y201683D01*
X-50419D01*
Y201609D01*
X-50345D01*
Y201535D01*
X-50271D01*
Y201461D01*
X-50197D01*
Y201387D01*
Y201313D01*
X-50123D01*
Y201240D01*
Y201166D01*
Y201092D01*
Y201018D01*
Y200944D01*
Y200870D01*
Y200796D01*
Y200722D01*
Y200648D01*
Y200574D01*
Y200500D01*
X-50197D01*
Y200427D01*
Y200353D01*
Y200279D01*
X-50271D01*
Y200205D01*
Y200131D01*
X-50345D01*
Y200057D01*
X-50419D01*
Y199983D01*
Y199909D01*
X-50493D01*
Y199835D01*
X-50640D01*
Y199761D01*
X-50788D01*
Y199687D01*
X-51010D01*
Y199613D01*
X-52858D01*
Y199687D01*
Y199761D01*
Y199835D01*
Y199909D01*
X-52784D01*
Y199983D01*
Y200057D01*
Y200131D01*
Y200205D01*
Y200279D01*
Y200353D01*
X-51010D01*
Y200427D01*
X-50936D01*
Y200500D01*
X-50862D01*
Y200574D01*
Y200648D01*
X-50788D01*
Y200722D01*
Y200796D01*
Y200870D01*
Y200944D01*
Y201018D01*
Y201092D01*
X-50862D01*
Y201166D01*
X-52636D01*
Y201240D01*
Y201313D01*
Y201387D01*
X-52562D01*
Y201461D01*
Y201535D01*
Y201609D01*
Y201683D01*
Y201757D01*
Y201831D01*
X-52488D01*
Y201905D01*
Y201979D01*
Y202053D01*
Y202127D01*
Y202201D01*
Y202274D01*
X-52414D01*
Y202348D01*
Y202422D01*
Y202496D01*
Y202570D01*
Y202644D01*
Y202718D01*
Y202792D01*
X-52340D01*
Y202866D01*
Y202940D01*
Y203013D01*
Y203087D01*
Y203161D01*
Y203235D01*
X-52267D01*
Y203309D01*
Y203383D01*
Y203457D01*
X-43840D01*
Y203383D01*
D02*
G37*
G36*
X-53893D02*
X-53671D01*
Y203309D01*
X-53523D01*
Y203235D01*
X-53375D01*
Y203161D01*
X-53301D01*
Y203087D01*
X-53227D01*
Y203013D01*
X-53154D01*
Y202940D01*
Y202866D01*
X-53080D01*
Y202792D01*
Y202718D01*
X-53006D01*
Y202644D01*
Y202570D01*
Y202496D01*
Y202422D01*
Y202348D01*
Y202274D01*
Y202201D01*
Y202127D01*
Y202053D01*
Y201979D01*
Y201905D01*
Y201831D01*
Y201757D01*
Y201683D01*
X-53080D01*
Y201609D01*
Y201535D01*
Y201461D01*
Y201387D01*
Y201313D01*
Y201240D01*
Y201166D01*
X-53154D01*
Y201092D01*
Y201018D01*
Y200944D01*
Y200870D01*
X-53227D01*
Y200796D01*
Y200722D01*
Y200648D01*
X-53301D01*
Y200574D01*
Y200500D01*
X-53375D01*
Y200427D01*
Y200353D01*
X-53449D01*
Y200279D01*
Y200205D01*
X-53523D01*
Y200131D01*
X-53597D01*
Y200057D01*
X-53671D01*
Y199983D01*
X-53745D01*
Y199909D01*
X-53819D01*
Y199835D01*
X-53967D01*
Y199761D01*
X-54114D01*
Y199687D01*
X-54484D01*
Y199613D01*
X-55001D01*
Y199687D01*
X-55297D01*
Y199761D01*
X-55445D01*
Y199835D01*
X-55593D01*
Y199909D01*
X-55667D01*
Y199983D01*
X-55741D01*
Y200057D01*
X-55814D01*
Y200131D01*
X-55888D01*
Y200205D01*
Y200279D01*
X-55962D01*
Y200353D01*
Y200427D01*
Y200500D01*
X-56036D01*
Y200574D01*
Y200648D01*
Y200722D01*
Y200796D01*
Y200870D01*
Y200944D01*
Y201018D01*
Y201092D01*
Y201166D01*
Y201240D01*
X-55962D01*
Y201313D01*
Y201387D01*
Y201461D01*
Y201535D01*
Y201609D01*
Y201683D01*
Y201757D01*
X-55888D01*
Y201831D01*
Y201905D01*
Y201979D01*
Y202053D01*
Y202127D01*
X-55814D01*
Y202201D01*
Y202274D01*
Y202348D01*
X-55741D01*
Y202422D01*
Y202496D01*
Y202570D01*
X-55667D01*
Y202644D01*
Y202718D01*
X-55593D01*
Y202792D01*
X-55519D01*
Y202866D01*
Y202940D01*
X-55445D01*
Y203013D01*
X-55371D01*
Y203087D01*
X-55297D01*
Y203161D01*
X-55223D01*
Y203235D01*
X-55075D01*
Y203309D01*
X-54928D01*
Y203383D01*
X-54706D01*
Y203457D01*
X-53893D01*
Y203383D01*
D02*
G37*
G36*
X-57071D02*
X-56923D01*
Y203309D01*
X-56775D01*
Y203235D01*
X-56701D01*
Y203161D01*
X-56628D01*
Y203087D01*
X-56554D01*
Y203013D01*
X-56480D01*
Y202940D01*
X-56406D01*
Y202866D01*
Y202792D01*
X-56332D01*
Y202718D01*
Y202644D01*
Y202570D01*
Y202496D01*
Y202422D01*
Y202348D01*
Y202274D01*
Y202201D01*
Y202127D01*
Y202053D01*
Y201979D01*
X-56406D01*
Y201905D01*
Y201831D01*
Y201757D01*
Y201683D01*
Y201609D01*
Y201535D01*
X-56480D01*
Y201461D01*
Y201387D01*
Y201313D01*
Y201240D01*
Y201166D01*
Y201092D01*
X-56554D01*
Y201018D01*
Y200944D01*
Y200870D01*
Y200796D01*
Y200722D01*
Y200648D01*
Y200574D01*
X-56628D01*
Y200500D01*
Y200427D01*
Y200353D01*
Y200279D01*
Y200205D01*
Y200131D01*
X-56701D01*
Y200057D01*
Y199983D01*
Y199909D01*
Y199835D01*
Y199761D01*
Y199687D01*
Y199613D01*
X-57441D01*
Y199687D01*
Y199761D01*
Y199835D01*
Y199909D01*
X-57367D01*
Y199983D01*
Y200057D01*
Y200131D01*
Y200205D01*
Y200279D01*
Y200353D01*
X-57293D01*
Y200427D01*
Y200500D01*
Y200574D01*
Y200648D01*
Y200722D01*
Y200796D01*
Y200870D01*
X-57219D01*
Y200944D01*
Y201018D01*
Y201092D01*
Y201166D01*
Y201240D01*
Y201313D01*
X-57145D01*
Y201387D01*
Y201461D01*
Y201535D01*
Y201609D01*
Y201683D01*
Y201757D01*
X-57071D01*
Y201831D01*
Y201905D01*
Y201979D01*
Y202053D01*
Y202127D01*
Y202201D01*
Y202274D01*
X-56997D01*
Y202348D01*
Y202422D01*
Y202496D01*
Y202570D01*
X-57071D01*
Y202644D01*
X-57145D01*
Y202718D01*
X-57293D01*
Y202792D01*
X-57367D01*
Y202866D01*
X-57293D01*
Y202940D01*
Y203013D01*
Y203087D01*
Y203161D01*
Y203235D01*
Y203309D01*
Y203383D01*
Y203457D01*
X-57071D01*
Y203383D01*
D02*
G37*
G36*
X-63206Y223192D02*
Y223118D01*
Y223045D01*
Y222971D01*
Y222897D01*
Y222823D01*
Y222749D01*
Y222675D01*
Y222601D01*
Y222527D01*
Y222453D01*
Y222379D01*
X-63576D01*
Y222453D01*
Y222527D01*
Y222601D01*
Y222675D01*
Y222749D01*
Y222823D01*
Y222897D01*
Y222971D01*
Y223045D01*
Y223118D01*
Y223192D01*
Y223266D01*
X-63206D01*
Y223192D01*
D02*
G37*
G36*
X-64906D02*
Y223118D01*
Y223045D01*
Y222971D01*
Y222897D01*
Y222823D01*
Y222749D01*
Y222675D01*
Y222601D01*
Y222527D01*
Y222453D01*
Y222379D01*
X-65276D01*
Y222453D01*
Y222527D01*
Y222601D01*
Y222675D01*
Y222749D01*
Y222823D01*
Y222897D01*
Y222971D01*
Y223045D01*
Y223118D01*
Y223192D01*
Y223266D01*
X-64906D01*
Y223192D01*
D02*
G37*
G36*
X-60249D02*
Y223118D01*
Y223045D01*
Y222971D01*
Y222897D01*
Y222823D01*
Y222749D01*
Y222675D01*
Y222601D01*
Y222527D01*
Y222453D01*
Y222379D01*
X-60619D01*
Y222453D01*
Y222527D01*
Y222601D01*
Y222675D01*
Y222749D01*
Y222823D01*
Y222897D01*
Y222971D01*
Y223045D01*
Y223118D01*
Y223192D01*
Y223266D01*
X-60249D01*
Y223192D01*
D02*
G37*
G36*
X-61284D02*
Y223118D01*
Y223045D01*
Y222971D01*
Y222897D01*
Y222823D01*
Y222749D01*
Y222675D01*
Y222601D01*
Y222527D01*
Y222453D01*
Y222379D01*
X-62541D01*
Y222453D01*
Y222527D01*
Y222601D01*
Y222675D01*
Y222749D01*
Y222823D01*
Y222897D01*
Y222971D01*
Y223045D01*
Y223118D01*
Y223192D01*
Y223266D01*
X-61284D01*
Y223192D01*
D02*
G37*
G36*
X-69563D02*
Y223118D01*
Y223045D01*
Y222971D01*
Y222897D01*
Y222823D01*
Y222749D01*
Y222675D01*
Y222601D01*
Y222527D01*
Y222453D01*
Y222379D01*
X-69932D01*
Y222453D01*
Y222527D01*
Y222601D01*
Y222675D01*
Y222749D01*
Y222823D01*
Y222897D01*
Y222971D01*
Y223045D01*
Y223118D01*
Y223192D01*
Y223266D01*
X-69563D01*
Y223192D01*
D02*
G37*
G36*
X-71263D02*
Y223118D01*
Y223045D01*
Y222971D01*
Y222897D01*
Y222823D01*
Y222749D01*
Y222675D01*
Y222601D01*
Y222527D01*
Y222453D01*
Y222379D01*
X-71632D01*
Y222453D01*
X-71558D01*
Y222527D01*
Y222601D01*
Y222675D01*
Y222749D01*
Y222823D01*
Y222897D01*
Y222971D01*
Y223045D01*
Y223118D01*
Y223192D01*
X-71632D01*
Y223266D01*
X-71263D01*
Y223192D01*
D02*
G37*
G36*
X-65941D02*
Y223118D01*
Y223045D01*
Y222971D01*
Y222897D01*
Y222823D01*
Y222749D01*
Y222675D01*
Y222601D01*
Y222527D01*
Y222453D01*
Y222379D01*
X-66310D01*
Y222453D01*
Y222527D01*
Y222601D01*
Y222675D01*
Y222749D01*
Y222823D01*
Y222897D01*
Y222971D01*
Y223045D01*
Y223118D01*
Y223192D01*
Y223266D01*
X-65941D01*
Y223192D01*
D02*
G37*
G36*
X-67641D02*
Y223118D01*
Y223045D01*
Y222971D01*
Y222897D01*
Y222823D01*
Y222749D01*
Y222675D01*
Y222601D01*
Y222527D01*
Y222453D01*
Y222379D01*
X-68898D01*
Y222453D01*
Y222527D01*
Y222601D01*
Y222675D01*
Y222749D01*
Y222823D01*
Y222897D01*
Y222971D01*
Y223045D01*
Y223118D01*
Y223192D01*
Y223266D01*
X-67641D01*
Y223192D01*
D02*
G37*
G36*
X-59215D02*
Y223118D01*
Y223045D01*
Y222971D01*
Y222897D01*
Y222823D01*
Y222749D01*
Y222675D01*
Y222601D01*
Y222527D01*
Y222453D01*
Y222379D01*
X-59584D01*
Y222453D01*
Y222527D01*
Y222601D01*
Y222675D01*
Y222749D01*
Y222823D01*
Y222897D01*
Y222971D01*
Y223045D01*
Y223118D01*
Y223192D01*
Y223266D01*
X-59215D01*
Y223192D01*
D02*
G37*
G36*
X-49901D02*
Y223118D01*
Y223045D01*
Y222971D01*
Y222897D01*
Y222823D01*
Y222749D01*
Y222675D01*
Y222601D01*
Y222527D01*
Y222453D01*
Y222379D01*
X-50271D01*
Y222453D01*
Y222527D01*
Y222601D01*
Y222675D01*
Y222749D01*
Y222823D01*
Y222897D01*
Y222971D01*
Y223045D01*
Y223118D01*
Y223192D01*
Y223266D01*
X-49901D01*
Y223192D01*
D02*
G37*
G36*
X-50936D02*
Y223118D01*
Y223045D01*
Y222971D01*
Y222897D01*
Y222823D01*
Y222749D01*
Y222675D01*
Y222601D01*
Y222527D01*
Y222453D01*
Y222379D01*
X-52193D01*
Y222453D01*
Y222527D01*
Y222601D01*
Y222675D01*
Y222749D01*
Y222823D01*
Y222897D01*
Y222971D01*
Y223045D01*
Y223118D01*
Y223192D01*
Y223266D01*
X-50936D01*
Y223192D01*
D02*
G37*
G36*
X-60323Y232654D02*
X-59954D01*
Y232580D01*
X-59880D01*
Y232654D01*
X-59806D01*
Y232580D01*
X-59732D01*
Y232654D01*
X-59658D01*
Y232580D01*
X-59141D01*
Y232506D01*
X-59067D01*
Y232580D01*
X-58993D01*
Y232506D01*
X-58919D01*
Y232432D01*
X-58845D01*
Y232506D01*
X-58771D01*
Y232432D01*
X-58697D01*
Y232506D01*
X-58623D01*
Y232432D01*
X-58106D01*
Y232358D01*
X-58032D01*
Y232432D01*
X-57958D01*
Y232358D01*
X-57884D01*
Y232284D01*
X-57367D01*
Y232210D01*
X-57293D01*
Y232136D01*
X-57219D01*
Y232210D01*
X-57145D01*
Y232136D01*
X-56775D01*
Y232062D01*
X-56554D01*
Y231988D01*
X-56184D01*
Y231914D01*
X-56110D01*
Y231840D01*
X-56036D01*
Y231914D01*
X-55962D01*
Y231840D01*
X-55741D01*
Y231767D01*
X-55519D01*
Y231693D01*
X-55297D01*
Y231619D01*
X-55075D01*
Y231545D01*
X-54854D01*
Y231471D01*
X-54632D01*
Y231397D01*
X-54410D01*
Y231323D01*
X-54336D01*
Y231249D01*
X-54114D01*
Y231175D01*
X-53893D01*
Y231101D01*
X-53671D01*
Y231028D01*
X-53597D01*
Y230954D01*
X-53375D01*
Y230880D01*
X-53301D01*
Y230806D01*
X-53227D01*
Y230880D01*
X-53154D01*
Y230806D01*
X-53080D01*
Y230732D01*
X-53006D01*
Y230658D01*
X-52784D01*
Y230584D01*
X-52710D01*
Y230658D01*
X-52636D01*
Y230584D01*
X-52562D01*
Y230510D01*
X-52488D01*
Y230436D01*
X-52414D01*
Y230362D01*
X-52193D01*
Y230288D01*
X-52119D01*
Y230362D01*
X-52045D01*
Y230288D01*
X-51971D01*
Y230214D01*
X-51897D01*
Y230140D01*
X-51823D01*
Y230067D01*
X-51601D01*
Y229993D01*
X-51527D01*
Y229919D01*
X-51306D01*
Y229845D01*
X-51232D01*
Y229771D01*
X-51158D01*
Y229697D01*
X-51084D01*
Y229623D01*
X-50862D01*
Y229549D01*
X-50788D01*
Y229475D01*
X-50567D01*
Y229401D01*
X-50493D01*
Y229327D01*
X-50419D01*
Y229254D01*
X-50345D01*
Y229180D01*
X-50123D01*
Y229106D01*
X-50049D01*
Y229032D01*
X-49975D01*
Y228958D01*
X-49901D01*
Y228884D01*
X-49679D01*
Y228810D01*
X-49606D01*
Y228736D01*
X-49532D01*
Y228662D01*
X-49458D01*
Y228588D01*
X-49384D01*
Y228514D01*
X-49310D01*
Y228440D01*
X-49162D01*
Y228367D01*
X-49088D01*
Y228293D01*
X-48940D01*
Y228219D01*
X-48866D01*
Y228145D01*
X-48793D01*
Y228071D01*
X-48719D01*
Y227997D01*
X-48645D01*
Y227923D01*
X-48571D01*
Y227849D01*
X-48349D01*
Y227775D01*
Y227701D01*
X-48201D01*
Y227627D01*
X-48127D01*
Y227553D01*
X-48053D01*
Y227479D01*
X-47979D01*
Y227406D01*
X-47906D01*
Y227332D01*
X-47832D01*
Y227258D01*
X-47758D01*
Y227184D01*
X-47684D01*
Y227110D01*
X-47610D01*
Y227036D01*
X-47536D01*
Y226962D01*
X-47462D01*
Y226888D01*
X-47388D01*
Y226814D01*
X-47314D01*
Y226740D01*
X-47240D01*
Y226667D01*
X-47166D01*
Y226593D01*
X-47092D01*
Y226519D01*
X-47018D01*
Y226445D01*
X-46945D01*
Y226371D01*
X-46871D01*
Y226297D01*
X-46797D01*
Y226223D01*
X-46723D01*
Y226149D01*
X-46649D01*
Y226075D01*
X-46575D01*
Y226001D01*
X-46501D01*
Y225927D01*
X-46427D01*
Y225853D01*
X-46353D01*
Y225779D01*
X-46279D01*
Y225706D01*
X-46206D01*
Y225632D01*
X-46132D01*
Y225558D01*
X-46058D01*
Y225484D01*
X-45984D01*
Y225410D01*
Y225336D01*
X-45836D01*
Y225262D01*
Y225188D01*
X-45762D01*
Y225114D01*
Y225040D01*
X-45688D01*
Y224966D01*
X-45614D01*
Y224893D01*
X-45540D01*
Y224819D01*
X-45466D01*
Y224745D01*
X-45392D01*
Y224671D01*
Y224597D01*
X-45318D01*
Y224523D01*
Y224449D01*
X-45171D01*
Y224375D01*
Y224301D01*
X-45097D01*
Y224227D01*
X-45023D01*
Y224153D01*
X-44949D01*
Y224079D01*
X-44875D01*
Y224005D01*
X-44801D01*
Y223932D01*
X-44875D01*
Y223858D01*
X-44801D01*
Y223784D01*
X-44727D01*
Y223710D01*
X-44653D01*
Y223636D01*
X-44579D01*
Y223562D01*
X-44505D01*
Y223488D01*
X-44579D01*
Y223414D01*
X-44432D01*
Y223340D01*
Y223266D01*
X-44358D01*
Y223192D01*
X-44284D01*
Y223118D01*
X-44210D01*
Y223045D01*
Y222971D01*
Y222897D01*
X-44136D01*
Y222823D01*
X-44062D01*
Y222749D01*
Y222675D01*
X-43988D01*
Y222601D01*
Y222527D01*
X-43914D01*
Y222453D01*
X-43840D01*
Y222379D01*
X-43766D01*
Y222305D01*
Y222232D01*
Y222158D01*
X-43692D01*
Y222084D01*
X-43618D01*
Y222010D01*
Y221936D01*
X-43545D01*
Y221862D01*
Y221788D01*
X-43471D01*
Y221714D01*
X-43397D01*
Y221640D01*
Y221566D01*
Y221492D01*
X-43323D01*
Y221418D01*
X-43249D01*
Y221345D01*
Y221271D01*
Y221197D01*
X-43175D01*
Y221123D01*
X-43101D01*
Y221049D01*
Y220975D01*
Y220901D01*
X-43027D01*
Y220827D01*
X-42953D01*
Y220753D01*
Y220679D01*
Y220605D01*
X-42879D01*
Y220531D01*
X-42805D01*
Y220458D01*
Y220384D01*
Y220310D01*
X-42731D01*
Y220236D01*
Y220162D01*
Y220088D01*
X-42657D01*
Y220014D01*
X-42584D01*
Y219940D01*
X-42657D01*
Y219866D01*
X-42584D01*
Y219792D01*
X-42510D01*
Y219718D01*
Y219645D01*
Y219571D01*
X-42436D01*
Y219497D01*
Y219423D01*
Y219349D01*
X-42362D01*
Y219275D01*
X-42288D01*
Y219201D01*
X-42362D01*
Y219127D01*
X-42288D01*
Y219053D01*
X-42214D01*
Y218979D01*
Y218905D01*
Y218831D01*
X-42140D01*
Y218757D01*
Y218684D01*
Y218610D01*
X-42066D01*
Y218536D01*
X-41992D01*
Y218462D01*
X-42066D01*
Y218388D01*
X-41992D01*
Y218314D01*
X-42066D01*
Y218240D01*
X-41992D01*
Y218166D01*
X-41918D01*
Y218092D01*
Y218018D01*
Y217944D01*
X-41845D01*
Y217871D01*
X-41918D01*
Y217797D01*
X-41845D01*
Y217723D01*
X-41771D01*
Y217649D01*
Y217575D01*
Y217501D01*
X-41697D01*
Y217427D01*
X-41771D01*
Y217353D01*
X-41697D01*
Y217279D01*
Y217205D01*
Y217131D01*
X-41623D01*
Y217057D01*
Y216984D01*
Y216910D01*
X-41549D01*
Y216836D01*
X-41623D01*
Y216762D01*
X-41549D01*
Y216688D01*
Y216614D01*
Y216540D01*
X-41475D01*
Y216466D01*
Y216392D01*
Y216318D01*
X-41401D01*
Y216244D01*
X-41475D01*
Y216170D01*
X-41401D01*
Y216096D01*
Y216023D01*
Y215949D01*
Y215875D01*
X-41327D01*
Y215801D01*
Y215727D01*
Y215653D01*
Y215579D01*
X-41253D01*
Y215505D01*
X-41327D01*
Y215431D01*
X-41253D01*
Y215357D01*
Y215284D01*
Y215210D01*
Y215136D01*
Y215062D01*
X-41179D01*
Y214988D01*
Y214914D01*
Y214840D01*
Y214766D01*
Y214692D01*
X-41105D01*
Y214618D01*
X-41179D01*
Y214544D01*
X-41105D01*
Y214470D01*
X-41179D01*
Y214396D01*
X-41105D01*
Y214323D01*
Y214249D01*
Y214175D01*
Y214101D01*
Y214027D01*
X-41031D01*
Y213953D01*
X-41105D01*
Y213879D01*
X-41031D01*
Y213805D01*
Y213731D01*
Y213657D01*
Y213583D01*
Y213510D01*
Y213436D01*
Y213362D01*
X-40957D01*
Y213288D01*
X-41031D01*
Y213214D01*
X-40957D01*
Y213140D01*
X-41031D01*
Y213066D01*
X-40957D01*
Y212992D01*
X-41031D01*
Y212918D01*
X-40957D01*
Y212844D01*
X-41031D01*
Y212770D01*
X-40957D01*
Y212696D01*
X-41031D01*
Y212623D01*
X-40957D01*
Y212549D01*
X-41031D01*
Y212475D01*
X-40957D01*
Y212401D01*
Y212327D01*
Y212253D01*
Y212179D01*
Y212105D01*
Y212031D01*
Y211957D01*
Y211883D01*
Y211809D01*
Y211735D01*
Y211662D01*
Y211588D01*
Y211514D01*
Y211440D01*
Y211366D01*
X-41031D01*
Y211292D01*
X-40957D01*
Y211218D01*
X-41031D01*
Y211144D01*
X-40957D01*
Y211070D01*
X-41031D01*
Y210996D01*
X-40957D01*
Y210923D01*
X-41031D01*
Y210849D01*
X-40957D01*
Y210775D01*
X-41031D01*
Y210701D01*
X-40957D01*
Y210627D01*
X-41031D01*
Y210553D01*
X-40957D01*
Y210479D01*
X-41031D01*
Y210405D01*
X-40957D01*
Y210331D01*
X-41031D01*
Y210257D01*
X-40957D01*
Y210183D01*
X-41031D01*
Y210109D01*
Y210035D01*
Y209962D01*
Y209888D01*
Y209814D01*
X-41105D01*
Y209740D01*
X-41031D01*
Y209666D01*
X-41105D01*
Y209592D01*
X-41031D01*
Y209518D01*
X-41105D01*
Y209444D01*
Y209370D01*
Y209296D01*
Y209222D01*
Y209149D01*
X-41179D01*
Y209075D01*
X-41105D01*
Y209001D01*
X-41179D01*
Y208927D01*
X-41105D01*
Y208853D01*
X-41179D01*
Y208779D01*
X-41105D01*
Y208705D01*
X-41179D01*
Y208631D01*
Y208557D01*
Y208483D01*
X-41253D01*
Y208409D01*
Y208335D01*
Y208262D01*
Y208188D01*
Y208114D01*
X-41327D01*
Y208040D01*
X-41253D01*
Y207966D01*
X-41327D01*
Y207892D01*
Y207818D01*
Y207744D01*
X-41401D01*
Y207670D01*
Y207596D01*
Y207522D01*
Y207448D01*
Y207374D01*
X-41475D01*
Y207301D01*
X-41401D01*
Y207227D01*
X-41475D01*
Y207153D01*
Y207079D01*
Y207005D01*
X-41549D01*
Y206931D01*
Y206857D01*
Y206783D01*
X-41623D01*
Y206709D01*
X-41549D01*
Y206635D01*
X-41623D01*
Y206562D01*
Y206488D01*
Y206414D01*
X-41697D01*
Y206340D01*
Y206266D01*
Y206192D01*
X-41771D01*
Y206118D01*
X-41697D01*
Y206044D01*
X-41771D01*
Y205970D01*
Y205896D01*
Y205822D01*
X-41845D01*
Y205748D01*
X-41918D01*
Y205674D01*
X-41845D01*
Y205601D01*
X-41918D01*
Y205527D01*
Y205453D01*
Y205379D01*
X-41992D01*
Y205305D01*
X-42066D01*
Y205231D01*
X-41992D01*
Y205157D01*
X-42066D01*
Y205083D01*
Y205009D01*
Y204935D01*
X-42140D01*
Y204861D01*
X-42214D01*
Y204788D01*
X-42140D01*
Y204714D01*
X-42214D01*
Y204640D01*
Y204566D01*
Y204492D01*
X-42288D01*
Y204566D01*
Y204640D01*
Y204714D01*
Y204788D01*
Y204861D01*
Y204935D01*
Y205009D01*
Y205083D01*
X-42436D01*
Y205157D01*
X-42362D01*
Y205231D01*
Y205305D01*
Y205379D01*
X-42288D01*
Y205453D01*
Y205527D01*
Y205601D01*
X-42214D01*
Y205674D01*
Y205748D01*
Y205822D01*
X-42140D01*
Y205896D01*
Y205970D01*
Y206044D01*
Y206118D01*
X-42066D01*
Y206192D01*
Y206266D01*
Y206340D01*
X-41992D01*
Y206414D01*
Y206488D01*
Y206562D01*
Y206635D01*
X-41918D01*
Y206709D01*
Y206783D01*
Y206857D01*
Y206931D01*
X-41845D01*
Y207005D01*
Y207079D01*
Y207153D01*
Y207227D01*
X-41771D01*
Y207301D01*
Y207374D01*
Y207448D01*
Y207522D01*
Y207596D01*
X-41697D01*
Y207670D01*
Y207744D01*
Y207818D01*
Y207892D01*
Y207966D01*
X-41623D01*
Y208040D01*
Y208114D01*
Y208188D01*
Y208262D01*
Y208335D01*
Y208409D01*
X-41549D01*
Y208483D01*
Y208557D01*
Y208631D01*
Y208705D01*
Y208779D01*
Y208853D01*
X-41475D01*
Y208927D01*
Y209001D01*
Y209075D01*
Y209149D01*
Y209222D01*
Y209296D01*
Y209370D01*
Y209444D01*
X-41401D01*
Y209518D01*
Y209592D01*
Y209666D01*
Y209740D01*
Y209814D01*
Y209888D01*
Y209962D01*
Y210035D01*
Y210109D01*
Y210183D01*
Y210257D01*
X-41327D01*
Y210331D01*
Y210405D01*
Y210479D01*
Y210553D01*
Y210627D01*
Y210701D01*
Y210775D01*
Y210849D01*
Y210923D01*
Y210996D01*
Y211070D01*
Y211144D01*
Y211218D01*
Y211292D01*
Y211366D01*
Y211440D01*
Y211514D01*
Y211588D01*
Y211662D01*
Y211735D01*
Y211809D01*
Y211883D01*
Y211957D01*
Y212031D01*
Y212105D01*
Y212179D01*
Y212253D01*
Y212327D01*
Y212401D01*
Y212475D01*
Y212549D01*
Y212623D01*
Y212696D01*
Y212770D01*
Y212844D01*
Y212918D01*
Y212992D01*
Y213066D01*
Y213140D01*
Y213214D01*
Y213288D01*
Y213362D01*
X-41401D01*
Y213436D01*
Y213510D01*
Y213583D01*
Y213657D01*
Y213731D01*
Y213805D01*
Y213879D01*
Y213953D01*
Y214027D01*
Y214101D01*
X-41475D01*
Y214175D01*
Y214249D01*
Y214323D01*
Y214396D01*
Y214470D01*
Y214544D01*
Y214618D01*
Y214692D01*
X-41549D01*
Y214766D01*
Y214840D01*
Y214914D01*
Y214988D01*
Y215062D01*
Y215136D01*
X-41623D01*
Y215210D01*
Y215284D01*
Y215357D01*
Y215431D01*
Y215505D01*
Y215579D01*
X-41697D01*
Y215653D01*
Y215727D01*
Y215801D01*
Y215875D01*
Y215949D01*
X-41771D01*
Y216023D01*
Y216096D01*
Y216170D01*
Y216244D01*
Y216318D01*
X-41845D01*
Y216392D01*
Y216466D01*
Y216540D01*
Y216614D01*
X-41918D01*
Y216688D01*
Y216762D01*
Y216836D01*
Y216910D01*
X-41992D01*
Y216984D01*
Y217057D01*
Y217131D01*
Y217205D01*
X-42066D01*
Y217279D01*
Y217353D01*
Y217427D01*
X-42140D01*
Y217501D01*
Y217575D01*
Y217649D01*
Y217723D01*
X-42214D01*
Y217797D01*
Y217871D01*
Y217944D01*
X-42288D01*
Y218018D01*
Y218092D01*
Y218166D01*
X-42362D01*
Y218240D01*
Y218314D01*
Y218388D01*
X-42436D01*
Y218462D01*
Y218536D01*
Y218610D01*
X-42510D01*
Y218684D01*
Y218757D01*
Y218831D01*
X-42584D01*
Y218905D01*
Y218979D01*
Y219053D01*
X-42657D01*
Y219127D01*
Y219201D01*
X-42731D01*
Y219275D01*
Y219349D01*
Y219423D01*
X-42805D01*
Y219497D01*
Y219571D01*
X-42879D01*
Y219645D01*
Y219718D01*
Y219792D01*
X-42953D01*
Y219866D01*
Y219940D01*
X-43027D01*
Y220014D01*
Y220088D01*
X-43101D01*
Y220162D01*
Y220236D01*
X-43175D01*
Y220310D01*
Y220384D01*
Y220458D01*
X-43249D01*
Y220531D01*
Y220605D01*
X-43323D01*
Y220679D01*
Y220753D01*
X-43397D01*
Y220827D01*
Y220901D01*
X-43471D01*
Y220975D01*
Y221049D01*
X-43545D01*
Y221123D01*
Y221197D01*
X-43618D01*
Y221271D01*
Y221345D01*
X-43692D01*
Y221418D01*
Y221492D01*
X-43766D01*
Y221566D01*
Y221640D01*
X-43840D01*
Y221714D01*
X-43914D01*
Y221788D01*
Y221862D01*
X-43988D01*
Y221936D01*
Y222010D01*
X-44062D01*
Y222084D01*
Y222158D01*
X-44136D01*
Y222232D01*
X-44210D01*
Y222305D01*
Y222379D01*
X-44284D01*
Y222453D01*
Y222527D01*
X-44358D01*
Y222601D01*
X-44432D01*
Y222675D01*
Y222749D01*
X-44505D01*
Y222823D01*
X-44579D01*
Y222897D01*
Y222971D01*
X-44653D01*
Y223045D01*
Y223118D01*
X-44727D01*
Y223192D01*
X-44801D01*
Y223266D01*
Y223340D01*
X-44875D01*
Y223414D01*
X-44949D01*
Y223488D01*
X-45023D01*
Y223562D01*
Y223636D01*
X-45097D01*
Y223710D01*
X-45171D01*
Y223784D01*
Y223858D01*
X-45245D01*
Y223932D01*
X-45318D01*
Y224005D01*
X-45392D01*
Y224079D01*
Y224153D01*
X-45466D01*
Y224227D01*
X-45540D01*
Y224301D01*
X-45614D01*
Y224375D01*
Y224449D01*
X-45688D01*
Y224523D01*
X-45762D01*
Y224597D01*
X-45836D01*
Y224671D01*
X-45910D01*
Y224745D01*
Y224819D01*
X-45984D01*
Y224893D01*
X-46058D01*
Y224966D01*
X-46132D01*
Y225040D01*
X-46206D01*
Y225114D01*
Y225188D01*
X-46279D01*
Y225262D01*
X-46353D01*
Y225336D01*
X-46427D01*
Y225410D01*
X-46501D01*
Y225484D01*
X-46575D01*
Y225558D01*
X-46649D01*
Y225632D01*
X-46723D01*
Y225706D01*
X-46797D01*
Y225779D01*
X-46871D01*
Y225853D01*
Y225927D01*
X-46945D01*
Y226001D01*
X-47018D01*
Y226075D01*
X-47092D01*
Y226149D01*
X-47166D01*
Y226223D01*
X-47240D01*
Y226297D01*
X-47314D01*
Y226371D01*
X-47388D01*
Y226445D01*
X-47462D01*
Y226519D01*
X-47536D01*
Y226593D01*
X-47610D01*
Y226667D01*
X-47684D01*
Y226740D01*
X-47758D01*
Y226814D01*
X-47906D01*
Y226888D01*
X-47979D01*
Y226962D01*
X-48053D01*
Y227036D01*
X-48127D01*
Y227110D01*
X-48201D01*
Y227184D01*
X-48275D01*
Y227258D01*
X-48349D01*
Y227332D01*
X-48423D01*
Y227406D01*
X-48571D01*
Y227479D01*
X-48645D01*
Y227553D01*
X-48719D01*
Y227627D01*
X-48793D01*
Y227701D01*
X-48866D01*
Y227775D01*
X-49014D01*
Y227849D01*
X-49088D01*
Y227923D01*
X-49162D01*
Y227997D01*
X-49236D01*
Y228071D01*
X-49384D01*
Y228145D01*
X-49458D01*
Y228219D01*
X-49532D01*
Y228293D01*
X-49679D01*
Y228367D01*
X-49753D01*
Y228440D01*
X-49827D01*
Y228514D01*
X-49975D01*
Y228588D01*
X-50049D01*
Y228662D01*
X-50197D01*
Y228736D01*
X-50271D01*
Y228810D01*
X-50345D01*
Y228884D01*
X-50493D01*
Y228958D01*
X-50567D01*
Y229032D01*
X-50714D01*
Y229106D01*
X-50862D01*
Y229180D01*
X-50936D01*
Y229254D01*
X-51084D01*
Y229327D01*
X-51158D01*
Y229401D01*
X-51306D01*
Y229475D01*
X-51453D01*
Y229549D01*
X-51527D01*
Y229623D01*
X-51675D01*
Y229697D01*
X-51823D01*
Y229771D01*
X-51971D01*
Y229845D01*
X-52119D01*
Y229919D01*
X-52193D01*
Y229993D01*
X-52340D01*
Y230067D01*
X-52488D01*
Y230140D01*
X-52636D01*
Y230214D01*
X-52784D01*
Y230288D01*
X-52932D01*
Y230362D01*
X-53080D01*
Y230436D01*
X-53227D01*
Y230510D01*
X-53449D01*
Y230584D01*
X-53597D01*
Y230658D01*
X-53745D01*
Y230732D01*
X-53893D01*
Y230806D01*
X-54114D01*
Y230880D01*
X-54262D01*
Y230954D01*
X-54484D01*
Y231028D01*
X-54706D01*
Y231101D01*
X-54854D01*
Y231175D01*
X-55075D01*
Y231249D01*
X-55297D01*
Y231323D01*
X-55519D01*
Y231397D01*
X-55741D01*
Y231471D01*
X-55962D01*
Y231545D01*
X-56258D01*
Y231619D01*
X-56480D01*
Y231693D01*
X-56775D01*
Y231767D01*
X-57071D01*
Y231840D01*
X-57367D01*
Y231914D01*
X-57736D01*
Y231988D01*
X-58106D01*
Y232062D01*
X-58549D01*
Y232136D01*
X-58993D01*
Y232210D01*
X-59584D01*
Y232284D01*
X-60323D01*
Y232358D01*
X-63502D01*
Y232284D01*
X-64241D01*
Y232210D01*
X-64832D01*
Y232136D01*
X-65276D01*
Y232062D01*
X-65719D01*
Y231988D01*
X-66089D01*
Y231914D01*
X-66458D01*
Y231840D01*
X-66754D01*
Y231767D01*
X-67050D01*
Y231693D01*
X-67345D01*
Y231619D01*
X-67567D01*
Y231545D01*
X-67863D01*
Y231471D01*
X-68084D01*
Y231397D01*
X-68306D01*
Y231323D01*
X-68528D01*
Y231249D01*
X-68750D01*
Y231175D01*
X-68971D01*
Y231101D01*
X-69119D01*
Y231028D01*
X-69341D01*
Y230954D01*
X-69563D01*
Y230880D01*
X-69711D01*
Y230806D01*
X-69858D01*
Y230732D01*
X-70080D01*
Y230658D01*
X-70228D01*
Y230584D01*
X-70376D01*
Y230510D01*
X-70598D01*
Y230436D01*
X-70745D01*
Y230362D01*
X-70893D01*
Y230288D01*
X-71041D01*
Y230214D01*
X-71189D01*
Y230140D01*
X-71337D01*
Y230067D01*
X-71484D01*
Y229993D01*
X-71632D01*
Y229919D01*
X-71706D01*
Y229845D01*
X-71854D01*
Y229771D01*
X-72002D01*
Y229697D01*
X-72150D01*
Y229623D01*
X-72298D01*
Y229549D01*
X-72372D01*
Y229475D01*
X-72519D01*
Y229401D01*
X-72667D01*
Y229327D01*
X-72741D01*
Y229254D01*
X-72889D01*
Y229180D01*
X-72963D01*
Y229106D01*
X-73111D01*
Y229032D01*
X-73259D01*
Y228958D01*
X-73332D01*
Y228884D01*
X-73480D01*
Y228810D01*
X-73554D01*
Y228736D01*
X-73628D01*
Y228662D01*
X-73776D01*
Y228588D01*
X-73850D01*
Y228514D01*
X-73998D01*
Y228440D01*
X-74072D01*
Y228367D01*
X-74145D01*
Y228293D01*
X-74293D01*
Y228219D01*
X-74367D01*
Y228145D01*
X-74441D01*
Y228071D01*
X-74589D01*
Y227997D01*
X-74663D01*
Y227923D01*
X-74737D01*
Y227849D01*
X-74811D01*
Y227775D01*
X-74959D01*
Y227701D01*
X-75033D01*
Y227627D01*
X-75106D01*
Y227553D01*
X-75180D01*
Y227479D01*
X-75254D01*
Y227406D01*
X-75402D01*
Y227332D01*
X-75476D01*
Y227258D01*
X-75550D01*
Y227184D01*
X-75624D01*
Y227110D01*
X-75698D01*
Y227036D01*
X-75772D01*
Y226962D01*
X-75845D01*
Y226888D01*
X-75919D01*
Y226814D01*
X-76067D01*
Y226740D01*
X-76141D01*
Y226667D01*
X-76215D01*
Y226593D01*
X-76289D01*
Y226519D01*
X-76363D01*
Y226445D01*
X-76437D01*
Y226371D01*
X-76511D01*
Y226297D01*
X-76585D01*
Y226223D01*
X-76659D01*
Y226149D01*
X-76733D01*
Y226075D01*
X-76807D01*
Y226001D01*
X-76880D01*
Y225927D01*
X-76954D01*
Y225853D01*
Y225779D01*
X-77028D01*
Y225706D01*
X-77102D01*
Y225632D01*
X-77176D01*
Y225558D01*
X-77250D01*
Y225484D01*
X-77324D01*
Y225410D01*
X-77398D01*
Y225336D01*
X-77472D01*
Y225262D01*
X-77546D01*
Y225188D01*
X-77620D01*
Y225114D01*
Y225040D01*
X-77693D01*
Y224966D01*
X-77767D01*
Y224893D01*
X-77841D01*
Y224819D01*
X-77915D01*
Y224745D01*
Y224671D01*
X-77989D01*
Y224597D01*
X-78063D01*
Y224523D01*
X-78137D01*
Y224449D01*
X-78211D01*
Y224375D01*
Y224301D01*
X-78285D01*
Y224227D01*
X-78359D01*
Y224153D01*
X-78433D01*
Y224079D01*
Y224005D01*
X-78506D01*
Y223932D01*
X-78580D01*
Y223858D01*
X-78654D01*
Y223784D01*
Y223710D01*
X-78728D01*
Y223636D01*
X-78802D01*
Y223562D01*
Y223488D01*
X-78876D01*
Y223414D01*
X-78950D01*
Y223340D01*
X-79024D01*
Y223266D01*
Y223192D01*
X-79098D01*
Y223118D01*
X-79172D01*
Y223045D01*
Y222971D01*
X-79246D01*
Y222897D01*
Y222823D01*
X-79320D01*
Y222749D01*
X-79394D01*
Y222675D01*
Y222601D01*
X-79467D01*
Y222527D01*
X-79541D01*
Y222453D01*
Y222379D01*
X-79615D01*
Y222305D01*
Y222232D01*
X-79689D01*
Y222158D01*
X-79763D01*
Y222084D01*
Y222010D01*
X-79837D01*
Y221936D01*
Y221862D01*
X-79911D01*
Y221788D01*
Y221714D01*
X-79985D01*
Y221640D01*
X-80059D01*
Y221566D01*
Y221492D01*
X-80133D01*
Y221418D01*
Y221345D01*
X-80206D01*
Y221271D01*
Y221197D01*
X-80281D01*
Y221123D01*
Y221049D01*
X-80354D01*
Y220975D01*
Y220901D01*
X-80428D01*
Y220827D01*
Y220753D01*
X-80502D01*
Y220679D01*
Y220605D01*
X-80576D01*
Y220531D01*
Y220458D01*
X-80650D01*
Y220384D01*
Y220310D01*
Y220236D01*
X-80724D01*
Y220162D01*
Y220088D01*
X-80798D01*
Y220014D01*
Y219940D01*
X-80872D01*
Y219866D01*
Y219792D01*
X-80946D01*
Y219718D01*
Y219645D01*
Y219571D01*
X-81020D01*
Y219497D01*
Y219423D01*
X-81094D01*
Y219349D01*
Y219275D01*
Y219201D01*
X-81167D01*
Y219127D01*
Y219053D01*
X-81241D01*
Y218979D01*
Y218905D01*
Y218831D01*
X-81315D01*
Y218757D01*
Y218684D01*
Y218610D01*
X-81389D01*
Y218536D01*
Y218462D01*
Y218388D01*
X-81463D01*
Y218314D01*
Y218240D01*
Y218166D01*
X-81537D01*
Y218092D01*
Y218018D01*
Y217944D01*
X-81611D01*
Y217871D01*
Y217797D01*
Y217723D01*
X-81685D01*
Y217649D01*
Y217575D01*
Y217501D01*
Y217427D01*
X-81759D01*
Y217353D01*
Y217279D01*
Y217205D01*
X-81833D01*
Y217131D01*
Y217057D01*
Y216984D01*
Y216910D01*
X-81907D01*
Y216836D01*
Y216762D01*
Y216688D01*
Y216614D01*
X-81980D01*
Y216540D01*
Y216466D01*
Y216392D01*
Y216318D01*
X-82054D01*
Y216244D01*
Y216170D01*
Y216096D01*
Y216023D01*
Y215949D01*
X-82128D01*
Y215875D01*
Y215801D01*
Y215727D01*
Y215653D01*
Y215579D01*
X-82202D01*
Y215505D01*
Y215431D01*
Y215357D01*
Y215284D01*
Y215210D01*
Y215136D01*
X-82276D01*
Y215062D01*
Y214988D01*
Y214914D01*
Y214840D01*
Y214766D01*
Y214692D01*
X-82350D01*
Y214618D01*
Y214544D01*
Y214470D01*
Y214396D01*
Y214323D01*
Y214249D01*
Y214175D01*
Y214101D01*
X-82424D01*
Y214027D01*
Y213953D01*
Y213879D01*
Y213805D01*
Y213731D01*
Y213657D01*
Y213583D01*
Y213510D01*
Y213436D01*
Y213362D01*
X-82498D01*
Y213288D01*
Y213214D01*
Y213140D01*
Y213066D01*
Y212992D01*
Y212918D01*
Y212844D01*
Y212770D01*
Y212696D01*
Y212623D01*
Y212549D01*
Y212475D01*
Y212401D01*
Y212327D01*
Y212253D01*
Y212179D01*
Y212105D01*
Y212031D01*
Y211957D01*
Y211883D01*
Y211809D01*
Y211735D01*
Y211662D01*
Y211588D01*
Y211514D01*
Y211440D01*
Y211366D01*
Y211292D01*
Y211218D01*
Y211144D01*
Y211070D01*
Y210996D01*
Y210923D01*
Y210849D01*
Y210775D01*
Y210701D01*
Y210627D01*
Y210553D01*
Y210479D01*
Y210405D01*
Y210331D01*
Y210257D01*
X-82424D01*
Y210183D01*
Y210109D01*
Y210035D01*
Y209962D01*
Y209888D01*
Y209814D01*
Y209740D01*
Y209666D01*
Y209592D01*
Y209518D01*
Y209444D01*
X-82350D01*
Y209370D01*
Y209296D01*
Y209222D01*
Y209149D01*
Y209075D01*
Y209001D01*
Y208927D01*
Y208853D01*
X-82276D01*
Y208779D01*
Y208705D01*
Y208631D01*
Y208557D01*
Y208483D01*
Y208409D01*
X-82202D01*
Y208335D01*
Y208262D01*
Y208188D01*
Y208114D01*
Y208040D01*
Y207966D01*
X-82128D01*
Y207892D01*
Y207818D01*
Y207744D01*
Y207670D01*
Y207596D01*
X-82054D01*
Y207522D01*
Y207448D01*
Y207374D01*
Y207301D01*
Y207227D01*
X-81980D01*
Y207153D01*
Y207079D01*
Y207005D01*
Y206931D01*
X-81907D01*
Y206857D01*
Y206783D01*
Y206709D01*
Y206635D01*
X-81833D01*
Y206562D01*
Y206488D01*
Y206414D01*
Y206340D01*
X-81759D01*
Y206266D01*
Y206192D01*
Y206118D01*
X-81685D01*
Y206044D01*
Y205970D01*
Y205896D01*
Y205822D01*
X-81611D01*
Y205748D01*
Y205674D01*
Y205601D01*
X-81537D01*
Y205527D01*
Y205453D01*
Y205379D01*
X-81463D01*
Y205305D01*
Y205231D01*
Y205157D01*
X-81389D01*
Y205083D01*
Y205009D01*
Y204935D01*
X-81315D01*
Y204861D01*
Y204788D01*
Y204714D01*
X-81241D01*
Y204640D01*
Y204566D01*
X-81167D01*
Y204492D01*
Y204418D01*
Y204344D01*
X-81094D01*
Y204270D01*
Y204196D01*
X-81020D01*
Y204122D01*
Y204048D01*
Y203974D01*
X-80946D01*
Y203901D01*
Y203827D01*
X-80872D01*
Y203753D01*
Y203679D01*
Y203605D01*
X-80798D01*
Y203531D01*
Y203457D01*
X-80724D01*
Y203383D01*
Y203309D01*
X-80650D01*
Y203235D01*
Y203161D01*
X-80576D01*
Y203087D01*
Y203013D01*
X-80502D01*
Y202940D01*
Y202866D01*
Y202792D01*
X-80428D01*
Y202718D01*
Y202644D01*
X-80354D01*
Y202570D01*
Y202496D01*
X-80281D01*
Y202422D01*
Y202348D01*
X-80206D01*
Y202274D01*
Y202201D01*
X-80133D01*
Y202127D01*
X-80059D01*
Y202053D01*
Y201979D01*
X-79985D01*
Y201905D01*
Y201831D01*
X-79911D01*
Y201757D01*
Y201683D01*
X-79837D01*
Y201609D01*
Y201535D01*
X-79763D01*
Y201461D01*
X-79689D01*
Y201387D01*
Y201313D01*
Y201240D01*
Y201166D01*
Y201092D01*
Y201018D01*
Y200944D01*
Y200870D01*
Y200796D01*
X-79246D01*
Y200722D01*
X-79320D01*
Y200648D01*
X-79246D01*
Y200574D01*
X-79172D01*
Y200500D01*
X-79098D01*
Y200427D01*
Y200353D01*
X-79024D01*
Y200279D01*
X-78950D01*
Y200205D01*
Y200131D01*
X-78876D01*
Y200057D01*
X-78802D01*
Y199983D01*
Y199909D01*
X-78728D01*
Y199835D01*
X-78654D01*
Y199761D01*
X-78580D01*
Y199687D01*
Y199613D01*
X-78506D01*
Y199540D01*
X-78433D01*
Y199466D01*
Y199392D01*
X-78359D01*
Y199318D01*
X-78285D01*
Y199244D01*
X-78211D01*
Y199170D01*
X-78802D01*
Y199244D01*
X-78728D01*
Y199318D01*
X-78802D01*
Y199392D01*
X-78876D01*
Y199466D01*
Y199540D01*
X-78950D01*
Y199613D01*
Y199687D01*
X-79024D01*
Y199761D01*
X-79098D01*
Y199835D01*
X-79172D01*
Y199909D01*
Y199983D01*
X-79246D01*
Y200057D01*
Y200131D01*
X-79320D01*
Y200205D01*
X-79394D01*
Y200279D01*
X-79467D01*
Y200353D01*
X-79541D01*
Y200427D01*
X-79615D01*
Y200500D01*
X-79541D01*
Y200574D01*
X-79615D01*
Y200648D01*
X-79689D01*
Y200722D01*
X-79763D01*
Y200796D01*
Y200870D01*
X-79837D01*
Y200944D01*
Y201018D01*
X-79911D01*
Y201092D01*
X-79985D01*
Y201166D01*
X-80059D01*
Y201240D01*
X-79985D01*
Y201313D01*
X-80059D01*
Y201387D01*
X-80133D01*
Y201461D01*
X-80206D01*
Y201535D01*
Y201609D01*
Y201683D01*
X-80281D01*
Y201757D01*
X-80354D01*
Y201831D01*
Y201905D01*
X-80428D01*
Y201979D01*
Y202053D01*
X-80502D01*
Y202127D01*
Y202201D01*
X-80576D01*
Y202274D01*
Y202348D01*
X-80650D01*
Y202422D01*
X-80724D01*
Y202496D01*
Y202570D01*
Y202644D01*
X-80798D01*
Y202718D01*
Y202792D01*
X-80872D01*
Y202866D01*
Y202940D01*
X-80946D01*
Y203013D01*
Y203087D01*
X-81020D01*
Y203161D01*
Y203235D01*
X-81094D01*
Y203309D01*
Y203383D01*
Y203457D01*
X-81167D01*
Y203531D01*
X-81241D01*
Y203605D01*
X-81167D01*
Y203679D01*
X-81241D01*
Y203753D01*
X-81315D01*
Y203827D01*
Y203901D01*
Y203974D01*
X-81389D01*
Y204048D01*
Y204122D01*
Y204196D01*
X-81463D01*
Y204270D01*
X-81537D01*
Y204344D01*
X-81463D01*
Y204418D01*
X-81537D01*
Y204492D01*
X-81611D01*
Y204566D01*
Y204640D01*
Y204714D01*
X-81685D01*
Y204788D01*
Y204861D01*
Y204935D01*
X-81759D01*
Y205009D01*
Y205083D01*
Y205157D01*
X-81833D01*
Y205231D01*
Y205305D01*
Y205379D01*
X-81907D01*
Y205453D01*
Y205527D01*
Y205601D01*
X-81980D01*
Y205674D01*
Y205748D01*
Y205822D01*
X-82054D01*
Y205896D01*
Y205970D01*
Y206044D01*
X-82128D01*
Y206118D01*
X-82054D01*
Y206192D01*
X-82128D01*
Y206266D01*
Y206340D01*
Y206414D01*
X-82202D01*
Y206488D01*
Y206562D01*
Y206635D01*
X-82276D01*
Y206709D01*
X-82202D01*
Y206783D01*
X-82276D01*
Y206857D01*
Y206931D01*
Y207005D01*
X-82350D01*
Y207079D01*
Y207153D01*
Y207227D01*
X-82424D01*
Y207301D01*
X-82350D01*
Y207374D01*
X-82424D01*
Y207448D01*
Y207522D01*
Y207596D01*
Y207670D01*
Y207744D01*
X-82498D01*
Y207818D01*
X-82572D01*
Y207892D01*
X-82498D01*
Y207966D01*
X-82572D01*
Y208040D01*
X-82498D01*
Y208114D01*
X-82572D01*
Y208188D01*
X-82498D01*
Y208262D01*
X-82572D01*
Y208335D01*
Y208409D01*
Y208483D01*
X-82646D01*
Y208557D01*
Y208631D01*
Y208705D01*
Y208779D01*
Y208853D01*
X-82720D01*
Y208927D01*
X-82646D01*
Y209001D01*
X-82720D01*
Y209075D01*
X-82646D01*
Y209149D01*
X-82720D01*
Y209222D01*
X-82646D01*
Y209296D01*
X-82720D01*
Y209370D01*
Y209444D01*
Y209518D01*
X-82794D01*
Y209592D01*
X-82720D01*
Y209666D01*
X-82794D01*
Y209740D01*
X-82720D01*
Y209814D01*
X-82794D01*
Y209888D01*
Y209962D01*
Y210035D01*
Y210109D01*
Y210183D01*
X-82867D01*
Y210257D01*
X-82794D01*
Y210331D01*
X-82867D01*
Y210405D01*
X-82794D01*
Y210479D01*
X-82867D01*
Y210553D01*
X-82794D01*
Y210627D01*
X-82867D01*
Y210701D01*
X-82794D01*
Y210775D01*
X-82867D01*
Y210849D01*
X-82794D01*
Y210923D01*
X-82867D01*
Y210996D01*
X-82794D01*
Y211070D01*
X-82867D01*
Y211144D01*
X-82794D01*
Y211218D01*
X-82867D01*
Y211292D01*
Y211366D01*
Y211440D01*
X-82794D01*
Y211514D01*
X-82867D01*
Y211588D01*
Y211662D01*
Y211735D01*
Y211809D01*
Y211883D01*
Y211957D01*
Y212031D01*
X-82794D01*
Y212105D01*
X-82867D01*
Y212179D01*
Y212253D01*
Y212327D01*
X-82794D01*
Y212401D01*
X-82867D01*
Y212475D01*
Y212549D01*
Y212623D01*
X-82794D01*
Y212696D01*
X-82867D01*
Y212770D01*
X-82794D01*
Y212844D01*
X-82867D01*
Y212918D01*
X-82794D01*
Y212992D01*
X-82867D01*
Y213066D01*
X-82794D01*
Y213140D01*
X-82867D01*
Y213214D01*
X-82794D01*
Y213288D01*
Y213362D01*
Y213436D01*
X-82867D01*
Y213510D01*
X-82794D01*
Y213583D01*
Y213657D01*
Y213731D01*
Y213805D01*
Y213879D01*
X-82720D01*
Y213953D01*
X-82794D01*
Y214027D01*
X-82720D01*
Y214101D01*
Y214175D01*
Y214249D01*
Y214323D01*
Y214396D01*
X-82646D01*
Y214470D01*
X-82720D01*
Y214544D01*
X-82646D01*
Y214618D01*
X-82720D01*
Y214692D01*
X-82646D01*
Y214766D01*
X-82720D01*
Y214840D01*
X-82646D01*
Y214914D01*
Y214988D01*
Y215062D01*
X-82572D01*
Y215136D01*
Y215210D01*
Y215284D01*
X-82498D01*
Y215357D01*
X-82572D01*
Y215431D01*
X-82498D01*
Y215505D01*
X-82572D01*
Y215579D01*
X-82498D01*
Y215653D01*
Y215727D01*
Y215801D01*
Y215875D01*
X-82424D01*
Y215949D01*
Y216023D01*
Y216096D01*
Y216170D01*
X-82350D01*
Y216244D01*
X-82424D01*
Y216318D01*
X-82350D01*
Y216392D01*
Y216466D01*
Y216540D01*
X-82276D01*
Y216614D01*
Y216688D01*
Y216762D01*
X-82202D01*
Y216836D01*
X-82276D01*
Y216910D01*
X-82202D01*
Y216984D01*
Y217057D01*
Y217131D01*
X-82128D01*
Y217205D01*
Y217279D01*
Y217353D01*
X-82054D01*
Y217427D01*
X-82128D01*
Y217501D01*
X-82054D01*
Y217575D01*
Y217649D01*
Y217723D01*
X-81980D01*
Y217797D01*
Y217871D01*
Y217944D01*
X-81907D01*
Y218018D01*
Y218092D01*
Y218166D01*
X-81833D01*
Y218240D01*
Y218314D01*
Y218388D01*
X-81759D01*
Y218462D01*
Y218536D01*
Y218610D01*
X-81685D01*
Y218684D01*
Y218757D01*
Y218831D01*
X-81611D01*
Y218905D01*
Y218979D01*
Y219053D01*
X-81537D01*
Y219127D01*
X-81463D01*
Y219201D01*
X-81537D01*
Y219275D01*
X-81463D01*
Y219349D01*
X-81389D01*
Y219423D01*
Y219497D01*
Y219571D01*
X-81315D01*
Y219645D01*
X-81389D01*
Y219718D01*
X-81315D01*
Y219792D01*
X-81241D01*
Y219866D01*
X-81167D01*
Y219940D01*
X-81241D01*
Y220014D01*
X-81167D01*
Y220088D01*
X-81094D01*
Y220162D01*
Y220236D01*
Y220310D01*
X-81020D01*
Y220384D01*
Y220458D01*
X-80946D01*
Y220531D01*
Y220605D01*
X-80872D01*
Y220679D01*
Y220753D01*
Y220827D01*
X-80798D01*
Y220901D01*
X-80724D01*
Y220975D01*
Y221049D01*
Y221123D01*
X-80650D01*
Y221197D01*
X-80576D01*
Y221271D01*
Y221345D01*
Y221418D01*
X-80502D01*
Y221492D01*
X-80428D01*
Y221566D01*
Y221640D01*
Y221714D01*
X-80354D01*
Y221788D01*
X-80281D01*
Y221862D01*
Y221936D01*
X-80206D01*
Y222010D01*
Y222084D01*
X-80133D01*
Y222158D01*
X-80059D01*
Y222232D01*
X-79985D01*
Y222305D01*
X-80059D01*
Y222379D01*
X-79985D01*
Y222453D01*
X-79911D01*
Y222527D01*
X-79837D01*
Y222601D01*
X-79911D01*
Y222675D01*
X-79763D01*
Y222749D01*
Y222823D01*
X-79689D01*
Y222897D01*
X-79615D01*
Y222971D01*
X-79541D01*
Y223045D01*
Y223118D01*
Y223192D01*
X-79467D01*
Y223266D01*
X-79394D01*
Y223340D01*
Y223414D01*
X-79320D01*
Y223488D01*
Y223562D01*
X-79246D01*
Y223636D01*
X-79172D01*
Y223710D01*
X-79098D01*
Y223784D01*
X-79024D01*
Y223858D01*
X-78950D01*
Y223932D01*
Y224005D01*
Y224079D01*
X-78876D01*
Y224153D01*
X-78802D01*
Y224227D01*
X-78728D01*
Y224301D01*
X-78654D01*
Y224375D01*
Y224449D01*
X-78506D01*
Y224523D01*
X-78580D01*
Y224597D01*
X-78433D01*
Y224671D01*
Y224745D01*
X-78359D01*
Y224819D01*
X-78285D01*
Y224893D01*
X-78211D01*
Y224966D01*
X-78137D01*
Y225040D01*
X-78063D01*
Y225114D01*
X-77989D01*
Y225188D01*
X-77915D01*
Y225262D01*
Y225336D01*
X-77841D01*
Y225410D01*
Y225484D01*
X-77767D01*
Y225558D01*
X-77693D01*
Y225632D01*
X-77620D01*
Y225706D01*
X-77546D01*
Y225779D01*
X-77472D01*
Y225853D01*
X-77398D01*
Y225927D01*
X-77324D01*
Y226001D01*
X-77250D01*
Y226075D01*
X-77176D01*
Y226149D01*
X-77102D01*
Y226223D01*
X-77028D01*
Y226297D01*
X-76954D01*
Y226371D01*
X-76880D01*
Y226445D01*
X-76807D01*
Y226519D01*
X-76733D01*
Y226593D01*
X-76659D01*
Y226667D01*
X-76585D01*
Y226740D01*
X-76511D01*
Y226814D01*
X-76437D01*
Y226888D01*
X-76363D01*
Y226962D01*
X-76289D01*
Y227036D01*
X-76215D01*
Y227110D01*
X-76141D01*
Y227184D01*
X-76067D01*
Y227258D01*
X-75993D01*
Y227332D01*
X-75919D01*
Y227406D01*
X-75845D01*
Y227479D01*
X-75772D01*
Y227553D01*
X-75698D01*
Y227627D01*
X-75624D01*
Y227701D01*
X-75402D01*
Y227775D01*
Y227849D01*
X-75254D01*
Y227923D01*
X-75180D01*
Y227997D01*
X-75106D01*
Y228071D01*
X-75033D01*
Y228145D01*
X-74959D01*
Y228219D01*
X-74885D01*
Y228293D01*
X-74737D01*
Y228367D01*
Y228440D01*
X-74515D01*
Y228514D01*
X-74441D01*
Y228588D01*
X-74367D01*
Y228662D01*
X-74293D01*
Y228736D01*
X-74219D01*
Y228810D01*
X-74072D01*
Y228884D01*
X-73924D01*
Y228958D01*
X-73850D01*
Y229032D01*
X-73776D01*
Y229106D01*
X-73702D01*
Y229180D01*
X-73480D01*
Y229254D01*
X-73406D01*
Y229327D01*
X-73332D01*
Y229401D01*
X-73259D01*
Y229475D01*
X-73037D01*
Y229549D01*
X-72963D01*
Y229623D01*
X-72815D01*
Y229697D01*
Y229771D01*
X-72593D01*
Y229845D01*
X-72519D01*
Y229919D01*
X-72298D01*
Y229993D01*
X-72224D01*
Y230067D01*
X-72002D01*
Y230140D01*
X-71928D01*
Y230214D01*
X-71854D01*
Y230288D01*
X-71780D01*
Y230214D01*
X-71706D01*
Y230288D01*
X-71632D01*
Y230362D01*
X-71484D01*
Y230436D01*
X-71337D01*
Y230510D01*
X-71263D01*
Y230584D01*
X-71189D01*
Y230510D01*
X-71115D01*
Y230584D01*
X-71041D01*
Y230658D01*
X-70893D01*
Y230732D01*
X-70745D01*
Y230806D01*
X-70671D01*
Y230880D01*
X-70598D01*
Y230806D01*
X-70524D01*
Y230880D01*
X-70450D01*
Y230954D01*
X-70228D01*
Y231028D01*
X-70154D01*
Y231101D01*
X-69932D01*
Y231175D01*
X-69858D01*
Y231249D01*
X-69784D01*
Y231175D01*
X-69711D01*
Y231249D01*
X-69489D01*
Y231323D01*
X-69415D01*
Y231397D01*
X-69193D01*
Y231471D01*
X-69119D01*
Y231397D01*
X-69045D01*
Y231471D01*
X-68971D01*
Y231545D01*
X-68750D01*
Y231619D01*
X-68676D01*
Y231545D01*
X-68602D01*
Y231619D01*
X-68528D01*
Y231693D01*
X-68306D01*
Y231767D01*
X-68232D01*
Y231693D01*
X-68158D01*
Y231767D01*
X-68084D01*
Y231840D01*
X-67863D01*
Y231914D01*
X-67789D01*
Y231840D01*
X-67715D01*
Y231914D01*
X-67641D01*
Y231988D01*
X-67271D01*
Y232062D01*
X-67197D01*
Y232136D01*
X-67123D01*
Y232062D01*
X-67050D01*
Y232136D01*
X-66680D01*
Y232210D01*
X-66606D01*
Y232136D01*
X-66532D01*
Y232210D01*
X-66458D01*
Y232284D01*
X-66384D01*
Y232210D01*
X-66310D01*
Y232284D01*
X-65941D01*
Y232358D01*
X-65719D01*
Y232432D01*
X-65645D01*
Y232358D01*
X-65571D01*
Y232432D01*
X-65202D01*
Y232506D01*
X-65128D01*
Y232432D01*
X-65054D01*
Y232506D01*
X-64980D01*
Y232580D01*
X-64906D01*
Y232506D01*
X-64832D01*
Y232580D01*
X-64758D01*
Y232506D01*
X-64684D01*
Y232580D01*
X-64167D01*
Y232654D01*
X-64093D01*
Y232580D01*
X-64019D01*
Y232654D01*
X-63945D01*
Y232580D01*
X-63871D01*
Y232654D01*
X-63797D01*
Y232580D01*
X-63723D01*
Y232654D01*
X-63650D01*
Y232728D01*
X-63576D01*
Y232654D01*
X-63502D01*
Y232728D01*
X-63428D01*
Y232654D01*
X-63354D01*
Y232728D01*
X-63280D01*
Y232654D01*
X-63206D01*
Y232728D01*
X-63132D01*
Y232654D01*
X-63058D01*
Y232728D01*
X-60767D01*
Y232654D01*
X-60693D01*
Y232728D01*
X-60619D01*
Y232654D01*
X-60545D01*
Y232728D01*
X-60471D01*
Y232654D01*
X-60397D01*
Y232728D01*
X-60323D01*
Y232654D01*
D02*
G37*
G36*
X-48201Y223192D02*
Y223118D01*
Y223045D01*
Y222971D01*
Y222897D01*
Y222823D01*
Y222749D01*
Y222675D01*
Y222601D01*
Y222527D01*
Y222453D01*
Y222379D01*
X-48571D01*
Y222453D01*
Y222527D01*
Y222601D01*
Y222675D01*
Y222749D01*
Y222823D01*
Y222897D01*
Y222971D01*
Y223045D01*
Y223118D01*
Y223192D01*
Y223266D01*
X-48201D01*
Y223192D01*
D02*
G37*
G36*
X-56480D02*
Y223118D01*
Y223045D01*
Y222971D01*
Y222897D01*
Y222823D01*
Y222749D01*
Y222675D01*
Y222601D01*
Y222527D01*
Y222453D01*
Y222379D01*
X-56849D01*
Y222453D01*
Y222527D01*
Y222601D01*
Y222675D01*
Y222749D01*
Y222823D01*
Y222897D01*
Y222971D01*
Y223045D01*
Y223118D01*
Y223192D01*
Y223266D01*
X-56480D01*
Y223192D01*
D02*
G37*
G36*
X-57515D02*
Y223118D01*
Y223045D01*
Y222971D01*
Y222897D01*
Y222823D01*
Y222749D01*
Y222675D01*
Y222601D01*
Y222527D01*
Y222453D01*
Y222379D01*
X-57884D01*
Y222453D01*
Y222527D01*
Y222601D01*
Y222675D01*
Y222749D01*
Y222823D01*
Y222897D01*
Y222971D01*
Y223045D01*
Y223118D01*
Y223192D01*
Y223266D01*
X-57515D01*
Y223192D01*
D02*
G37*
G36*
X-52858D02*
Y223118D01*
Y223045D01*
Y222971D01*
Y222897D01*
Y222823D01*
Y222749D01*
Y222675D01*
Y222601D01*
Y222527D01*
Y222453D01*
Y222379D01*
X-53227D01*
Y222453D01*
Y222527D01*
Y222601D01*
Y222675D01*
Y222749D01*
Y222823D01*
Y222897D01*
Y222971D01*
Y223045D01*
Y223118D01*
Y223192D01*
Y223266D01*
X-52858D01*
Y223192D01*
D02*
G37*
G36*
X-54558D02*
Y223118D01*
Y223045D01*
Y222971D01*
Y222897D01*
Y222823D01*
Y222749D01*
Y222675D01*
Y222601D01*
Y222527D01*
Y222453D01*
Y222379D01*
X-55814D01*
Y222453D01*
Y222527D01*
Y222601D01*
Y222675D01*
Y222749D01*
Y222823D01*
Y222897D01*
Y222971D01*
Y223045D01*
Y223118D01*
Y223192D01*
Y223266D01*
X-54558D01*
Y223192D01*
D02*
G37*
G36*
X-72298D02*
Y223118D01*
Y223045D01*
Y222971D01*
Y222897D01*
Y222823D01*
Y222749D01*
Y222675D01*
Y222601D01*
Y222527D01*
Y222453D01*
Y222379D01*
X-73554D01*
Y222453D01*
Y222527D01*
Y222601D01*
Y222675D01*
Y222749D01*
Y222823D01*
Y222897D01*
Y222971D01*
Y223045D01*
Y223118D01*
Y223192D01*
Y223266D01*
X-72298D01*
Y223192D01*
D02*
G37*
G36*
X-75254D02*
Y223118D01*
Y223045D01*
Y222971D01*
Y222897D01*
Y222823D01*
Y222749D01*
Y222675D01*
Y222601D01*
Y222527D01*
Y222453D01*
Y222379D01*
X-75624D01*
Y222453D01*
Y222527D01*
Y222601D01*
Y222675D01*
Y222749D01*
Y222823D01*
Y222897D01*
Y222971D01*
Y223045D01*
Y223118D01*
Y223192D01*
Y223266D01*
X-75254D01*
Y223192D01*
D02*
G37*
G36*
X-74219D02*
Y223118D01*
Y223045D01*
Y222971D01*
Y222897D01*
Y222823D01*
Y222749D01*
Y222675D01*
Y222601D01*
Y222527D01*
Y222453D01*
Y222379D01*
X-74589D01*
Y222453D01*
Y222527D01*
Y222601D01*
Y222675D01*
Y222749D01*
Y222823D01*
Y222897D01*
Y222971D01*
Y223045D01*
Y223118D01*
Y223192D01*
Y223266D01*
X-74219D01*
Y223192D01*
D02*
G37*
%LPC*%
G36*
X-66015Y223118D02*
X-66163D01*
Y223045D01*
Y222971D01*
Y222897D01*
Y222823D01*
Y222749D01*
Y222675D01*
Y222601D01*
Y222527D01*
Y222453D01*
X-66015D01*
Y222527D01*
Y222601D01*
Y222675D01*
Y222749D01*
Y222823D01*
Y222897D01*
Y222971D01*
Y223045D01*
Y223118D01*
D02*
G37*
G36*
X-67715D02*
X-68750D01*
Y223045D01*
Y222971D01*
Y222897D01*
Y222823D01*
Y222749D01*
Y222675D01*
Y222601D01*
Y222527D01*
Y222453D01*
X-67715D01*
Y222527D01*
Y222601D01*
Y222675D01*
Y222749D01*
Y222823D01*
Y222897D01*
Y222971D01*
Y223045D01*
Y223118D01*
D02*
G37*
G36*
X-69637D02*
X-69784D01*
Y223045D01*
Y222971D01*
Y222897D01*
Y222823D01*
Y222749D01*
Y222675D01*
Y222601D01*
Y222527D01*
Y222453D01*
X-69637D01*
Y222527D01*
Y222601D01*
Y222675D01*
Y222749D01*
Y222823D01*
Y222897D01*
Y222971D01*
Y223045D01*
Y223118D01*
D02*
G37*
G36*
X-63354D02*
X-63502D01*
Y223045D01*
Y222971D01*
Y222897D01*
Y222823D01*
Y222749D01*
Y222675D01*
Y222601D01*
Y222527D01*
Y222453D01*
X-63354D01*
Y222527D01*
Y222601D01*
Y222675D01*
Y222749D01*
Y222823D01*
Y222897D01*
Y222971D01*
Y223045D01*
Y223118D01*
D02*
G37*
G36*
X-64980D02*
X-65128D01*
Y223045D01*
Y222971D01*
Y222897D01*
Y222823D01*
Y222749D01*
Y222675D01*
Y222601D01*
Y222527D01*
Y222453D01*
X-64980D01*
Y222527D01*
Y222601D01*
Y222675D01*
Y222749D01*
Y222823D01*
Y222897D01*
Y222971D01*
Y223045D01*
Y223118D01*
D02*
G37*
G36*
X-72445Y193774D02*
X-72519D01*
Y193700D01*
X-72445D01*
Y193774D01*
D02*
G37*
G36*
X-71337Y223118D02*
X-71484D01*
Y223045D01*
Y222971D01*
Y222897D01*
Y222823D01*
Y222749D01*
Y222675D01*
Y222601D01*
Y222527D01*
Y222453D01*
X-71337D01*
Y222527D01*
Y222601D01*
Y222675D01*
Y222749D01*
Y222823D01*
Y222897D01*
Y222971D01*
Y223045D01*
Y223118D01*
D02*
G37*
G36*
X-75328D02*
X-75550D01*
Y223045D01*
Y222971D01*
Y222897D01*
Y222823D01*
Y222749D01*
Y222675D01*
Y222601D01*
Y222527D01*
Y222453D01*
X-75328D01*
Y222527D01*
Y222601D01*
Y222675D01*
Y222749D01*
Y222823D01*
Y222897D01*
Y222971D01*
Y223045D01*
Y223118D01*
D02*
G37*
G36*
X-73111Y220014D02*
X-73259D01*
Y219940D01*
Y219866D01*
Y219792D01*
Y219718D01*
Y219645D01*
Y219571D01*
Y219497D01*
Y219423D01*
Y219349D01*
Y219275D01*
X-73111D01*
Y219349D01*
Y219423D01*
Y219497D01*
Y219571D01*
Y219645D01*
Y219718D01*
Y219792D01*
Y219866D01*
Y219940D01*
Y220014D01*
D02*
G37*
G36*
X-74145D02*
X-74293D01*
Y219940D01*
Y219866D01*
Y219792D01*
Y219718D01*
Y219645D01*
Y219571D01*
Y219497D01*
Y219423D01*
Y219349D01*
Y219275D01*
X-74145D01*
Y219349D01*
Y219423D01*
Y219497D01*
Y219571D01*
Y219645D01*
Y219718D01*
Y219792D01*
Y219866D01*
Y219940D01*
Y220014D01*
D02*
G37*
G36*
X-72372Y223118D02*
X-73406D01*
Y223045D01*
Y222971D01*
Y222897D01*
Y222823D01*
Y222749D01*
Y222675D01*
Y222601D01*
Y222527D01*
Y222453D01*
X-72372D01*
Y222527D01*
Y222601D01*
Y222675D01*
Y222749D01*
Y222823D01*
Y222897D01*
Y222971D01*
Y223045D01*
Y223118D01*
D02*
G37*
G36*
X-54114Y202792D02*
X-54484D01*
Y202718D01*
X-54706D01*
Y202644D01*
X-54854D01*
Y202570D01*
X-54928D01*
Y202496D01*
Y202422D01*
X-55001D01*
Y202348D01*
X-55075D01*
Y202274D01*
Y202201D01*
Y202127D01*
X-55149D01*
Y202053D01*
Y201979D01*
Y201905D01*
X-55223D01*
Y201831D01*
Y201757D01*
Y201683D01*
Y201609D01*
Y201535D01*
Y201461D01*
X-55297D01*
Y201387D01*
Y201313D01*
Y201240D01*
Y201166D01*
Y201092D01*
Y201018D01*
Y200944D01*
X-55371D01*
Y200870D01*
Y200796D01*
Y200722D01*
X-55297D01*
Y200648D01*
Y200574D01*
Y200500D01*
X-55149D01*
Y200427D01*
X-55075D01*
Y200353D01*
X-54336D01*
Y200427D01*
X-54188D01*
Y200500D01*
X-54114D01*
Y200574D01*
X-54040D01*
Y200648D01*
Y200722D01*
X-53967D01*
Y200796D01*
Y200870D01*
X-53893D01*
Y200944D01*
Y201018D01*
Y201092D01*
X-53819D01*
Y201166D01*
Y201240D01*
Y201313D01*
Y201387D01*
Y201461D01*
X-53745D01*
Y201535D01*
Y201609D01*
Y201683D01*
Y201757D01*
Y201831D01*
Y201905D01*
X-53671D01*
Y201979D01*
Y202053D01*
Y202127D01*
Y202201D01*
Y202274D01*
Y202348D01*
Y202422D01*
Y202496D01*
X-53745D01*
Y202570D01*
X-53819D01*
Y202644D01*
X-53893D01*
Y202718D01*
X-54114D01*
Y202792D01*
D02*
G37*
G36*
X-74293Y223118D02*
X-74515D01*
Y223045D01*
Y222971D01*
Y222897D01*
Y222823D01*
Y222749D01*
Y222675D01*
Y222601D01*
Y222527D01*
Y222453D01*
X-74293D01*
Y222527D01*
Y222601D01*
Y222675D01*
Y222749D01*
Y222823D01*
Y222897D01*
Y222971D01*
Y223045D01*
Y223118D01*
D02*
G37*
G36*
X-61358D02*
X-62467D01*
Y223045D01*
Y222971D01*
Y222897D01*
Y222823D01*
Y222749D01*
Y222675D01*
Y222601D01*
Y222527D01*
Y222453D01*
X-61358D01*
Y222527D01*
Y222601D01*
Y222675D01*
Y222749D01*
Y222823D01*
Y222897D01*
Y222971D01*
Y223045D01*
Y223118D01*
D02*
G37*
G36*
X-51010D02*
X-52119D01*
Y223045D01*
Y222971D01*
Y222897D01*
Y222823D01*
Y222749D01*
Y222675D01*
Y222601D01*
Y222527D01*
Y222453D01*
X-51010D01*
Y222527D01*
Y222601D01*
Y222675D01*
Y222749D01*
Y222823D01*
Y222897D01*
Y222971D01*
Y223045D01*
Y223118D01*
D02*
G37*
G36*
X-53006D02*
X-53154D01*
Y223045D01*
Y222971D01*
Y222897D01*
Y222823D01*
Y222749D01*
Y222675D01*
Y222601D01*
Y222527D01*
Y222453D01*
X-53006D01*
Y222527D01*
Y222601D01*
Y222675D01*
Y222749D01*
Y222823D01*
Y222897D01*
Y222971D01*
Y223045D01*
Y223118D01*
D02*
G37*
G36*
X-54632D02*
X-55741D01*
Y223045D01*
Y222971D01*
Y222897D01*
Y222823D01*
Y222749D01*
Y222675D01*
Y222601D01*
Y222527D01*
Y222453D01*
X-54632D01*
Y222527D01*
Y222601D01*
Y222675D01*
Y222749D01*
Y222823D01*
Y222897D01*
Y222971D01*
Y223045D01*
Y223118D01*
D02*
G37*
G36*
X-72076Y220014D02*
X-72224D01*
Y219940D01*
Y219866D01*
Y219792D01*
Y219718D01*
Y219645D01*
Y219571D01*
Y219497D01*
Y219423D01*
Y219349D01*
Y219275D01*
X-72076D01*
Y219349D01*
Y219423D01*
Y219497D01*
Y219571D01*
Y219645D01*
Y219718D01*
Y219792D01*
Y219866D01*
Y219940D01*
Y220014D01*
D02*
G37*
G36*
X-48275Y223118D02*
X-48497D01*
Y223045D01*
Y222971D01*
Y222897D01*
Y222823D01*
Y222749D01*
Y222675D01*
Y222601D01*
Y222527D01*
Y222453D01*
X-48275D01*
Y222527D01*
Y222601D01*
Y222675D01*
Y222749D01*
Y222823D01*
Y222897D01*
Y222971D01*
Y223045D01*
Y223118D01*
D02*
G37*
G36*
X-49975D02*
X-50123D01*
Y223045D01*
Y222971D01*
Y222897D01*
Y222823D01*
Y222749D01*
Y222675D01*
Y222601D01*
Y222527D01*
Y222453D01*
X-49975D01*
Y222527D01*
Y222601D01*
Y222675D01*
Y222749D01*
Y222823D01*
Y222897D01*
Y222971D01*
Y223045D01*
Y223118D01*
D02*
G37*
G36*
X-56628D02*
X-56775D01*
Y223045D01*
Y222971D01*
Y222897D01*
Y222823D01*
Y222749D01*
Y222675D01*
Y222601D01*
Y222527D01*
Y222453D01*
X-56628D01*
Y222527D01*
Y222601D01*
Y222675D01*
Y222749D01*
Y222823D01*
Y222897D01*
Y222971D01*
Y223045D01*
Y223118D01*
D02*
G37*
G36*
X-13061Y291323D02*
X-16943D01*
X-17002Y291304D01*
X-17080Y291245D01*
X-17099Y291186D01*
X-17119Y291128D01*
Y288494D01*
X-12925D01*
X-12808Y288514D01*
X-12671Y288533D01*
X-12515Y288572D01*
X-12203Y288670D01*
X-12047Y288729D01*
X-11871Y288826D01*
X-11735Y288943D01*
X-11598Y289080D01*
X-11481Y289236D01*
X-11403Y289411D01*
X-11345Y289626D01*
X-11325Y289860D01*
Y289899D01*
Y289977D01*
X-11345Y290094D01*
X-11384Y290250D01*
X-11423Y290406D01*
X-11501Y290582D01*
X-11618Y290757D01*
X-11754Y290913D01*
X-11774Y290933D01*
X-11832Y290972D01*
X-11930Y291050D01*
X-12066Y291128D01*
X-12262Y291186D01*
X-12476Y291264D01*
X-12749Y291304D01*
X-13061Y291323D01*
D02*
G37*
G36*
X-59289Y223118D02*
X-59436D01*
Y223045D01*
Y222971D01*
Y222897D01*
Y222823D01*
Y222749D01*
Y222675D01*
Y222601D01*
Y222527D01*
Y222453D01*
X-59289D01*
Y222527D01*
Y222601D01*
Y222675D01*
Y222749D01*
Y222823D01*
Y222897D01*
Y222971D01*
Y223045D01*
Y223118D01*
D02*
G37*
G36*
X-60323D02*
X-60471D01*
Y223045D01*
Y222971D01*
Y222897D01*
Y222823D01*
Y222749D01*
Y222675D01*
Y222601D01*
Y222527D01*
Y222453D01*
X-60323D01*
Y222527D01*
Y222601D01*
Y222675D01*
Y222749D01*
Y222823D01*
Y222897D01*
Y222971D01*
Y223045D01*
Y223118D01*
D02*
G37*
G36*
X-57662D02*
X-57810D01*
Y223045D01*
Y222971D01*
Y222897D01*
Y222823D01*
Y222749D01*
Y222675D01*
Y222601D01*
Y222527D01*
Y222453D01*
X-57662D01*
Y222527D01*
Y222601D01*
Y222675D01*
Y222749D01*
Y222823D01*
Y222897D01*
Y222971D01*
Y223045D01*
Y223118D01*
D02*
G37*
G36*
X3403Y291460D02*
X3247D01*
X3130Y291440D01*
X2993D01*
X2837Y291401D01*
X2466Y291343D01*
X2057Y291225D01*
X1667Y291050D01*
X1472Y290952D01*
X1276Y290816D01*
X1120Y290679D01*
X964Y290504D01*
Y290484D01*
X925Y290465D01*
X906Y290406D01*
X847Y290328D01*
X789Y290231D01*
X730Y290114D01*
X672Y289958D01*
X594Y289801D01*
X516Y289606D01*
X457Y289392D01*
X399Y289158D01*
X340Y288885D01*
X301Y288612D01*
X262Y288299D01*
X223Y287968D01*
Y287617D01*
Y287597D01*
Y287539D01*
Y287421D01*
X243Y287285D01*
Y287129D01*
X262Y286934D01*
X282Y286739D01*
X321Y286505D01*
X399Y286036D01*
X535Y285549D01*
X711Y285100D01*
X828Y284886D01*
X964Y284690D01*
Y284671D01*
X1003Y284652D01*
X1101Y284554D01*
X1296Y284398D01*
X1413Y284320D01*
X1550Y284222D01*
X1706Y284144D01*
X1881Y284047D01*
X2076Y283969D01*
X2310Y283910D01*
X2544Y283832D01*
X2818Y283793D01*
X3091Y283774D01*
X3403Y283754D01*
X3559D01*
X3676Y283774D01*
X3812D01*
X3968Y283813D01*
X4339Y283871D01*
X4729Y283988D01*
X5139Y284144D01*
X5510Y284378D01*
X5666Y284534D01*
X5822Y284690D01*
Y284710D01*
X5861Y284729D01*
X5900Y284788D01*
X5939Y284866D01*
X5997Y284964D01*
X6056Y285100D01*
X6114Y285237D01*
X6192Y285412D01*
X6270Y285607D01*
X6329Y285822D01*
X6387Y286056D01*
X6446Y286329D01*
X6504Y286622D01*
X6524Y286934D01*
X6563Y287265D01*
Y287617D01*
Y287636D01*
Y287695D01*
Y287812D01*
X6543Y287929D01*
Y288104D01*
X6524Y288280D01*
X6504Y288494D01*
X6465Y288709D01*
X6387Y289177D01*
X6251Y289665D01*
X6056Y290114D01*
X5939Y290309D01*
X5802Y290504D01*
Y290523D01*
X5763Y290543D01*
X5666Y290660D01*
X5490Y290816D01*
X5217Y290991D01*
X5061Y291069D01*
X4885Y291167D01*
X4690Y291245D01*
X4476Y291304D01*
X4242Y291381D01*
X3988Y291420D01*
X3695Y291440D01*
X3403Y291460D01*
D02*
G37*
G36*
X-13022Y286836D02*
X-17119D01*
Y284086D01*
Y284047D01*
X-17099Y283988D01*
X-17021Y283930D01*
X-16982Y283891D01*
X-12866D01*
X-12710Y283910D01*
X-12515Y283949D01*
X-12300Y283988D01*
X-12086Y284047D01*
X-11891Y284144D01*
X-11715Y284281D01*
X-11696Y284300D01*
X-11657Y284359D01*
X-11579Y284437D01*
X-11501Y284573D01*
X-11423Y284710D01*
X-11345Y284905D01*
X-11306Y285120D01*
X-11286Y285373D01*
Y285393D01*
Y285432D01*
X-11306Y285510D01*
Y285607D01*
X-11384Y285841D01*
X-11423Y285978D01*
X-11501Y286115D01*
X-11598Y286251D01*
X-11715Y286368D01*
X-11852Y286505D01*
X-12027Y286602D01*
X-12222Y286700D01*
X-12457Y286778D01*
X-12710Y286817D01*
X-13022Y286836D01*
D02*
G37*
G36*
X-66458Y216836D02*
X-67493D01*
Y216762D01*
Y216688D01*
Y216614D01*
Y216540D01*
Y216466D01*
Y216392D01*
Y216318D01*
Y216244D01*
Y216170D01*
X-66458D01*
Y216244D01*
Y216318D01*
Y216392D01*
Y216466D01*
Y216540D01*
Y216614D01*
Y216688D01*
Y216762D01*
Y216836D01*
D02*
G37*
G36*
X-65423D02*
X-65571D01*
Y216762D01*
Y216688D01*
Y216614D01*
Y216540D01*
Y216466D01*
Y216392D01*
Y216318D01*
Y216244D01*
Y216170D01*
X-65423D01*
Y216244D01*
Y216318D01*
Y216392D01*
Y216466D01*
Y216540D01*
Y216614D01*
Y216688D01*
Y216762D01*
Y216836D01*
D02*
G37*
G36*
X-61802D02*
X-62836D01*
Y216762D01*
Y216688D01*
Y216614D01*
Y216540D01*
Y216466D01*
Y216392D01*
Y216318D01*
Y216244D01*
Y216170D01*
X-61802D01*
Y216244D01*
Y216318D01*
Y216392D01*
Y216466D01*
Y216540D01*
Y216614D01*
Y216688D01*
Y216762D01*
Y216836D01*
D02*
G37*
G36*
X-73111D02*
X-74145D01*
Y216762D01*
Y216688D01*
Y216614D01*
Y216540D01*
Y216466D01*
Y216392D01*
Y216318D01*
Y216244D01*
Y216170D01*
X-73111D01*
Y216244D01*
Y216318D01*
Y216392D01*
Y216466D01*
Y216540D01*
Y216614D01*
Y216688D01*
Y216762D01*
Y216836D01*
D02*
G37*
G36*
X-70376D02*
X-70524D01*
Y216762D01*
Y216688D01*
Y216614D01*
Y216540D01*
Y216466D01*
Y216392D01*
Y216318D01*
Y216244D01*
Y216170D01*
X-70376D01*
Y216244D01*
Y216318D01*
Y216392D01*
Y216466D01*
Y216540D01*
Y216614D01*
Y216688D01*
Y216762D01*
Y216836D01*
D02*
G37*
G36*
X-68454D02*
X-69489D01*
Y216762D01*
Y216688D01*
Y216614D01*
Y216540D01*
Y216466D01*
Y216392D01*
Y216318D01*
Y216244D01*
Y216170D01*
X-68454D01*
Y216244D01*
Y216318D01*
Y216392D01*
Y216466D01*
Y216540D01*
Y216614D01*
Y216688D01*
Y216762D01*
Y216836D01*
D02*
G37*
G36*
X-58993D02*
X-59141D01*
Y216762D01*
Y216688D01*
Y216614D01*
Y216540D01*
Y216466D01*
Y216392D01*
Y216318D01*
Y216244D01*
Y216170D01*
X-58993D01*
Y216244D01*
Y216318D01*
Y216392D01*
Y216466D01*
Y216540D01*
Y216614D01*
Y216688D01*
Y216762D01*
Y216836D01*
D02*
G37*
G36*
X-50419D02*
X-51453D01*
Y216762D01*
Y216688D01*
Y216614D01*
Y216540D01*
Y216466D01*
Y216392D01*
Y216318D01*
Y216244D01*
Y216170D01*
X-50419D01*
Y216244D01*
Y216318D01*
Y216392D01*
Y216466D01*
Y216540D01*
Y216614D01*
Y216688D01*
Y216762D01*
Y216836D01*
D02*
G37*
G36*
X-46723D02*
X-47832D01*
Y216762D01*
Y216688D01*
Y216614D01*
Y216540D01*
Y216466D01*
Y216392D01*
Y216318D01*
Y216244D01*
Y216170D01*
X-46723D01*
Y216244D01*
Y216318D01*
Y216392D01*
Y216466D01*
Y216540D01*
Y216614D01*
Y216688D01*
Y216762D01*
Y216836D01*
D02*
G37*
G36*
X-45688D02*
X-45836D01*
Y216762D01*
Y216688D01*
Y216614D01*
Y216540D01*
Y216466D01*
Y216392D01*
Y216318D01*
Y216244D01*
Y216170D01*
X-45688D01*
Y216244D01*
Y216318D01*
Y216392D01*
Y216466D01*
Y216540D01*
Y216614D01*
Y216688D01*
Y216762D01*
Y216836D01*
D02*
G37*
G36*
X-57958D02*
X-58106D01*
Y216762D01*
Y216688D01*
Y216614D01*
Y216540D01*
Y216466D01*
Y216392D01*
Y216318D01*
Y216244D01*
Y216170D01*
X-57958D01*
Y216244D01*
Y216318D01*
Y216392D01*
Y216466D01*
Y216540D01*
Y216614D01*
Y216688D01*
Y216762D01*
Y216836D01*
D02*
G37*
G36*
X-54336D02*
X-55371D01*
Y216762D01*
Y216688D01*
Y216614D01*
Y216540D01*
Y216466D01*
Y216392D01*
Y216318D01*
Y216244D01*
Y216170D01*
X-54336D01*
Y216244D01*
Y216318D01*
Y216392D01*
Y216466D01*
Y216540D01*
Y216614D01*
Y216688D01*
Y216762D01*
Y216836D01*
D02*
G37*
G36*
X-52340D02*
X-53449D01*
Y216762D01*
Y216688D01*
Y216614D01*
Y216540D01*
Y216466D01*
Y216392D01*
Y216318D01*
Y216244D01*
Y216170D01*
X-52340D01*
Y216244D01*
Y216318D01*
Y216392D01*
Y216466D01*
Y216540D01*
Y216614D01*
Y216688D01*
Y216762D01*
Y216836D01*
D02*
G37*
G36*
X-75106D02*
X-76141D01*
Y216762D01*
Y216688D01*
Y216614D01*
Y216540D01*
Y216466D01*
Y216392D01*
Y216318D01*
Y216244D01*
Y216170D01*
X-75106D01*
Y216244D01*
Y216318D01*
Y216392D01*
Y216466D01*
Y216540D01*
Y216614D01*
Y216688D01*
Y216762D01*
Y216836D01*
D02*
G37*
G36*
X-65941Y220014D02*
X-66089D01*
Y219940D01*
Y219866D01*
Y219792D01*
Y219718D01*
Y219645D01*
Y219571D01*
Y219497D01*
Y219423D01*
Y219349D01*
Y219275D01*
X-65941D01*
Y219349D01*
Y219423D01*
Y219497D01*
Y219571D01*
Y219645D01*
Y219718D01*
Y219792D01*
Y219866D01*
Y219940D01*
Y220014D01*
D02*
G37*
G36*
X-63206D02*
X-64241D01*
Y219940D01*
X-64315D01*
Y219866D01*
Y219792D01*
Y219718D01*
Y219645D01*
Y219571D01*
Y219497D01*
Y219423D01*
Y219349D01*
X-64241D01*
Y219275D01*
X-63206D01*
Y219349D01*
Y219423D01*
Y219497D01*
Y219571D01*
Y219645D01*
Y219718D01*
Y219792D01*
Y219866D01*
Y219940D01*
Y220014D01*
D02*
G37*
G36*
X-61284D02*
X-62319D01*
Y219940D01*
Y219866D01*
Y219792D01*
Y219718D01*
Y219645D01*
Y219571D01*
Y219497D01*
Y219423D01*
Y219349D01*
Y219275D01*
X-61284D01*
Y219349D01*
Y219423D01*
Y219497D01*
Y219571D01*
Y219645D01*
Y219718D01*
Y219792D01*
Y219866D01*
Y219940D01*
Y220014D01*
D02*
G37*
G36*
X-75993D02*
X-76141D01*
Y219940D01*
Y219866D01*
Y219792D01*
Y219718D01*
Y219645D01*
Y219571D01*
Y219497D01*
Y219423D01*
Y219349D01*
Y219275D01*
X-75993D01*
Y219349D01*
Y219423D01*
Y219497D01*
Y219571D01*
Y219645D01*
Y219718D01*
Y219792D01*
Y219866D01*
Y219940D01*
Y220014D01*
D02*
G37*
G36*
X-77028D02*
X-77176D01*
Y219940D01*
Y219866D01*
Y219792D01*
Y219718D01*
Y219645D01*
Y219571D01*
Y219497D01*
Y219423D01*
Y219349D01*
Y219275D01*
X-77028D01*
Y219349D01*
Y219423D01*
Y219497D01*
Y219571D01*
Y219645D01*
Y219718D01*
Y219792D01*
Y219866D01*
Y219940D01*
Y220014D01*
D02*
G37*
G36*
X-66976D02*
X-68084D01*
Y219940D01*
Y219866D01*
Y219792D01*
Y219718D01*
Y219645D01*
Y219571D01*
Y219497D01*
Y219423D01*
Y219349D01*
Y219275D01*
X-66976D01*
Y219349D01*
Y219423D01*
Y219497D01*
Y219571D01*
Y219645D01*
Y219718D01*
Y219792D01*
Y219866D01*
Y219940D01*
Y220014D01*
D02*
G37*
G36*
X-59289D02*
X-60397D01*
Y219940D01*
Y219866D01*
Y219792D01*
Y219718D01*
Y219645D01*
Y219571D01*
Y219497D01*
Y219423D01*
Y219349D01*
Y219275D01*
X-59289D01*
Y219349D01*
Y219423D01*
Y219497D01*
Y219571D01*
Y219645D01*
Y219718D01*
Y219792D01*
Y219866D01*
Y219940D01*
Y220014D01*
D02*
G37*
G36*
X-47684D02*
X-48719D01*
Y219940D01*
Y219866D01*
Y219792D01*
Y219718D01*
Y219645D01*
Y219571D01*
Y219497D01*
Y219423D01*
Y219349D01*
Y219275D01*
X-47684D01*
Y219349D01*
Y219423D01*
Y219497D01*
Y219571D01*
Y219645D01*
Y219718D01*
Y219792D01*
Y219866D01*
Y219940D01*
Y220014D01*
D02*
G37*
G36*
X-46649D02*
X-46797D01*
Y219940D01*
Y219866D01*
Y219792D01*
Y219718D01*
Y219645D01*
Y219571D01*
Y219497D01*
Y219423D01*
Y219349D01*
Y219275D01*
X-46649D01*
Y219349D01*
Y219423D01*
Y219497D01*
Y219571D01*
Y219645D01*
Y219718D01*
Y219792D01*
Y219866D01*
Y219940D01*
Y220014D01*
D02*
G37*
G36*
X-77028Y216836D02*
X-78063D01*
Y216762D01*
Y216688D01*
Y216614D01*
Y216540D01*
Y216466D01*
Y216392D01*
Y216318D01*
Y216244D01*
Y216170D01*
X-77028D01*
Y216244D01*
Y216318D01*
Y216392D01*
Y216466D01*
Y216540D01*
Y216614D01*
Y216688D01*
Y216762D01*
Y216836D01*
D02*
G37*
G36*
X-56554Y220014D02*
X-57662D01*
Y219940D01*
Y219866D01*
Y219792D01*
Y219718D01*
Y219645D01*
Y219571D01*
Y219497D01*
Y219423D01*
Y219349D01*
Y219275D01*
X-56554D01*
Y219349D01*
Y219423D01*
Y219497D01*
Y219571D01*
Y219645D01*
Y219718D01*
Y219792D01*
Y219866D01*
Y219940D01*
Y220014D01*
D02*
G37*
G36*
X-52414D02*
X-52562D01*
Y219940D01*
Y219866D01*
Y219792D01*
Y219718D01*
Y219645D01*
Y219571D01*
Y219497D01*
Y219423D01*
Y219349D01*
Y219275D01*
X-52414D01*
Y219349D01*
X-52340D01*
Y219423D01*
Y219497D01*
Y219571D01*
Y219645D01*
Y219718D01*
Y219792D01*
Y219866D01*
Y219940D01*
X-52414D01*
Y220014D01*
D02*
G37*
G36*
X-50419D02*
X-51453D01*
Y219940D01*
X-51527D01*
Y219866D01*
Y219792D01*
Y219718D01*
Y219645D01*
Y219571D01*
Y219497D01*
Y219423D01*
Y219349D01*
X-51453D01*
Y219275D01*
X-50419D01*
Y219349D01*
Y219423D01*
Y219497D01*
Y219571D01*
Y219645D01*
Y219718D01*
Y219792D01*
Y219866D01*
Y219940D01*
Y220014D01*
D02*
G37*
%LPD*%
D10*
X-58814Y39343D02*
G03*
X-38059Y39530I10255J13696D01*
G01*
X-37876Y48087D02*
G03*
X-59174Y48325I-10798J-13272D01*
G01*
X-29088Y44181D02*
G03*
X-29081Y43943I-5329J-276D01*
G01*
X-56587Y43997D02*
G03*
X-56579Y43759I-5329J-276D01*
G01*
X-43068Y44043D02*
G03*
X-43061Y43805I-5524J-282D01*
G01*
X-41531Y33735D02*
G03*
X-41701Y54144I4054J10239D01*
G01*
X-41559Y33689D02*
G03*
X-41661Y54047I2007J10189D01*
G01*
X-55858Y54124D02*
G03*
X-54994Y33393I-3258J-10519D01*
G01*
X-55567Y54040D02*
G03*
X-55221Y33499I-1355J-10296D01*
G01*
X-37527Y48577D02*
G03*
X-59581Y48695I-11049J-3975D01*
G01*
X-59414Y38658D02*
G03*
X-37461Y39421I10833J4531D01*
G01*
D17*
X43180Y217925D02*
Y201930D01*
X51177D01*
X53843Y204596D01*
Y215259D01*
X51177Y217925D01*
X43180D01*
X59175D02*
X64506D01*
X61841D01*
Y201930D01*
X59175D01*
X64506D01*
X83167Y217925D02*
X72504D01*
Y201930D01*
X83167D01*
X72504Y209927D02*
X77835D01*
D18*
X-17220Y68515D02*
G03*
X-17220Y71765I0J1625D01*
G01*
X-65150Y87440D02*
Y95440D01*
X-49150Y87440D02*
Y95440D01*
X-17220Y83890D02*
Y88640D01*
X16930D02*
X34780D01*
X-17220Y52390D02*
X-120D01*
X17680D02*
X34780D01*
X-17220D02*
Y68515D01*
Y71765D02*
Y83790D01*
X-17220Y88640D02*
X16930D01*
X34780Y52390D02*
Y88640D01*
X-120Y52390D02*
X17680D01*
X31750Y229550D02*
Y240350D01*
X-31750Y229550D02*
Y240350D01*
X-5400Y266700D02*
X5400D01*
X-5400Y203200D02*
X5400D01*
X53654Y266537D02*
X50322D01*
X51988D01*
Y258206D01*
X50322Y256540D01*
X48656D01*
X46990Y258206D01*
X56987Y256540D02*
X60319D01*
X58653D01*
Y266537D01*
X56987Y264871D01*
X-62082Y161290D02*
Y174286D01*
X-68580Y167788D01*
X-59916D01*
X-55584Y172120D02*
X-53418Y174286D01*
X-49086D01*
X-46920Y172120D01*
Y169954D01*
X-49086Y167788D01*
X-51252D01*
X-49086D01*
X-46920Y165622D01*
Y163456D01*
X-49086Y161290D01*
X-53418D01*
X-55584Y163456D01*
X-36091Y161290D02*
Y174286D01*
X-42588Y167788D01*
X-33925D01*
X-68580Y153070D02*
X-66414Y155236D01*
X-62082D01*
X-59916Y153070D01*
Y150904D01*
X-62082Y148738D01*
X-59916Y146572D01*
Y144406D01*
X-62082Y142240D01*
X-66414D01*
X-68580Y144406D01*
Y146572D01*
X-66414Y148738D01*
X-68580Y150904D01*
Y153070D01*
X-66414Y148738D02*
X-62082D01*
X-46920Y155236D02*
X-51252Y153070D01*
X-55584Y148738D01*
Y144406D01*
X-53418Y142240D01*
X-49086D01*
X-46920Y144406D01*
Y146572D01*
X-49086Y148738D01*
X-55584D01*
X-42588Y153070D02*
X-40422Y155236D01*
X-36091D01*
X-33925Y153070D01*
Y150904D01*
X-36091Y148738D01*
X-33925Y146572D01*
Y144406D01*
X-36091Y142240D01*
X-40422D01*
X-42588Y144406D01*
Y146572D01*
X-40422Y148738D01*
X-42588Y150904D01*
Y153070D01*
X-40422Y148738D02*
X-36091D01*
D30*
X-4380Y114650D02*
X19620D01*
X-4380D02*
Y126650D01*
X19620D01*
Y114650D02*
Y126650D01*
X62930Y167290D02*
X86930D01*
Y155290D02*
Y167290D01*
X62930Y155290D02*
X86930D01*
X62930D02*
Y167290D01*
X9240Y128970D02*
Y152970D01*
X21240D01*
Y128970D02*
Y152970D01*
X9240Y128970D02*
X21240D01*
X-29780Y114650D02*
X-5780D01*
X-29780D02*
Y126650D01*
X-5780D01*
Y114650D02*
Y126650D01*
X22290Y115920D02*
X46290D01*
X22290D02*
Y127920D01*
X46290D01*
Y115920D02*
Y127920D01*
X6000Y155640D02*
Y179640D01*
X-6000Y155640D02*
X6000D01*
X-6000D02*
Y179640D01*
X6000D01*
Y128970D02*
Y152970D01*
X-6000Y128970D02*
X6000D01*
X-6000D02*
Y152970D01*
X6000D01*
X33720Y155290D02*
X57720D01*
X33720D02*
Y167290D01*
X57720D01*
Y155290D02*
Y167290D01*
X-43750Y112680D02*
X-19750D01*
Y100680D02*
Y112680D01*
X-43750Y100680D02*
X-19750D01*
X-43750D02*
Y112680D01*
Y99980D02*
X-19750D01*
Y87980D02*
Y99980D01*
X-43750Y87980D02*
X-19750D01*
X-43750D02*
Y99980D01*
X12782Y156210D02*
X17780D01*
Y159542D01*
X13615Y161208D02*
X12782Y162041D01*
Y163708D01*
X13615Y164541D01*
X14448D01*
X15281Y163708D01*
Y162875D01*
Y163708D01*
X16114Y164541D01*
X16947D01*
X17780Y163708D01*
Y162041D01*
X16947Y161208D01*
X24130Y137078D02*
Y132080D01*
X27462D01*
X32461D02*
X29128D01*
X32461Y135412D01*
Y136245D01*
X31628Y137078D01*
X29961D01*
X29128Y136245D01*
X-30480Y134538D02*
Y129540D01*
X-27148D01*
X-25482D02*
X-23816D01*
X-24649D01*
Y134538D01*
X-25482Y133705D01*
X52862Y122275D02*
X52029Y123108D01*
X50363D01*
X49530Y122275D01*
Y118943D01*
X50363Y118110D01*
X52029D01*
X52862Y118943D01*
X54528Y123108D02*
X57861D01*
Y122275D01*
X54528Y118943D01*
Y118110D01*
X-13055Y168432D02*
X-13888Y167599D01*
Y165933D01*
X-13055Y165100D01*
X-9723D01*
X-8890Y165933D01*
Y167599D01*
X-9723Y168432D01*
X-13888Y173431D02*
X-13055Y171765D01*
X-11389Y170098D01*
X-9723D01*
X-8890Y170931D01*
Y172598D01*
X-9723Y173431D01*
X-10556D01*
X-11389Y172598D01*
Y170098D01*
X-13055Y140492D02*
X-13888Y139659D01*
Y137993D01*
X-13055Y137160D01*
X-9723D01*
X-8890Y137993D01*
Y139659D01*
X-9723Y140492D01*
X-13888Y145491D02*
Y142158D01*
X-11389D01*
X-12222Y143825D01*
Y144657D01*
X-11389Y145491D01*
X-9723D01*
X-8890Y144657D01*
Y142991D01*
X-9723Y142158D01*
X41910Y170180D02*
Y175178D01*
X44409D01*
X45242Y174345D01*
Y172679D01*
X44409Y171846D01*
X41910D01*
X43576D02*
X45242Y170180D01*
X46908D02*
X48575D01*
X47741D01*
Y175178D01*
X46908Y174345D01*
X38100Y38100D02*
Y43098D01*
X39766Y41432D01*
X41432Y43098D01*
Y38100D01*
X43098D02*
Y43098D01*
X45598D01*
X46431Y42265D01*
Y40599D01*
X45598Y39766D01*
X43098D01*
X44764D02*
X46431Y38100D01*
X51429Y43098D02*
X48097D01*
Y40599D01*
X49763D01*
X48097D01*
Y38100D01*
X55594D02*
Y43098D01*
X53095Y40599D01*
X56427D01*
X58094Y38933D02*
X58927Y38100D01*
X60593D01*
X61426Y38933D01*
Y42265D01*
X60593Y43098D01*
X58927D01*
X58094Y42265D01*
Y41432D01*
X58927Y40599D01*
X61426D01*
X63092Y43098D02*
X66424Y38100D01*
Y43098D02*
X63092Y38100D01*
X68090D02*
Y41432D01*
X69756Y43098D01*
X71422Y41432D01*
Y38100D01*
Y40599D01*
X68090D01*
X-58898Y65125D02*
X-59731Y65958D01*
X-61397D01*
X-62230Y65125D01*
Y61793D01*
X-61397Y60960D01*
X-59731D01*
X-58898Y61793D01*
X-57232Y65125D02*
X-56399Y65958D01*
X-54732D01*
X-53899Y65125D01*
Y64292D01*
X-54732Y63459D01*
X-55566D01*
X-54732D01*
X-53899Y62626D01*
Y61793D01*
X-54732Y60960D01*
X-56399D01*
X-57232Y61793D01*
X-39848Y121005D02*
X-40681Y121838D01*
X-42347D01*
X-43180Y121005D01*
Y117673D01*
X-42347Y116840D01*
X-40681D01*
X-39848Y117673D01*
X-34849Y116840D02*
X-38182D01*
X-34849Y120172D01*
Y121005D01*
X-35682Y121838D01*
X-37349D01*
X-38182Y121005D01*
X-24608Y82905D02*
X-25441Y83738D01*
X-27107D01*
X-27940Y82905D01*
Y79573D01*
X-27107Y78740D01*
X-25441D01*
X-24608Y79573D01*
X-22942Y78740D02*
X-21275D01*
X-22109D01*
Y83738D01*
X-22942Y82905D01*
X68580Y175178D02*
Y170180D01*
X71912D01*
X76911Y175178D02*
X73578D01*
Y170180D01*
X76911D01*
X73578Y172679D02*
X75244D01*
X78577Y175178D02*
Y170180D01*
X81076D01*
X81909Y171013D01*
Y174345D01*
X81076Y175178D01*
X78577D01*
X69850Y149819D02*
X73182D01*
X71516Y151485D02*
Y148153D01*
X68102Y9245D02*
X67269Y10078D01*
X65603D01*
X64770Y9245D01*
Y8412D01*
X65603Y7579D01*
X67269D01*
X68102Y6746D01*
Y5913D01*
X67269Y5080D01*
X65603D01*
X64770Y5913D01*
X69768Y10078D02*
Y5080D01*
X72267D01*
X73101Y5913D01*
Y9245D01*
X72267Y10078D01*
X69768D01*
X77266D02*
X75600D01*
X74767Y9245D01*
Y5913D01*
X75600Y5080D01*
X77266D01*
X78099Y5913D01*
Y9245D01*
X77266Y10078D01*
X73223Y25400D02*
Y30398D01*
X74889D02*
Y25400D01*
X72390Y28732D02*
X74889D01*
X75722D01*
X72390Y27066D02*
X75722D01*
X80721Y29565D02*
X79887Y30398D01*
X78221D01*
X77388Y29565D01*
Y26233D01*
X78221Y25400D01*
X79887D01*
X80721Y26233D01*
X85719Y29565D02*
X84886Y30398D01*
X83220D01*
X82387Y29565D01*
Y28732D01*
X83220Y27899D01*
X84886D01*
X85719Y27066D01*
Y26233D01*
X84886Y25400D01*
X83220D01*
X82387Y26233D01*
X76929Y55069D02*
X74930D01*
Y53569D01*
X75930D01*
X74930D01*
Y52070D01*
X79928Y54569D02*
X79429Y55069D01*
X78429D01*
X77929Y54569D01*
Y54069D01*
X78429Y53569D01*
X79429D01*
X79928Y53070D01*
Y52570D01*
X79429Y52070D01*
X78429D01*
X77929Y52570D01*
X82927Y55069D02*
X80928D01*
Y52070D01*
X82927D01*
X80928Y53569D02*
X81928D01*
X83927Y55069D02*
Y52070D01*
X85926D01*
X74930Y107868D02*
Y104536D01*
X76596Y102870D01*
X78262Y104536D01*
Y107868D01*
X79928Y102870D02*
X81594D01*
X80761D01*
Y106202D01*
X79928D01*
X84094Y102870D02*
Y106202D01*
X86593D01*
X87426Y105369D01*
Y102870D01*
X-79114Y9245D02*
X-79947Y10078D01*
X-81613D01*
X-82446Y9245D01*
Y8412D01*
X-81613Y7579D01*
X-79947D01*
X-79114Y6746D01*
Y5913D01*
X-79947Y5080D01*
X-81613D01*
X-82446Y5913D01*
X-74116Y9245D02*
X-74949Y10078D01*
X-76615D01*
X-77448Y9245D01*
Y5913D01*
X-76615Y5080D01*
X-74949D01*
X-74116Y5913D01*
X-72450Y10078D02*
Y5080D01*
Y6746D01*
X-69117Y10078D01*
X-71617Y7579D01*
X-69117Y5080D01*
X-77948Y33375D02*
X-78781Y34208D01*
X-80447D01*
X-81280Y33375D01*
Y32542D01*
X-80447Y31709D01*
X-78781D01*
X-77948Y30876D01*
Y30043D01*
X-78781Y29210D01*
X-80447D01*
X-81280Y30043D01*
X-76282Y34208D02*
Y29210D01*
X-73783D01*
X-72949Y30043D01*
Y33375D01*
X-73783Y34208D01*
X-76282D01*
X-71283D02*
X-69617D01*
X-70450D01*
Y29210D01*
X-71283D01*
X-69617D01*
X-85090Y55798D02*
X-83424D01*
X-84257D01*
Y50800D01*
X-85090D01*
X-83424D01*
X-80925D02*
Y55798D01*
X-78425D01*
X-77592Y54965D01*
Y53299D01*
X-78425Y52466D01*
X-80925D01*
X-79259D02*
X-77592Y50800D01*
X-73427Y55798D02*
X-75093D01*
X-75926Y54965D01*
Y51633D01*
X-75093Y50800D01*
X-73427D01*
X-72594Y51633D01*
Y54965D01*
X-73427Y55798D01*
X-85090Y81198D02*
X-83424D01*
X-84257D01*
Y76200D01*
X-85090D01*
X-83424D01*
X-80925D02*
Y81198D01*
X-77592Y76200D01*
Y81198D01*
X-75926D02*
X-72594D01*
X-74260D01*
Y76200D01*
X-86797Y101600D02*
Y106598D01*
X-85131D02*
Y101600D01*
X-87630Y104932D02*
X-85131D01*
X-84298D01*
X-87630Y103266D02*
X-84298D01*
X-82632Y101600D02*
Y106598D01*
X-80133D01*
X-79299Y105765D01*
Y104099D01*
X-80133Y103266D01*
X-82632D01*
X-80965D02*
X-79299Y101600D01*
X-74301Y105765D02*
X-75134Y106598D01*
X-76800D01*
X-77633Y105765D01*
Y104932D01*
X-76800Y104099D01*
X-75134D01*
X-74301Y103266D01*
Y102433D01*
X-75134Y101600D01*
X-76800D01*
X-77633Y102433D01*
X-72635Y106598D02*
X-69303D01*
X-70969D01*
Y101600D01*
X75659Y79199D02*
X73660D01*
Y77699D01*
X74660D01*
X73660D01*
Y76200D01*
X76659Y79199D02*
X77659D01*
X77159D01*
Y76200D01*
X76659D01*
X77659D01*
X79158D02*
Y79199D01*
X81158Y76200D01*
Y79199D01*
X82157D02*
X84157D01*
X83157D01*
Y76200D01*
X71912Y131165D02*
X71079Y131998D01*
X69413D01*
X68580Y131165D01*
Y127833D01*
X69413Y127000D01*
X71079D01*
X71912Y127833D01*
Y129499D01*
X70246D01*
X73578Y127000D02*
Y131998D01*
X76911Y127000D01*
Y131998D01*
X78577D02*
Y127000D01*
X81076D01*
X81909Y127833D01*
Y131165D01*
X81076Y131998D01*
X78577D01*
X-81758Y131165D02*
X-82591Y131998D01*
X-84257D01*
X-85090Y131165D01*
Y127833D01*
X-84257Y127000D01*
X-82591D01*
X-81758Y127833D01*
Y129499D01*
X-83424D01*
X-80092Y127000D02*
Y131998D01*
X-76759Y127000D01*
Y131998D01*
X-75093D02*
Y127000D01*
X-72594D01*
X-71761Y127833D01*
Y131165D01*
X-72594Y131998D01*
X-75093D01*
D31*
X54610Y114218D02*
X57942Y109220D01*
Y114218D02*
X54610Y109220D01*
X59608D02*
X61274D01*
X60441D01*
Y114218D01*
X59608Y113385D01*
M02*
