%FSLAX44Y44*%
%MOMM*%
G71*
G01*
G75*
G04 Layer_Color=16711935*
%ADD10R,0.7000X0.9000*%
%ADD11R,0.8000X1.4000*%
%ADD12O,1.4000X0.3500*%
%ADD13R,0.8000X0.9000*%
%ADD14O,1.4500X0.6000*%
%ADD15C,0.5000*%
%ADD16C,0.2540*%
%ADD17C,0.2500*%
%ADD18C,0.4000*%
%ADD19C,1.5240*%
%ADD20C,1.6000*%
%ADD21R,1.6000X1.6000*%
%ADD22C,1.7000*%
%ADD23C,1.2000*%
%ADD24C,1.2700*%
%ADD25C,0.6000*%
%ADD26C,0.2000*%
%ADD27C,0.1000*%
%ADD28C,0.1270*%
%ADD29R,0.9032X1.1032*%
%ADD30R,1.0032X1.6032*%
%ADD31O,1.5000X0.4500*%
%ADD32R,1.0032X1.1032*%
%ADD33O,1.5500X0.7000*%
%ADD34C,1.7272*%
%ADD35C,1.8032*%
%ADD36R,1.8032X1.8032*%
%ADD37C,1.9032*%
%ADD38C,1.4032*%
%ADD39C,1.4732*%
D16*
X272734Y245198D02*
Y256198D01*
X296734Y245198D02*
Y256198D01*
X272734D02*
X296734D01*
X272734Y245198D02*
X296734D01*
X279984Y250698D02*
X289484D01*
X284734Y245948D02*
Y255448D01*
X240476Y146646D02*
Y157646D01*
X264476Y146646D02*
Y157646D01*
X240476D02*
X264476D01*
X240476Y146646D02*
X264476D01*
X247726Y152146D02*
X257226D01*
X252476Y147396D02*
Y156896D01*
X224250Y45500D02*
Y100500D01*
X298250Y45500D02*
Y100500D01*
X224250D02*
X298250D01*
X224250Y45500D02*
X298250D01*
X256250Y73000D02*
X266250D01*
X261250Y68000D02*
Y78000D01*
X317500Y246250D02*
Y255750D01*
X312750Y251000D02*
X322250D01*
X305500Y256500D02*
X329500D01*
X305500Y245500D02*
X329500D01*
X305500D02*
Y256500D01*
X329500Y245500D02*
Y256500D01*
X401766Y95846D02*
Y106846D01*
X425766Y95846D02*
Y106846D01*
X401766D02*
X425766D01*
X401766Y95846D02*
X425766D01*
X409016Y101346D02*
X418516D01*
X413766Y96596D02*
Y106096D01*
X321864Y126434D02*
Y137434D01*
X345864Y126434D02*
Y137434D01*
X321864D02*
X345864D01*
X321864Y126434D02*
X345864D01*
X329114Y131934D02*
X338614D01*
X333864Y127184D02*
Y136684D01*
X264730Y178904D02*
Y189904D01*
X240730Y178904D02*
Y189904D01*
Y178904D02*
X264730D01*
X240730Y189904D02*
X264730D01*
X247980Y184404D02*
X257480Y184404D01*
X252730Y179654D02*
X252730Y189154D01*
X284480Y214960D02*
Y224460D01*
X279730Y219710D02*
X289230D01*
X272480Y214210D02*
X296480D01*
X272480Y225210D02*
X296480D01*
Y214210D02*
Y225210D01*
X272480Y214210D02*
Y225210D01*
X392876Y280504D02*
Y291504D01*
X416876Y280504D02*
Y291504D01*
X392876D02*
X416876D01*
X392876Y280504D02*
X416876D01*
X400126Y286004D02*
X409626D01*
X404876Y281254D02*
Y290754D01*
X321502Y98894D02*
Y109894D01*
X345502Y98894D02*
Y109894D01*
X321502D02*
X345502D01*
X321502Y98894D02*
X345502D01*
X328752Y104394D02*
X338252D01*
X333502Y99644D02*
Y109144D01*
X301860Y157414D02*
Y167414D01*
X296860Y162414D02*
X306860D01*
X270610Y144914D02*
X333110D01*
X270610Y179914D02*
X333110D01*
Y144914D02*
Y179914D01*
X270610Y144914D02*
Y179914D01*
X361126Y268566D02*
Y279566D01*
X385126Y268566D02*
Y279566D01*
X361126D02*
X385126D01*
X361126Y268566D02*
X385126D01*
X368376Y274066D02*
X377876D01*
X373126Y269316D02*
Y278816D01*
X240596Y162394D02*
Y173394D01*
X264596Y162394D02*
Y173394D01*
X240596D02*
X264596D01*
X240596Y162394D02*
X264596D01*
X247846Y167894D02*
X257346D01*
X252596Y163144D02*
Y172644D01*
X387500Y173000D02*
Y183000D01*
X382500Y178000D02*
X392500D01*
X370250Y168500D02*
X404750D01*
X370250Y187500D02*
X404750D01*
Y168500D02*
Y187500D01*
X370250Y168500D02*
Y187500D01*
X276234Y245948D02*
Y255448D01*
X293234Y245948D02*
Y255448D01*
X276234D02*
X293234D01*
X276234Y245948D02*
X293234D01*
X243976Y147396D02*
Y156896D01*
X260976Y147396D02*
Y156896D01*
X243976D02*
X260976D01*
X243976Y147396D02*
X260976D01*
X241250Y48000D02*
Y98000D01*
X281250Y48000D02*
Y98000D01*
X241250D02*
X281250D01*
X241250Y48000D02*
X281250D01*
X308750Y255750D02*
X326250D01*
X308750Y246250D02*
X326250D01*
X308750D02*
Y255750D01*
X326250Y246250D02*
Y255750D01*
X405266Y96596D02*
Y106096D01*
X422266Y96596D02*
Y106096D01*
X405266D02*
X422266D01*
X405266Y96596D02*
X422266D01*
X325364Y127184D02*
Y136684D01*
X342364Y127184D02*
Y136684D01*
X325364D02*
X342364D01*
X325364Y127184D02*
X342364D01*
X261230Y179654D02*
X261230Y189154D01*
X244230Y179654D02*
X244230Y189154D01*
X244230Y179654D02*
X261230D01*
X244230Y189154D02*
X261230D01*
X275730Y214960D02*
X293230D01*
X275730Y224460D02*
X293230D01*
Y214960D02*
Y224460D01*
X275730Y214960D02*
Y224460D01*
X396376Y281254D02*
Y290754D01*
X413376Y281254D02*
Y290754D01*
X396376D02*
X413376D01*
X396376Y281254D02*
X413376D01*
X325002Y99644D02*
Y109144D01*
X342002Y99644D02*
Y109144D01*
X325002D02*
X342002D01*
X325002Y99644D02*
X342002D01*
X286860Y147414D02*
X316860D01*
X286860Y177414D02*
X316860D01*
Y147414D02*
Y177414D01*
X286860Y147414D02*
Y177414D01*
X364626Y269316D02*
Y278816D01*
X381626Y269316D02*
Y278816D01*
X364626D02*
X381626D01*
X364626Y269316D02*
X381626D01*
X244096Y163144D02*
Y172644D01*
X261096Y163144D02*
Y172644D01*
X244096D02*
X261096D01*
X244096Y163144D02*
X261096D01*
X377500Y171750D02*
X397500D01*
X377500Y184250D02*
X397500D01*
Y171750D02*
Y184250D01*
X377500Y171750D02*
Y184250D01*
D17*
X34441Y67057D02*
X200728Y355300D01*
X34441Y67057D02*
X109800Y25000D01*
X636507D01*
X713152Y67773D01*
X547133Y355300D02*
X713152Y67773D01*
X200728Y355300D02*
X547133Y355300D01*
D27*
X255250Y89000D02*
G03*
X255250Y89000I-5000J0D01*
G01*
X300860Y168414D02*
G03*
X300860Y168414I-5000J0D01*
G01*
M02*
