M48
;Layer_Color=9474304
;FILE_FORMAT=4:4
METRIC
;TYPE=PLATED
T1F00S00C0.7112
T2F00S00C0.7500
T3F00S00C0.7620
T4F00S00C0.8000
T5F00S00C1.2000
%
T01
X00140000Y00070000
X00180000Y00047500
X00340000Y00045000
X00395000Y00042500
X00386588Y00101600
X00362500Y00205000
X00412500Y00222500
X00397500Y00250250
T02
X00427500Y00055000
X00447500
T03
X00205000Y00111000
X00183388Y00149860
X00390906Y00151130
X00445770Y00134620
X00607500Y00052500
X00460756Y00173990
X00488750Y00325000
X00388112Y00332994
X00340614Y00333502
X00340106Y00292354
X00252500Y00272000
T04
X00068069Y00083994
X00080769Y00105991
X00093469Y00127988
X00106169Y00149986
X00133456Y00135848
X00146156Y00157845
X00120756Y00113851
X00108056Y00091854
X00095356Y00069857
X00652404Y00068644
X00639704Y00090641
X00627004Y00112638
X00614304Y00134635
X00601604Y00156632
X00640141Y00151285
X00652841Y00129288
X00665541Y00107290
X00678241Y00085294
X00627441Y00173282
X00614741Y00195279
X00602041Y00217276
X00589341Y00239273
X00576641Y00261270
X00563941Y00283267
X00538104Y00266618
X00550804Y00244621
X00563504Y00222624
X00576204Y00200627
X00588904Y00178630
X00158856Y00179842
X00171556Y00201839
X00184256Y00223836
X00196956Y00245833
X00209656Y00267830
X00182369Y00281968
X00169669Y00259971
X00156969Y00237974
X00144269Y00215977
X00131569Y00193980
X00118869Y00171982
T05
X00507500Y00087500
X00557500
M30
