%FSLAX44Y44*%
%MOMM*%
G71*
G01*
G75*
G04 Layer_Physical_Order=1*
G04 Layer_Color=255*
%ADD10R,0.7000X0.9000*%
%ADD11R,0.8000X1.4000*%
%ADD12O,1.4000X0.3500*%
%ADD13R,0.8000X0.9000*%
%ADD14O,1.4500X0.6000*%
%ADD15C,0.5000*%
%ADD16C,0.2540*%
%ADD17C,0.2500*%
%ADD18C,0.4000*%
%ADD19C,1.5240*%
%ADD20C,1.6000*%
%ADD21R,1.6000X1.6000*%
%ADD22C,1.7000*%
%ADD23C,1.2000*%
%ADD24C,1.2700*%
G36*
X712700Y68557D02*
X712362Y67333D01*
X636507Y25000D01*
X109800D01*
X35231Y66616D01*
X34894Y67840D01*
X200728Y355300D01*
X547133D01*
X712700Y68557D01*
D02*
G37*
%LPC*%
G36*
X206250Y121547D02*
Y112250D01*
X215547D01*
X215347Y113772D01*
X214277Y116356D01*
X212574Y118574D01*
X210356Y120277D01*
X207772Y121347D01*
X206250Y121547D01*
D02*
G37*
G36*
X249976Y158146D02*
X239976D01*
Y146146D01*
X241407D01*
Y133000D01*
X239362D01*
Y121000D01*
X249362D01*
Y133000D01*
X248545D01*
Y146146D01*
X249976D01*
Y158146D01*
D02*
G37*
G36*
X665541Y116368D02*
X663192Y116059D01*
X662167Y115634D01*
X665999Y108998D01*
X672635Y112830D01*
X671960Y113709D01*
X670080Y115152D01*
X667891Y116059D01*
X665541Y116368D01*
D02*
G37*
G36*
X203750Y121547D02*
X202228Y121347D01*
X199644Y120277D01*
X197426Y118574D01*
X195723Y116356D01*
X194653Y113772D01*
X194453Y112250D01*
X203750D01*
Y121547D01*
D02*
G37*
G36*
X652841Y136852D02*
X650883Y136594D01*
X649059Y135839D01*
X647492Y134637D01*
X646290Y133070D01*
X645534Y131245D01*
X645277Y129288D01*
X645534Y127330D01*
X646290Y125505D01*
X647492Y123939D01*
X649059Y122736D01*
X650883Y121981D01*
X652841Y121723D01*
X654799Y121981D01*
X656624Y122736D01*
X658190Y123939D01*
X659393Y125505D01*
X660148Y127330D01*
X660406Y129288D01*
X660148Y131245D01*
X659393Y133070D01*
X658190Y134637D01*
X656624Y135839D01*
X654799Y136594D01*
X652841Y136852D01*
D02*
G37*
G36*
X614304Y142200D02*
X612346Y141942D01*
X610522Y141187D01*
X608955Y139985D01*
X607753Y138418D01*
X606997Y136593D01*
X606740Y134635D01*
X606997Y132678D01*
X607753Y130853D01*
X608955Y129286D01*
X610522Y128084D01*
X612346Y127329D01*
X614304Y127071D01*
X616262Y127329D01*
X618087Y128084D01*
X619653Y129286D01*
X620856Y130853D01*
X621611Y132678D01*
X621869Y134635D01*
X621611Y136593D01*
X620856Y138418D01*
X619653Y139985D01*
X618087Y141187D01*
X616262Y141942D01*
X614304Y142200D01*
D02*
G37*
G36*
X133456Y143413D02*
X131498Y143155D01*
X129673Y142399D01*
X128107Y141197D01*
X126904Y139630D01*
X126149Y137806D01*
X125891Y135848D01*
X126149Y133890D01*
X126904Y132066D01*
X128107Y130499D01*
X129673Y129297D01*
X131498Y128541D01*
X133456Y128283D01*
X135414Y128541D01*
X137238Y129297D01*
X138805Y130499D01*
X140007Y132066D01*
X140763Y133890D01*
X141020Y135848D01*
X140763Y137806D01*
X140007Y139630D01*
X138805Y141197D01*
X137238Y142399D01*
X135414Y143155D01*
X133456Y143413D01*
D02*
G37*
G36*
X444520Y133370D02*
X435223D01*
X435423Y131848D01*
X436493Y129264D01*
X438196Y127046D01*
X440414Y125343D01*
X442998Y124273D01*
X444520Y124073D01*
Y133370D01*
D02*
G37*
G36*
X456317D02*
X447020D01*
Y124073D01*
X448542Y124273D01*
X451126Y125343D01*
X453344Y127046D01*
X455047Y129264D01*
X456117Y131848D01*
X456317Y133370D01*
D02*
G37*
G36*
X627004Y120203D02*
X625047Y119945D01*
X623222Y119190D01*
X621655Y117987D01*
X620453Y116421D01*
X619697Y114596D01*
X619440Y112639D01*
X619697Y110681D01*
X620453Y108856D01*
X621655Y107289D01*
X623222Y106087D01*
X625047Y105331D01*
X627004Y105074D01*
X628962Y105331D01*
X630787Y106087D01*
X632353Y107289D01*
X633556Y108856D01*
X634311Y110681D01*
X634569Y112638D01*
X634311Y114596D01*
X633556Y116421D01*
X632353Y117987D01*
X630787Y119190D01*
X628962Y119945D01*
X627004Y120203D01*
D02*
G37*
G36*
X203750Y109750D02*
X194453D01*
X194653Y108228D01*
X195723Y105644D01*
X197426Y103426D01*
X199644Y101723D01*
X202228Y100653D01*
X203750Y100453D01*
Y109750D01*
D02*
G37*
G36*
X215547D02*
X206250D01*
Y100453D01*
X207772Y100653D01*
X210356Y101723D01*
X212574Y103426D01*
X214277Y105644D01*
X215347Y108228D01*
X215547Y109750D01*
D02*
G37*
G36*
X80769Y113556D02*
X78811Y113298D01*
X76986Y112543D01*
X75420Y111340D01*
X74218Y109774D01*
X73462Y107949D01*
X73204Y105991D01*
X73462Y104033D01*
X74217Y102209D01*
X75420Y100642D01*
X76986Y99440D01*
X78811Y98685D01*
X80769Y98427D01*
X82727Y98685D01*
X84551Y99440D01*
X86118Y100642D01*
X87320Y102209D01*
X88076Y104033D01*
X88333Y105991D01*
X88076Y107949D01*
X87320Y109774D01*
X86118Y111341D01*
X84551Y112543D01*
X82727Y113298D01*
X80769Y113556D01*
D02*
G37*
G36*
X673885Y110665D02*
X667249Y106833D01*
X671080Y100197D01*
X671960Y100872D01*
X673403Y102752D01*
X674310Y104941D01*
X674619Y107290D01*
X674310Y109640D01*
X673885Y110665D01*
D02*
G37*
G36*
X420016Y108846D02*
X414766D01*
Y102596D01*
X420016D01*
Y108846D01*
D02*
G37*
G36*
X387838Y110866D02*
Y102850D01*
X395854D01*
X395697Y104041D01*
X394755Y106315D01*
X393256Y108268D01*
X391303Y109767D01*
X389029Y110709D01*
X387838Y110866D01*
D02*
G37*
G36*
X660002Y114384D02*
X659122Y113709D01*
X657680Y111829D01*
X656773Y109640D01*
X656464Y107290D01*
X656773Y104941D01*
X657197Y103917D01*
X663834Y107748D01*
X660002Y114384D01*
D02*
G37*
G36*
X427766Y108846D02*
X422516D01*
Y102596D01*
X427766D01*
Y108846D01*
D02*
G37*
G36*
X385338Y110866D02*
X384147Y110709D01*
X381873Y109767D01*
X379920Y108268D01*
X378421Y106315D01*
X377479Y104041D01*
X377322Y102850D01*
X385338D01*
Y110866D01*
D02*
G37*
G36*
X184638Y160407D02*
Y151110D01*
X193935D01*
X193735Y152632D01*
X192665Y155216D01*
X190962Y157434D01*
X188744Y159137D01*
X186160Y160207D01*
X184638Y160407D01*
D02*
G37*
G36*
X389656Y161677D02*
X388134Y161477D01*
X385550Y160407D01*
X383332Y158704D01*
X381629Y156486D01*
X380559Y153902D01*
X380359Y152380D01*
X389656D01*
Y161677D01*
D02*
G37*
G36*
X146156Y165410D02*
X144198Y165152D01*
X142373Y164396D01*
X140807Y163194D01*
X139604Y161627D01*
X138849Y159803D01*
X138591Y157845D01*
X138849Y155887D01*
X139604Y154063D01*
X140807Y152496D01*
X142373Y151294D01*
X144198Y150538D01*
X146156Y150280D01*
X148113Y150538D01*
X149938Y151294D01*
X151505Y152496D01*
X152707Y154063D01*
X153463Y155887D01*
X153720Y157845D01*
X153463Y159803D01*
X152707Y161627D01*
X151505Y163194D01*
X149938Y164396D01*
X148113Y165152D01*
X146156Y165410D01*
D02*
G37*
G36*
X182138Y160407D02*
X180616Y160207D01*
X178032Y159137D01*
X175814Y157434D01*
X174111Y155216D01*
X173041Y152632D01*
X172841Y151110D01*
X182138D01*
Y160407D01*
D02*
G37*
G36*
X392156Y161677D02*
Y152380D01*
X401453D01*
X401253Y153902D01*
X400183Y156486D01*
X398480Y158704D01*
X396262Y160407D01*
X393678Y161477D01*
X392156Y161677D01*
D02*
G37*
G36*
X471303Y172740D02*
X462006D01*
Y163443D01*
X463528Y163643D01*
X466112Y164713D01*
X468330Y166416D01*
X470033Y168634D01*
X471103Y171218D01*
X471303Y172740D01*
D02*
G37*
G36*
X626984Y171574D02*
X620347Y167743D01*
X621022Y166863D01*
X622902Y165420D01*
X625092Y164513D01*
X627441Y164204D01*
X629791Y164513D01*
X630815Y164938D01*
X626984Y171574D01*
D02*
G37*
G36*
X250230Y190404D02*
X240230D01*
Y178404D01*
X242406D01*
Y173894D01*
X240096D01*
Y161894D01*
X250096D01*
Y173894D01*
X248054D01*
Y178404D01*
X250230D01*
Y190404D01*
D02*
G37*
G36*
X459506Y172740D02*
X450209D01*
X450409Y171218D01*
X451479Y168634D01*
X453182Y166416D01*
X455400Y164713D01*
X457984Y163643D01*
X459506Y163443D01*
Y172740D01*
D02*
G37*
G36*
X601604Y164197D02*
X599646Y163939D01*
X597822Y163184D01*
X596255Y161982D01*
X595053Y160415D01*
X594297Y158590D01*
X594040Y156632D01*
X594297Y154675D01*
X595053Y152850D01*
X596255Y151284D01*
X597822Y150081D01*
X599646Y149326D01*
X601604Y149068D01*
X603562Y149326D01*
X605387Y150081D01*
X606953Y151284D01*
X608156Y152850D01*
X608911Y154675D01*
X609169Y156632D01*
X608911Y158590D01*
X608156Y160415D01*
X606953Y161982D01*
X605387Y163184D01*
X603562Y163939D01*
X601604Y164197D01*
D02*
G37*
G36*
X182138Y148610D02*
X172841D01*
X173041Y147088D01*
X174111Y144504D01*
X175814Y142286D01*
X178032Y140583D01*
X180616Y139513D01*
X182138Y139313D01*
Y148610D01*
D02*
G37*
G36*
X193935D02*
X184638D01*
Y139313D01*
X186160Y139513D01*
X188744Y140583D01*
X190962Y142286D01*
X192665Y144504D01*
X193735Y147088D01*
X193935Y148610D01*
D02*
G37*
G36*
X444520Y145167D02*
X442998Y144967D01*
X440414Y143897D01*
X438196Y142194D01*
X436493Y139976D01*
X435423Y137392D01*
X435223Y135870D01*
X444520D01*
Y145167D01*
D02*
G37*
G36*
X447020D02*
Y135870D01*
X456317D01*
X456117Y137392D01*
X455047Y139976D01*
X453344Y142194D01*
X451126Y143897D01*
X448542Y144967D01*
X447020Y145167D01*
D02*
G37*
G36*
X389656Y149880D02*
X380359D01*
X380559Y148358D01*
X381629Y145774D01*
X383332Y143556D01*
X385550Y141853D01*
X388134Y140783D01*
X389656Y140583D01*
Y149880D01*
D02*
G37*
G36*
X640141Y158849D02*
X638184Y158591D01*
X636359Y157836D01*
X634792Y156634D01*
X633590Y155067D01*
X632834Y153243D01*
X632577Y151285D01*
X632834Y149327D01*
X633590Y147502D01*
X634792Y145935D01*
X636359Y144733D01*
X638184Y143978D01*
X640141Y143720D01*
X642099Y143978D01*
X643924Y144733D01*
X645490Y145935D01*
X646693Y147502D01*
X647448Y149327D01*
X647706Y151285D01*
X647448Y153243D01*
X646693Y155067D01*
X645490Y156634D01*
X643924Y157836D01*
X642099Y158591D01*
X640141Y158849D01*
D02*
G37*
G36*
X289704Y151164D02*
X281110D01*
Y147571D01*
X285110D01*
X286963Y147940D01*
X288535Y148989D01*
X289584Y150561D01*
X289704Y151164D01*
D02*
G37*
G36*
X401453Y149880D02*
X392156D01*
Y140583D01*
X393678Y140783D01*
X396262Y141853D01*
X398480Y143556D01*
X400183Y145774D01*
X401253Y148358D01*
X401453Y149880D01*
D02*
G37*
G36*
X106169Y157550D02*
X104211Y157292D01*
X102386Y156537D01*
X100820Y155335D01*
X99618Y153768D01*
X98862Y151943D01*
X98604Y149986D01*
X98862Y148028D01*
X99617Y146203D01*
X100820Y144636D01*
X102386Y143434D01*
X104211Y142678D01*
X106169Y142421D01*
X108127Y142678D01*
X109951Y143434D01*
X111518Y144636D01*
X112720Y146203D01*
X113476Y148028D01*
X113733Y149986D01*
X113476Y151943D01*
X112720Y153768D01*
X111518Y155335D01*
X109951Y156537D01*
X108127Y157292D01*
X106169Y157550D01*
D02*
G37*
G36*
X346364Y137934D02*
X336364D01*
Y125934D01*
X338540D01*
Y110394D01*
X336002D01*
Y98394D01*
X346002D01*
Y110394D01*
X344188D01*
Y125934D01*
X346364D01*
Y137934D01*
D02*
G37*
G36*
X341250Y54266D02*
Y46250D01*
X349266D01*
X349109Y47441D01*
X348167Y49715D01*
X346669Y51669D01*
X344715Y53167D01*
X342441Y54109D01*
X341250Y54266D01*
D02*
G37*
G36*
X178750Y56766D02*
X177559Y56609D01*
X175285Y55667D01*
X173332Y54169D01*
X171833Y52215D01*
X170891Y49941D01*
X170734Y48750D01*
X178750D01*
Y56766D01*
D02*
G37*
G36*
X458500Y53750D02*
X448750D01*
Y44000D01*
X458500D01*
Y53750D01*
D02*
G37*
G36*
X338750Y54266D02*
X337559Y54109D01*
X335285Y53167D01*
X333331Y51669D01*
X331833Y49715D01*
X330891Y47441D01*
X330734Y46250D01*
X338750D01*
Y54266D01*
D02*
G37*
G36*
X181250Y56766D02*
Y48750D01*
X189266D01*
X189109Y49941D01*
X188167Y52215D01*
X186668Y54169D01*
X184715Y55667D01*
X182441Y56609D01*
X181250Y56766D01*
D02*
G37*
G36*
X95356Y77421D02*
X93398Y77164D01*
X91573Y76408D01*
X90007Y75206D01*
X88804Y73639D01*
X88049Y71815D01*
X87791Y69857D01*
X88049Y67899D01*
X88804Y66074D01*
X90007Y64508D01*
X91573Y63306D01*
X93398Y62550D01*
X95356Y62292D01*
X97313Y62550D01*
X99138Y63306D01*
X100705Y64508D01*
X101907Y66074D01*
X102663Y67899D01*
X102920Y69857D01*
X102663Y71815D01*
X101907Y73639D01*
X100705Y75206D01*
X99138Y76408D01*
X97313Y77164D01*
X95356Y77421D01*
D02*
G37*
G36*
X138750Y79266D02*
X137559Y79109D01*
X135285Y78167D01*
X133331Y76669D01*
X131833Y74715D01*
X130891Y72441D01*
X130734Y71250D01*
X138750D01*
Y79266D01*
D02*
G37*
G36*
Y68750D02*
X130734D01*
X130891Y67559D01*
X131833Y65285D01*
X133331Y63331D01*
X135285Y61833D01*
X137559Y60891D01*
X138750Y60734D01*
Y68750D01*
D02*
G37*
G36*
X149266D02*
X141250D01*
Y60734D01*
X142441Y60891D01*
X144715Y61833D01*
X146669Y63331D01*
X148167Y65285D01*
X149109Y67559D01*
X149266Y68750D01*
D02*
G37*
G36*
X396250Y51766D02*
Y43750D01*
X404266D01*
X404109Y44941D01*
X403167Y47215D01*
X401669Y49169D01*
X399715Y50667D01*
X397441Y51609D01*
X396250Y51766D01*
D02*
G37*
G36*
X338750Y43750D02*
X330734D01*
X330891Y42559D01*
X331833Y40285D01*
X333331Y38331D01*
X335285Y36833D01*
X337559Y35891D01*
X338750Y35734D01*
Y43750D01*
D02*
G37*
G36*
X349266D02*
X341250D01*
Y35734D01*
X342441Y35891D01*
X344715Y36833D01*
X346669Y38331D01*
X348167Y40285D01*
X349109Y42559D01*
X349266Y43750D01*
D02*
G37*
G36*
X393750Y41250D02*
X385734D01*
X385891Y40059D01*
X386833Y37785D01*
X388331Y35831D01*
X390285Y34333D01*
X392559Y33391D01*
X393750Y33234D01*
Y41250D01*
D02*
G37*
G36*
X404266D02*
X396250D01*
Y33234D01*
X397441Y33391D01*
X399715Y34333D01*
X401669Y35831D01*
X403167Y37785D01*
X404109Y40059D01*
X404266Y41250D01*
D02*
G37*
G36*
X178750Y46250D02*
X170734D01*
X170891Y45059D01*
X171833Y42785D01*
X173332Y40831D01*
X175285Y39333D01*
X177559Y38391D01*
X178750Y38234D01*
Y46250D01*
D02*
G37*
G36*
X618047Y51250D02*
X608750D01*
Y41953D01*
X610272Y42153D01*
X612856Y43223D01*
X615074Y44926D01*
X616777Y47144D01*
X617847Y49728D01*
X618047Y51250D01*
D02*
G37*
G36*
X393750Y51766D02*
X392559Y51609D01*
X390285Y50667D01*
X388331Y49169D01*
X386833Y47215D01*
X385891Y44941D01*
X385734Y43750D01*
X393750D01*
Y51766D01*
D02*
G37*
G36*
X189266Y46250D02*
X181250D01*
Y38234D01*
X182441Y38391D01*
X184715Y39333D01*
X186668Y40831D01*
X188167Y42785D01*
X189109Y45059D01*
X189266Y46250D01*
D02*
G37*
G36*
X606250Y51250D02*
X596953D01*
X597153Y49728D01*
X598223Y47144D01*
X599926Y44926D01*
X602144Y43223D01*
X604728Y42153D01*
X606250Y41953D01*
Y51250D01*
D02*
G37*
G36*
X556250Y98935D02*
X554498Y98704D01*
X551700Y97545D01*
X549298Y95702D01*
X547455Y93300D01*
X546296Y90502D01*
X546065Y88750D01*
X556250D01*
Y98935D01*
D02*
G37*
G36*
X558750D02*
Y88750D01*
X568935D01*
X568704Y90502D01*
X567545Y93300D01*
X565702Y95702D01*
X563300Y97545D01*
X560502Y98704D01*
X558750Y98935D01*
D02*
G37*
G36*
X108056Y99418D02*
X106098Y99161D01*
X104273Y98405D01*
X102707Y97203D01*
X101504Y95636D01*
X100749Y93812D01*
X100491Y91854D01*
X100749Y89896D01*
X101504Y88071D01*
X102707Y86505D01*
X104273Y85303D01*
X106098Y84547D01*
X108056Y84289D01*
X110014Y84547D01*
X111838Y85303D01*
X113405Y86505D01*
X114607Y88071D01*
X115363Y89896D01*
X115620Y91854D01*
X115363Y93812D01*
X114607Y95636D01*
X113405Y97203D01*
X111838Y98405D01*
X110014Y99161D01*
X108056Y99418D01*
D02*
G37*
G36*
X678241Y94371D02*
X675892Y94062D01*
X674867Y93637D01*
X678699Y87001D01*
X685335Y90833D01*
X684660Y91712D01*
X682780Y93155D01*
X680591Y94062D01*
X678241Y94371D01*
D02*
G37*
G36*
X385338Y100350D02*
X377322D01*
X377479Y99159D01*
X378421Y96885D01*
X379920Y94931D01*
X381873Y93433D01*
X384147Y92491D01*
X385338Y92334D01*
Y100350D01*
D02*
G37*
G36*
X427766Y100096D02*
X422516D01*
Y93846D01*
X427766D01*
Y100096D01*
D02*
G37*
G36*
X665084Y105583D02*
X658447Y101751D01*
X659122Y100872D01*
X661003Y99429D01*
X663192Y98522D01*
X665541Y98213D01*
X667891Y98522D01*
X668915Y98947D01*
X665084Y105583D01*
D02*
G37*
G36*
X395854Y100350D02*
X387838D01*
Y92334D01*
X389029Y92491D01*
X391303Y93433D01*
X393256Y94931D01*
X394755Y96885D01*
X395697Y99159D01*
X395854Y100350D01*
D02*
G37*
G36*
X420016Y100096D02*
X414766D01*
Y93846D01*
X420016D01*
Y100096D01*
D02*
G37*
G36*
X292750Y96638D02*
X284250D01*
X282494Y96289D01*
X281006Y95294D01*
X280011Y93806D01*
X279662Y92050D01*
X280011Y90294D01*
X281006Y88806D01*
X282494Y87811D01*
X284250Y87462D01*
X284422D01*
Y83938D01*
X284250D01*
X282494Y83589D01*
X282254Y83428D01*
X276100D01*
X276100Y83428D01*
X274798Y83169D01*
X274539Y83118D01*
X273216Y82234D01*
X273216Y82234D01*
X261711Y70728D01*
X240246D01*
X240006Y70889D01*
X238250Y71238D01*
X229750D01*
X227994Y70889D01*
X226506Y69894D01*
X225511Y68406D01*
X225162Y66650D01*
X225511Y64894D01*
X226506Y63406D01*
X227994Y62411D01*
X229750Y62062D01*
X238250D01*
X240006Y62411D01*
X240246Y62572D01*
X263400D01*
X263400Y62572D01*
X264702Y62831D01*
X264961Y62882D01*
X266284Y63766D01*
X277789Y75272D01*
X282254D01*
X282494Y75111D01*
X284250Y74762D01*
X292750D01*
X294506Y75111D01*
X295994Y76106D01*
X296989Y77594D01*
X297338Y79350D01*
X296989Y81106D01*
X295994Y82594D01*
X294506Y83589D01*
X292750Y83938D01*
X292578D01*
Y87462D01*
X292750D01*
X294506Y87811D01*
X295994Y88806D01*
X296989Y90294D01*
X297338Y92050D01*
X296989Y93806D01*
X295994Y95294D01*
X294506Y96289D01*
X292750Y96638D01*
D02*
G37*
G36*
X568935Y86250D02*
X558750D01*
Y76065D01*
X560502Y76296D01*
X563300Y77455D01*
X565702Y79298D01*
X567545Y81700D01*
X568704Y84498D01*
X568935Y86250D01*
D02*
G37*
G36*
X677784Y83586D02*
X671147Y79754D01*
X671823Y78875D01*
X673703Y77432D01*
X675892Y76525D01*
X678241Y76216D01*
X680591Y76525D01*
X681615Y76950D01*
X677784Y83586D01*
D02*
G37*
G36*
X141250Y79266D02*
Y71250D01*
X149266D01*
X149109Y72441D01*
X148167Y74715D01*
X146669Y76669D01*
X144715Y78167D01*
X142441Y79109D01*
X141250Y79266D01*
D02*
G37*
G36*
X556250Y86250D02*
X546065D01*
X546296Y84498D01*
X547455Y81700D01*
X549298Y79298D01*
X551700Y77455D01*
X554498Y76296D01*
X556250Y76065D01*
Y86250D01*
D02*
G37*
G36*
X68069Y91559D02*
X66111Y91301D01*
X64286Y90546D01*
X62720Y89343D01*
X61518Y87777D01*
X60762Y85952D01*
X60504Y83994D01*
X60762Y82037D01*
X61517Y80212D01*
X62720Y78645D01*
X64286Y77443D01*
X66111Y76687D01*
X68069Y76430D01*
X70027Y76687D01*
X71851Y77443D01*
X73418Y78645D01*
X74620Y80212D01*
X75376Y82036D01*
X75633Y83994D01*
X75376Y85952D01*
X74620Y87777D01*
X73418Y89343D01*
X71851Y90546D01*
X70027Y91301D01*
X68069Y91559D01*
D02*
G37*
G36*
X672702Y92387D02*
X671823Y91712D01*
X670380Y89832D01*
X669473Y87643D01*
X669164Y85294D01*
X669473Y82944D01*
X669897Y81919D01*
X676534Y85751D01*
X672702Y92387D01*
D02*
G37*
G36*
X639704Y98206D02*
X637747Y97948D01*
X635922Y97193D01*
X634355Y95990D01*
X633153Y94424D01*
X632397Y92599D01*
X632140Y90641D01*
X632397Y88684D01*
X633153Y86859D01*
X634355Y85292D01*
X635922Y84090D01*
X637747Y83335D01*
X639704Y83077D01*
X641662Y83335D01*
X643487Y84090D01*
X645053Y85292D01*
X646256Y86859D01*
X647011Y88684D01*
X647269Y90641D01*
X647011Y92599D01*
X646256Y94424D01*
X645053Y95990D01*
X643487Y97193D01*
X641662Y97948D01*
X639704Y98206D01*
D02*
G37*
G36*
X481758Y301512D02*
X481758Y301512D01*
X371027D01*
X369466Y301202D01*
X368143Y300318D01*
X368143Y300318D01*
X324825Y257000D01*
X319000D01*
Y245000D01*
X320422D01*
Y175728D01*
X318610D01*
X317342Y175475D01*
X316267Y174757D01*
X315549Y173682D01*
X315296Y172414D01*
X315549Y171146D01*
X316267Y170071D01*
Y169757D01*
X315549Y168682D01*
X315296Y167414D01*
X315549Y166146D01*
X316267Y165071D01*
Y164757D01*
X315549Y163682D01*
X315296Y162414D01*
X315549Y161146D01*
X315597Y161074D01*
X315669Y160933D01*
X315221Y159411D01*
X315221Y159411D01*
X311753Y155943D01*
X311141Y155027D01*
X310926Y153946D01*
X310926Y153946D01*
Y144548D01*
X310926Y144548D01*
X311141Y143467D01*
X311753Y142551D01*
X321364Y132940D01*
Y125934D01*
X331364D01*
Y137934D01*
X324358D01*
X316574Y145718D01*
Y148454D01*
X317844Y149253D01*
X318610Y149100D01*
X329110D01*
X330378Y149353D01*
X330733Y149590D01*
X357166D01*
X401266Y105490D01*
Y95346D01*
X411266D01*
Y107346D01*
X407398D01*
X360333Y154411D01*
X359417Y155023D01*
X358336Y155238D01*
X358336Y155238D01*
X332976D01*
X332243Y156508D01*
X332424Y157414D01*
X332243Y158320D01*
X332976Y159590D01*
X338414D01*
X338414Y159590D01*
X339495Y159805D01*
X340411Y160417D01*
X349497Y169503D01*
X349497Y169503D01*
X350109Y170419D01*
X350324Y171500D01*
X350324Y171500D01*
Y259080D01*
X359460Y268216D01*
X360626Y268066D01*
Y268066D01*
X360626Y268066D01*
X370626D01*
Y280066D01*
X361689D01*
X361688Y280066D01*
X361649D01*
X361325Y280066D01*
X361223D01*
X361208Y280101D01*
X361178Y280174D01*
X361140Y280267D01*
X360958Y280707D01*
Y280707D01*
X360697Y281336D01*
X372716Y293356D01*
X405876D01*
Y287254D01*
X418876D01*
Y293356D01*
X480069D01*
X503422Y270003D01*
Y96635D01*
X502457Y96235D01*
X500368Y94632D01*
X498765Y92543D01*
X497757Y90111D01*
X497414Y87500D01*
X497757Y84889D01*
X498765Y82457D01*
X499095Y82027D01*
X488311Y71242D01*
X455000D01*
X455000Y71242D01*
X454175Y71078D01*
X296930D01*
X295369Y70768D01*
X295310Y70728D01*
X294746D01*
X294506Y70889D01*
X292750Y71238D01*
X284250D01*
X282494Y70889D01*
X281006Y69894D01*
X280011Y68406D01*
X279662Y66650D01*
X280011Y64894D01*
X281006Y63406D01*
X282494Y62411D01*
X284250Y62062D01*
X284422D01*
Y58538D01*
X284250D01*
X282494Y58189D01*
X281006Y57194D01*
X280011Y55706D01*
X279662Y53950D01*
X280011Y52194D01*
X281006Y50706D01*
X282494Y49711D01*
X284250Y49362D01*
X292750D01*
X294506Y49711D01*
X295994Y50706D01*
X296989Y52194D01*
X297338Y53950D01*
X296989Y55706D01*
X295994Y57194D01*
X294506Y58189D01*
X292750Y58538D01*
X292578D01*
Y62062D01*
X292750D01*
X294506Y62411D01*
X294746Y62572D01*
X296580D01*
X296580Y62572D01*
X297882Y62831D01*
X298141Y62882D01*
X298200Y62922D01*
X420335D01*
X420408Y62708D01*
X420630Y61652D01*
X419202Y59791D01*
X418245Y57480D01*
X417918Y55000D01*
X418245Y52520D01*
X419202Y50209D01*
X420724Y48225D01*
X422709Y46702D01*
X425020Y45745D01*
X427500Y45418D01*
X429980Y45745D01*
X432291Y46702D01*
X434275Y48225D01*
X435230Y49469D01*
X436500Y49037D01*
Y44000D01*
X446250D01*
Y55000D01*
X447500D01*
Y56250D01*
X458500D01*
Y63086D01*
X490000D01*
X490000Y63086D01*
X490000Y63086D01*
X601986D01*
X602239Y61816D01*
X602144Y61777D01*
X599926Y60074D01*
X598223Y57856D01*
X597153Y55272D01*
X596953Y53750D01*
X618047D01*
X617847Y55272D01*
X616777Y57856D01*
X615074Y60074D01*
X612856Y61777D01*
X612761Y61816D01*
X613014Y63086D01*
X647329D01*
X648622Y62093D01*
X650446Y61337D01*
X652404Y61080D01*
X654362Y61337D01*
X656187Y62093D01*
X657753Y63295D01*
X658956Y64862D01*
X659711Y66687D01*
X659969Y68644D01*
X659711Y70602D01*
X658956Y72427D01*
X657753Y73993D01*
X656187Y75196D01*
X654362Y75951D01*
X652404Y76209D01*
X650446Y75951D01*
X648622Y75196D01*
X647055Y73993D01*
X645853Y72427D01*
X645363Y71242D01*
X501505D01*
X501019Y72416D01*
X506190Y77586D01*
X507500Y77414D01*
X510111Y77757D01*
X512543Y78765D01*
X514632Y80368D01*
X516235Y82457D01*
X517243Y84889D01*
X517586Y87500D01*
X517243Y90111D01*
X516235Y92543D01*
X514632Y94632D01*
X512543Y96235D01*
X511578Y96635D01*
Y271692D01*
X511578Y271692D01*
X511319Y272994D01*
X511268Y273253D01*
X510384Y274576D01*
X484642Y300318D01*
X483319Y301202D01*
X483060Y301253D01*
X481758Y301512D01*
D02*
G37*
G36*
X686585Y88667D02*
X679949Y84836D01*
X683780Y78200D01*
X684660Y78875D01*
X686103Y80755D01*
X687010Y82944D01*
X687319Y85293D01*
X687010Y87643D01*
X686585Y88667D01*
D02*
G37*
G36*
X576641Y268834D02*
X574683Y268577D01*
X572859Y267821D01*
X571292Y266619D01*
X570090Y265052D01*
X569334Y263228D01*
X569077Y261270D01*
X569334Y259312D01*
X570090Y257487D01*
X571292Y255921D01*
X572859Y254719D01*
X574683Y253963D01*
X576641Y253705D01*
X578599Y253963D01*
X580424Y254719D01*
X581990Y255921D01*
X583193Y257487D01*
X583948Y259312D01*
X584206Y261270D01*
X583948Y263228D01*
X583193Y265052D01*
X581990Y266619D01*
X580424Y267821D01*
X578599Y268577D01*
X576641Y268834D01*
D02*
G37*
G36*
X538104Y274182D02*
X536147Y273925D01*
X534322Y273169D01*
X532755Y271967D01*
X531553Y270400D01*
X530797Y268576D01*
X530540Y266618D01*
X530797Y264660D01*
X531553Y262835D01*
X532755Y261269D01*
X534322Y260067D01*
X536147Y259311D01*
X538104Y259053D01*
X540062Y259311D01*
X541887Y260067D01*
X543453Y261269D01*
X544656Y262835D01*
X545411Y264660D01*
X545669Y266618D01*
X545411Y268576D01*
X544656Y270400D01*
X543453Y271967D01*
X541887Y273169D01*
X540062Y273925D01*
X538104Y274182D01*
D02*
G37*
G36*
X317500Y258500D02*
X311750D01*
Y252250D01*
X317500D01*
Y258500D01*
D02*
G37*
G36*
X169669Y267535D02*
X167711Y267278D01*
X165886Y266522D01*
X164320Y265320D01*
X163118Y263753D01*
X162362Y261929D01*
X162104Y259971D01*
X162362Y258013D01*
X163117Y256188D01*
X164320Y254622D01*
X165886Y253419D01*
X167711Y252664D01*
X169669Y252406D01*
X171627Y252664D01*
X173451Y253419D01*
X175018Y254622D01*
X176220Y256188D01*
X176976Y258013D01*
X177233Y259971D01*
X176976Y261929D01*
X176220Y263753D01*
X175018Y265320D01*
X173451Y266522D01*
X171627Y267278D01*
X169669Y267535D01*
D02*
G37*
G36*
X209656Y275395D02*
X207698Y275137D01*
X205873Y274381D01*
X204307Y273179D01*
X203104Y271612D01*
X202349Y269788D01*
X202091Y267830D01*
X202349Y265872D01*
X203104Y264048D01*
X204307Y262481D01*
X205873Y261279D01*
X207698Y260523D01*
X209656Y260266D01*
X211614Y260523D01*
X213438Y261279D01*
X215005Y262481D01*
X216207Y264048D01*
X216963Y265872D01*
X217220Y267830D01*
X216963Y269788D01*
X216207Y271612D01*
X215005Y273179D01*
X213438Y274381D01*
X211614Y275137D01*
X209656Y275395D01*
D02*
G37*
G36*
X251250Y282547D02*
X249728Y282347D01*
X247144Y281277D01*
X244926Y279574D01*
X243223Y277356D01*
X242153Y274772D01*
X241953Y273250D01*
X251250D01*
Y282547D01*
D02*
G37*
G36*
X253750D02*
Y273250D01*
X263047D01*
X262847Y274772D01*
X261777Y277356D01*
X260074Y279574D01*
X257856Y281277D01*
X255272Y282347D01*
X253750Y282547D01*
D02*
G37*
G36*
X251250Y270750D02*
X241953D01*
X242153Y269228D01*
X243223Y266644D01*
X244926Y264426D01*
X247144Y262723D01*
X249728Y261653D01*
X251250Y261453D01*
Y270750D01*
D02*
G37*
G36*
X263047D02*
X253750D01*
Y261453D01*
X255272Y261653D01*
X257856Y262723D01*
X260074Y264426D01*
X261777Y266644D01*
X262847Y269228D01*
X263047Y270750D01*
D02*
G37*
G36*
X309250Y258500D02*
X303500D01*
Y252250D01*
X309250D01*
Y258500D01*
D02*
G37*
G36*
X402376Y292004D02*
X392376D01*
Y289324D01*
X388750D01*
X387669Y289109D01*
X386753Y288497D01*
X386695Y288410D01*
X378643Y280359D01*
X378448Y280066D01*
X375626D01*
Y268066D01*
X385626D01*
Y279411D01*
X389891Y283676D01*
X392376D01*
Y280004D01*
X394676D01*
Y257577D01*
X393541Y257107D01*
X391901Y255849D01*
X390643Y254209D01*
X389852Y252299D01*
X389582Y250250D01*
X389852Y248201D01*
X390322Y247066D01*
X374503Y231247D01*
X373891Y230331D01*
X373676Y229250D01*
X373676Y229250D01*
Y186500D01*
X371000D01*
Y169500D01*
X382000D01*
Y186500D01*
X379324D01*
Y228080D01*
X394316Y243072D01*
X395451Y242602D01*
X397500Y242332D01*
X399549Y242602D01*
X401459Y243393D01*
X403099Y244651D01*
X404357Y246291D01*
X405148Y248201D01*
X405418Y250250D01*
X405148Y252299D01*
X404357Y254209D01*
X403099Y255849D01*
X401459Y257107D01*
X400324Y257577D01*
Y280004D01*
X402376D01*
Y292004D01*
D02*
G37*
G36*
X290984Y249448D02*
X285734D01*
Y243198D01*
X290984D01*
Y249448D01*
D02*
G37*
G36*
X550804Y252185D02*
X548847Y251928D01*
X547022Y251172D01*
X545455Y249970D01*
X544253Y248403D01*
X543497Y246579D01*
X543240Y244621D01*
X543497Y242663D01*
X544253Y240838D01*
X545455Y239272D01*
X547022Y238069D01*
X548847Y237314D01*
X550804Y237056D01*
X552762Y237314D01*
X554587Y238069D01*
X556153Y239272D01*
X557356Y240838D01*
X558111Y242663D01*
X558369Y244621D01*
X558111Y246579D01*
X557356Y248403D01*
X556153Y249970D01*
X554587Y251172D01*
X552762Y251928D01*
X550804Y252185D01*
D02*
G37*
G36*
X196956Y253398D02*
X194998Y253140D01*
X193173Y252384D01*
X191607Y251182D01*
X190404Y249615D01*
X189649Y247791D01*
X189391Y245833D01*
X189649Y243875D01*
X190404Y242051D01*
X191607Y240484D01*
X193173Y239282D01*
X194998Y238526D01*
X196956Y238268D01*
X198913Y238526D01*
X200738Y239282D01*
X202305Y240484D01*
X203507Y242051D01*
X204263Y243875D01*
X204520Y245833D01*
X204263Y247791D01*
X203507Y249615D01*
X202305Y251182D01*
X200738Y252384D01*
X198913Y253140D01*
X196956Y253398D01*
D02*
G37*
G36*
X298734Y249448D02*
X293484D01*
Y243198D01*
X298734D01*
Y249448D01*
D02*
G37*
G36*
X290984Y258198D02*
X285734D01*
Y251948D01*
X290984D01*
Y258198D01*
D02*
G37*
G36*
X298734D02*
X293484D01*
Y251948D01*
X298734D01*
Y258198D01*
D02*
G37*
G36*
X309250Y249750D02*
X303500D01*
Y243500D01*
X309250D01*
Y249750D01*
D02*
G37*
G36*
X317500D02*
X311750D01*
Y243500D01*
X317500D01*
Y249750D01*
D02*
G37*
G36*
X182369Y289533D02*
X180411Y289275D01*
X178586Y288519D01*
X177020Y287317D01*
X175818Y285750D01*
X175062Y283926D01*
X174804Y281968D01*
X175062Y280010D01*
X175817Y278185D01*
X177020Y276619D01*
X178586Y275417D01*
X180411Y274661D01*
X182369Y274403D01*
X184327Y274661D01*
X186151Y275417D01*
X187718Y276619D01*
X188920Y278185D01*
X189676Y280010D01*
X189933Y281968D01*
X189676Y283926D01*
X188920Y285750D01*
X187718Y287317D01*
X186151Y288519D01*
X184327Y289275D01*
X182369Y289533D01*
D02*
G37*
G36*
X351161Y332252D02*
X341864D01*
Y322955D01*
X343386Y323155D01*
X345970Y324225D01*
X348188Y325928D01*
X349891Y328146D01*
X350961Y330730D01*
X351161Y332252D01*
D02*
G37*
G36*
X487500Y335547D02*
X485978Y335347D01*
X483394Y334277D01*
X481176Y332574D01*
X479473Y330356D01*
X478403Y327772D01*
X478203Y326250D01*
X487500D01*
Y335547D01*
D02*
G37*
G36*
X398659Y331744D02*
X389362D01*
Y322447D01*
X390884Y322647D01*
X393468Y323717D01*
X395686Y325420D01*
X397389Y327638D01*
X398459Y330222D01*
X398659Y331744D01*
D02*
G37*
G36*
X339364Y332252D02*
X330067D01*
X330267Y330730D01*
X331337Y328146D01*
X333040Y325928D01*
X335258Y324225D01*
X337842Y323155D01*
X339364Y322955D01*
Y332252D01*
D02*
G37*
G36*
X490000Y335547D02*
Y326250D01*
X499297D01*
X499097Y327772D01*
X498027Y330356D01*
X496324Y332574D01*
X494106Y334277D01*
X491522Y335347D01*
X490000Y335547D01*
D02*
G37*
G36*
X339364Y344049D02*
X337842Y343849D01*
X335258Y342779D01*
X333040Y341076D01*
X331337Y338858D01*
X330267Y336274D01*
X330067Y334752D01*
X339364D01*
Y344049D01*
D02*
G37*
G36*
X341864D02*
Y334752D01*
X351161D01*
X350961Y336274D01*
X349891Y338858D01*
X348188Y341076D01*
X345970Y342779D01*
X343386Y343849D01*
X341864Y344049D01*
D02*
G37*
G36*
X386862Y343541D02*
X385340Y343341D01*
X382756Y342271D01*
X380538Y340568D01*
X378835Y338350D01*
X377765Y335766D01*
X377565Y334244D01*
X386862D01*
Y343541D01*
D02*
G37*
G36*
X389362D02*
Y334244D01*
X398659D01*
X398459Y335766D01*
X397389Y338350D01*
X395686Y340568D01*
X393468Y342271D01*
X390884Y343341D01*
X389362Y343541D01*
D02*
G37*
G36*
X386862Y331744D02*
X377565D01*
X377765Y330222D01*
X378835Y327638D01*
X380538Y325420D01*
X382756Y323717D01*
X385340Y322647D01*
X386862Y322447D01*
Y331744D01*
D02*
G37*
G36*
X418876Y284754D02*
X413626D01*
Y278504D01*
X418876D01*
Y284754D01*
D02*
G37*
G36*
X338856Y291104D02*
X329559D01*
X329759Y289582D01*
X330829Y286998D01*
X332532Y284780D01*
X334750Y283077D01*
X337334Y282007D01*
X338856Y281807D01*
Y291104D01*
D02*
G37*
G36*
X563941Y290832D02*
X561983Y290574D01*
X560159Y289818D01*
X558592Y288616D01*
X557390Y287049D01*
X556634Y285225D01*
X556377Y283267D01*
X556634Y281309D01*
X557390Y279485D01*
X558592Y277918D01*
X560159Y276716D01*
X561983Y275960D01*
X563941Y275702D01*
X565899Y275960D01*
X567724Y276716D01*
X569290Y277918D01*
X570493Y279485D01*
X571248Y281309D01*
X571506Y283267D01*
X571248Y285225D01*
X570493Y287049D01*
X569290Y288616D01*
X567724Y289818D01*
X565899Y290574D01*
X563941Y290832D01*
D02*
G37*
G36*
X411126Y284754D02*
X405876D01*
Y278504D01*
X411126D01*
Y284754D01*
D02*
G37*
G36*
X350653Y291104D02*
X341356D01*
Y281807D01*
X342878Y282007D01*
X345462Y283077D01*
X347680Y284780D01*
X349383Y286998D01*
X350453Y289582D01*
X350653Y291104D01*
D02*
G37*
G36*
X487500Y323750D02*
X478203D01*
X478403Y322228D01*
X479473Y319644D01*
X481176Y317426D01*
X483394Y315723D01*
X485978Y314653D01*
X487500Y314453D01*
Y323750D01*
D02*
G37*
G36*
X499297D02*
X490000D01*
Y314453D01*
X491522Y314653D01*
X494106Y315723D01*
X496324Y317426D01*
X498027Y319644D01*
X499097Y322228D01*
X499297Y323750D01*
D02*
G37*
G36*
X338856Y302901D02*
X337334Y302701D01*
X334750Y301631D01*
X332532Y299928D01*
X330829Y297710D01*
X329759Y295126D01*
X329559Y293604D01*
X338856D01*
Y302901D01*
D02*
G37*
G36*
X341356D02*
Y293604D01*
X350653D01*
X350453Y295126D01*
X349383Y297710D01*
X347680Y299928D01*
X345462Y301631D01*
X342878Y302701D01*
X341356Y302901D01*
D02*
G37*
G36*
X164395Y186936D02*
X160563Y180299D01*
X167200Y176468D01*
X167624Y177493D01*
X167933Y179842D01*
X167624Y182192D01*
X166717Y184381D01*
X165275Y186261D01*
X164395Y186936D01*
D02*
G37*
G36*
X397250Y188000D02*
X391500D01*
Y179250D01*
X397250D01*
Y188000D01*
D02*
G37*
G36*
X459506Y184537D02*
X457984Y184337D01*
X455400Y183267D01*
X453182Y181564D01*
X451479Y179346D01*
X450409Y176762D01*
X450209Y175240D01*
X459506D01*
Y184537D01*
D02*
G37*
G36*
X462006D02*
Y175240D01*
X471303D01*
X471103Y176762D01*
X470033Y179346D01*
X468330Y181564D01*
X466112Y183267D01*
X463528Y184337D01*
X462006Y184537D01*
D02*
G37*
G36*
X405500Y188000D02*
X399750D01*
Y179250D01*
X405500D01*
Y188000D01*
D02*
G37*
G36*
X614741Y202843D02*
X612784Y202586D01*
X610959Y201830D01*
X609392Y200628D01*
X608190Y199061D01*
X607434Y197237D01*
X607177Y195279D01*
X607434Y193321D01*
X608190Y191496D01*
X609392Y189930D01*
X610959Y188727D01*
X612784Y187972D01*
X614741Y187714D01*
X616699Y187972D01*
X618524Y188727D01*
X620090Y189930D01*
X621293Y191496D01*
X622048Y193321D01*
X622306Y195279D01*
X622048Y197237D01*
X621293Y199061D01*
X620090Y200628D01*
X618524Y201830D01*
X616699Y202586D01*
X614741Y202843D01*
D02*
G37*
G36*
X576204Y208191D02*
X574246Y207934D01*
X572422Y207178D01*
X570855Y205976D01*
X569653Y204409D01*
X568897Y202584D01*
X568640Y200627D01*
X568897Y198669D01*
X569653Y196844D01*
X570855Y195278D01*
X572422Y194075D01*
X574246Y193320D01*
X576204Y193062D01*
X578162Y193320D01*
X579987Y194075D01*
X581553Y195278D01*
X582756Y196844D01*
X583511Y198669D01*
X583769Y200627D01*
X583511Y202584D01*
X582756Y204409D01*
X581553Y205976D01*
X579987Y207178D01*
X578162Y207934D01*
X576204Y208191D01*
D02*
G37*
G36*
X158856Y188920D02*
X156506Y188610D01*
X154317Y187703D01*
X152437Y186261D01*
X151762Y185381D01*
X158398Y181549D01*
X162230Y188186D01*
X161205Y188610D01*
X158856Y188920D01*
D02*
G37*
G36*
X131569Y201544D02*
X129611Y201287D01*
X127786Y200531D01*
X126220Y199329D01*
X125017Y197762D01*
X124262Y195938D01*
X124004Y193980D01*
X124262Y192022D01*
X125017Y190197D01*
X126220Y188631D01*
X127786Y187428D01*
X129611Y186673D01*
X131569Y186415D01*
X133527Y186673D01*
X135351Y187428D01*
X136918Y188631D01*
X138120Y190197D01*
X138876Y192022D01*
X139133Y193980D01*
X138876Y195938D01*
X138120Y197762D01*
X136918Y199329D01*
X135351Y200531D01*
X133527Y201287D01*
X131569Y201544D01*
D02*
G37*
G36*
X627441Y182359D02*
X625092Y182050D01*
X624067Y181625D01*
X627899Y174989D01*
X634535Y178821D01*
X633860Y179701D01*
X631980Y181143D01*
X629791Y182050D01*
X627441Y182359D01*
D02*
G37*
G36*
X635785Y176656D02*
X629149Y172824D01*
X632980Y166188D01*
X633860Y166863D01*
X635303Y168743D01*
X636210Y170932D01*
X636519Y173282D01*
X636210Y175631D01*
X635785Y176656D01*
D02*
G37*
G36*
X397250Y176750D02*
X391500D01*
Y168000D01*
X397250D01*
Y176750D01*
D02*
G37*
G36*
X118869Y179547D02*
X116911Y179289D01*
X115086Y178534D01*
X113520Y177332D01*
X112317Y175765D01*
X111562Y173940D01*
X111304Y171982D01*
X111562Y170025D01*
X112317Y168200D01*
X113520Y166633D01*
X115086Y165431D01*
X116911Y164676D01*
X118869Y164418D01*
X120827Y164676D01*
X122651Y165431D01*
X124218Y166633D01*
X125420Y168200D01*
X126176Y170025D01*
X126433Y171983D01*
X126176Y173940D01*
X125420Y175765D01*
X124218Y177332D01*
X122651Y178534D01*
X120827Y179289D01*
X118869Y179547D01*
D02*
G37*
G36*
X282234Y256698D02*
X272234D01*
Y244698D01*
X273156D01*
Y225710D01*
X271980D01*
Y223788D01*
X259080D01*
X257519Y223478D01*
X256196Y222594D01*
X256196Y222594D01*
X226478Y192876D01*
X225594Y191553D01*
X225543Y191294D01*
X225284Y189992D01*
X225284Y189992D01*
Y133000D01*
X224362D01*
Y121000D01*
X225284D01*
Y110744D01*
X225284Y110744D01*
X225543Y109442D01*
X225594Y109183D01*
X226478Y107860D01*
X232828Y101510D01*
X234151Y100626D01*
X234410Y100575D01*
X234869Y100483D01*
X235287Y99105D01*
X232820Y96638D01*
X229750D01*
X227994Y96289D01*
X226506Y95294D01*
X225511Y93806D01*
X225162Y92050D01*
X225511Y90294D01*
X226506Y88806D01*
X227994Y87811D01*
X229750Y87462D01*
X229922D01*
Y83942D01*
X173031D01*
X128242Y128732D01*
X126919Y129616D01*
X126660Y129667D01*
X125358Y129926D01*
X125358Y129926D01*
X100778D01*
X100776Y129946D01*
X100020Y131771D01*
X98818Y133337D01*
X97251Y134540D01*
X95427Y135295D01*
X93469Y135553D01*
X91511Y135295D01*
X89686Y134540D01*
X88120Y133337D01*
X86917Y131771D01*
X86162Y129946D01*
X85904Y127988D01*
X86162Y126031D01*
X86917Y124206D01*
X88120Y122639D01*
X89686Y121437D01*
X91511Y120681D01*
X93469Y120424D01*
X95427Y120681D01*
X97251Y121437D01*
X97684Y121770D01*
X116956D01*
X117209Y120500D01*
X116973Y120402D01*
X115407Y119200D01*
X114204Y117633D01*
X113449Y115809D01*
X113191Y113851D01*
X113449Y111893D01*
X114204Y110069D01*
X115407Y108502D01*
X116973Y107300D01*
X118798Y106544D01*
X120756Y106286D01*
X122713Y106544D01*
X124538Y107300D01*
X126105Y108502D01*
X127307Y110069D01*
X128063Y111893D01*
X128320Y113851D01*
X128097Y115545D01*
X128773Y116047D01*
X129236Y116202D01*
X168458Y76980D01*
X169781Y76096D01*
X171342Y75786D01*
X171342Y75786D01*
X211615D01*
X212101Y74612D01*
X210472Y72984D01*
X209588Y71661D01*
X209537Y71402D01*
X209278Y70100D01*
X209278Y70100D01*
Y57908D01*
X209278Y57908D01*
X209537Y56606D01*
X209588Y56347D01*
X210472Y55024D01*
X214431Y51066D01*
X214431Y51066D01*
X215315Y50475D01*
X215754Y50182D01*
X217314Y49872D01*
X217314Y49872D01*
X227754D01*
X227994Y49711D01*
X229750Y49362D01*
X238250D01*
X240006Y49711D01*
X241494Y50706D01*
X242489Y52194D01*
X242838Y53950D01*
X242489Y55706D01*
X241494Y57194D01*
X240006Y58189D01*
X238250Y58538D01*
X229750D01*
X227994Y58189D01*
X227754Y58028D01*
X219004D01*
X217435Y59598D01*
Y68411D01*
X224295Y75272D01*
X227754D01*
X227994Y75111D01*
X229750Y74762D01*
X238250D01*
X240006Y75111D01*
X241494Y76106D01*
X242489Y77594D01*
X242838Y79350D01*
X242489Y81106D01*
X241494Y82594D01*
X240006Y83589D01*
X238250Y83938D01*
X238078D01*
Y87462D01*
X238250D01*
X240006Y87811D01*
X241494Y88806D01*
X242489Y90294D01*
X242838Y92050D01*
X242489Y93806D01*
X242102Y94384D01*
X248033Y100316D01*
X321002D01*
Y98394D01*
X331002D01*
Y110394D01*
X321002D01*
Y108472D01*
X246344D01*
X246344Y108472D01*
X246344Y108472D01*
X237401D01*
X233440Y112433D01*
Y121000D01*
X234362D01*
Y133000D01*
X233440D01*
Y188303D01*
X260769Y215632D01*
X265975D01*
X266461Y214458D01*
X257346Y205344D01*
X256462Y204021D01*
X256411Y203762D01*
X256152Y202460D01*
X256152Y202460D01*
Y190404D01*
X255230D01*
Y178404D01*
X265230D01*
Y179555D01*
X266500Y180006D01*
X272060Y174447D01*
X271549Y173682D01*
X271296Y172414D01*
X271549Y171146D01*
X272267Y170071D01*
Y169757D01*
X271549Y168682D01*
X271296Y167414D01*
X271481Y166488D01*
X270758Y165218D01*
X266737D01*
X265096Y166859D01*
Y173894D01*
X255096D01*
Y161894D01*
X262131D01*
X263593Y160431D01*
X264503Y159824D01*
X265576Y159610D01*
X266976D01*
X267502Y158340D01*
X266149Y156987D01*
X264976Y157473D01*
Y158146D01*
X254976D01*
Y146146D01*
X264976D01*
Y148128D01*
X265302Y149322D01*
X266383Y149537D01*
X267299Y150149D01*
X268653Y151503D01*
X270031Y151085D01*
X270136Y150561D01*
X271185Y148989D01*
X272757Y147940D01*
X274610Y147571D01*
X278610D01*
Y152414D01*
X279860D01*
Y153664D01*
X289704D01*
X289584Y154267D01*
X288535Y155839D01*
X288186Y156071D01*
X288171Y156146D01*
X288424Y157414D01*
X288171Y158682D01*
X287453Y159757D01*
Y160071D01*
X288171Y161146D01*
X288424Y162414D01*
X288171Y163682D01*
X287453Y164757D01*
Y165071D01*
X288171Y166146D01*
X288424Y167414D01*
X288171Y168682D01*
X287453Y169757D01*
Y170071D01*
X288171Y171146D01*
X288424Y172414D01*
X288171Y173682D01*
X287453Y174757D01*
X286378Y175475D01*
X285110Y175728D01*
X282314D01*
X270754Y187288D01*
X269431Y188172D01*
X269172Y188223D01*
X267870Y188482D01*
X267870Y188482D01*
X265230D01*
Y190404D01*
X264308D01*
Y200771D01*
X277248Y213710D01*
X282980D01*
Y225710D01*
X281312D01*
Y244698D01*
X282234D01*
Y256698D01*
D02*
G37*
G36*
X405500Y176750D02*
X399750D01*
Y168000D01*
X405500D01*
Y176750D01*
D02*
G37*
G36*
X588904Y186194D02*
X586946Y185937D01*
X585122Y185181D01*
X583555Y183979D01*
X582353Y182412D01*
X581597Y180587D01*
X581340Y178630D01*
X581597Y176672D01*
X582353Y174847D01*
X583555Y173281D01*
X585122Y172078D01*
X586946Y171323D01*
X588904Y171065D01*
X590862Y171323D01*
X592687Y172078D01*
X594253Y173281D01*
X595456Y174847D01*
X596211Y176672D01*
X596469Y178629D01*
X596211Y180588D01*
X595456Y182412D01*
X594253Y183979D01*
X592687Y185181D01*
X590862Y185937D01*
X588904Y186194D01*
D02*
G37*
G36*
X150512Y183216D02*
X150087Y182191D01*
X149778Y179842D01*
X150087Y177493D01*
X150994Y175303D01*
X152437Y173423D01*
X153317Y172748D01*
X157148Y179384D01*
X150512Y183216D01*
D02*
G37*
G36*
X621902Y180376D02*
X621022Y179701D01*
X619580Y177820D01*
X618673Y175631D01*
X618364Y173282D01*
X618673Y170932D01*
X619097Y169908D01*
X625734Y173739D01*
X621902Y180376D01*
D02*
G37*
G36*
X159313Y178134D02*
X155482Y171498D01*
X156506Y171074D01*
X158856Y170764D01*
X161205Y171074D01*
X163395Y171980D01*
X165275Y173423D01*
X165950Y174303D01*
X159313Y178134D01*
D02*
G37*
G36*
X184256Y231401D02*
X182298Y231143D01*
X180473Y230387D01*
X178907Y229185D01*
X177704Y227618D01*
X176949Y225794D01*
X176691Y223836D01*
X176949Y221878D01*
X177704Y220054D01*
X178907Y218487D01*
X180473Y217285D01*
X182298Y216529D01*
X184256Y216271D01*
X186213Y216529D01*
X188038Y217285D01*
X189605Y218487D01*
X190807Y220054D01*
X191563Y221878D01*
X191820Y223836D01*
X191563Y225794D01*
X190807Y227618D01*
X189605Y229185D01*
X188038Y230387D01*
X186213Y231143D01*
X184256Y231401D01*
D02*
G37*
G36*
X290230Y227210D02*
X284480D01*
Y220960D01*
X290230D01*
Y227210D01*
D02*
G37*
G36*
X421766Y221250D02*
X413750D01*
Y213234D01*
X414941Y213391D01*
X417215Y214333D01*
X419169Y215832D01*
X420667Y217785D01*
X421609Y220059D01*
X421766Y221250D01*
D02*
G37*
G36*
X563504Y230188D02*
X561547Y229931D01*
X559722Y229175D01*
X558155Y227973D01*
X556953Y226406D01*
X556197Y224582D01*
X555940Y222624D01*
X556197Y220666D01*
X556953Y218841D01*
X558155Y217275D01*
X559722Y216072D01*
X561547Y215317D01*
X563504Y215059D01*
X565462Y215317D01*
X567287Y216072D01*
X568853Y217275D01*
X570056Y218841D01*
X570811Y220666D01*
X571069Y222624D01*
X570811Y224582D01*
X570056Y226406D01*
X568853Y227973D01*
X567287Y229175D01*
X565462Y229931D01*
X563504Y230188D01*
D02*
G37*
G36*
X298480Y227210D02*
X292730D01*
Y220960D01*
X298480D01*
Y227210D01*
D02*
G37*
G36*
X156969Y245538D02*
X155011Y245281D01*
X153186Y244525D01*
X151620Y243323D01*
X150417Y241756D01*
X149662Y239932D01*
X149404Y237974D01*
X149662Y236016D01*
X150417Y234191D01*
X151620Y232625D01*
X153186Y231422D01*
X155011Y230667D01*
X156969Y230409D01*
X158927Y230667D01*
X160751Y231422D01*
X162318Y232625D01*
X163520Y234191D01*
X164276Y236016D01*
X164533Y237974D01*
X164276Y239932D01*
X163520Y241756D01*
X162318Y243323D01*
X160751Y244525D01*
X158927Y245281D01*
X156969Y245538D01*
D02*
G37*
G36*
X589341Y246838D02*
X587383Y246580D01*
X585559Y245824D01*
X583992Y244622D01*
X582790Y243055D01*
X582034Y241231D01*
X581777Y239273D01*
X582034Y237315D01*
X582790Y235490D01*
X583992Y233924D01*
X585559Y232722D01*
X587383Y231966D01*
X589341Y231708D01*
X591299Y231966D01*
X593124Y232722D01*
X594690Y233924D01*
X595893Y235490D01*
X596648Y237315D01*
X596906Y239273D01*
X596648Y241231D01*
X595893Y243055D01*
X594690Y244622D01*
X593124Y245824D01*
X591299Y246580D01*
X589341Y246838D01*
D02*
G37*
G36*
X411250Y231766D02*
X410059Y231609D01*
X407785Y230667D01*
X405831Y229168D01*
X404333Y227215D01*
X403391Y224941D01*
X403234Y223750D01*
X411250D01*
Y231766D01*
D02*
G37*
G36*
X413750D02*
Y223750D01*
X421766D01*
X421609Y224941D01*
X420667Y227215D01*
X419169Y229168D01*
X417215Y230667D01*
X414941Y231609D01*
X413750Y231766D01*
D02*
G37*
G36*
X411250Y221250D02*
X403234D01*
X403391Y220059D01*
X404333Y217785D01*
X405831Y215832D01*
X407785Y214333D01*
X410059Y213391D01*
X411250Y213234D01*
Y221250D01*
D02*
G37*
G36*
X371766Y203750D02*
X363750D01*
Y195734D01*
X364941Y195891D01*
X367215Y196833D01*
X369169Y198332D01*
X370667Y200285D01*
X371609Y202559D01*
X371766Y203750D01*
D02*
G37*
G36*
X361250Y214266D02*
X360059Y214109D01*
X357785Y213167D01*
X355831Y211668D01*
X354333Y209715D01*
X353391Y207441D01*
X353234Y206250D01*
X361250D01*
Y214266D01*
D02*
G37*
G36*
X171556Y209404D02*
X169598Y209146D01*
X167773Y208390D01*
X166207Y207188D01*
X165004Y205621D01*
X164249Y203797D01*
X163991Y201839D01*
X164249Y199881D01*
X165004Y198057D01*
X166207Y196490D01*
X167773Y195288D01*
X169598Y194532D01*
X171556Y194274D01*
X173514Y194532D01*
X175338Y195288D01*
X176905Y196490D01*
X178107Y198057D01*
X178863Y199881D01*
X179120Y201839D01*
X178863Y203797D01*
X178107Y205621D01*
X176905Y207188D01*
X175338Y208390D01*
X173514Y209146D01*
X171556Y209404D01*
D02*
G37*
G36*
X361250Y203750D02*
X353234D01*
X353391Y202559D01*
X354333Y200285D01*
X355831Y198332D01*
X357785Y196833D01*
X360059Y195891D01*
X361250Y195734D01*
Y203750D01*
D02*
G37*
G36*
X363750Y214266D02*
Y206250D01*
X371766D01*
X371609Y207441D01*
X370667Y209715D01*
X369169Y211668D01*
X367215Y213167D01*
X364941Y214109D01*
X363750Y214266D01*
D02*
G37*
G36*
X298480Y218460D02*
X292730D01*
Y212210D01*
X298480D01*
Y218460D01*
D02*
G37*
G36*
X290230D02*
X284480D01*
Y212210D01*
X290230D01*
Y218460D01*
D02*
G37*
G36*
X144269Y223541D02*
X142311Y223284D01*
X140486Y222528D01*
X138920Y221326D01*
X137718Y219759D01*
X136962Y217934D01*
X136704Y215977D01*
X136962Y214019D01*
X137717Y212194D01*
X138920Y210628D01*
X140486Y209425D01*
X142311Y208670D01*
X144269Y208412D01*
X146227Y208670D01*
X148051Y209425D01*
X149618Y210628D01*
X150820Y212194D01*
X151576Y214019D01*
X151833Y215977D01*
X151576Y217934D01*
X150820Y219759D01*
X149618Y221326D01*
X148051Y222528D01*
X146227Y223284D01*
X144269Y223541D01*
D02*
G37*
G36*
X602041Y224840D02*
X600084Y224583D01*
X598259Y223827D01*
X596692Y222625D01*
X595490Y221058D01*
X594734Y219234D01*
X594477Y217276D01*
X594734Y215318D01*
X595490Y213493D01*
X596692Y211927D01*
X598259Y210725D01*
X600084Y209969D01*
X602041Y209711D01*
X603999Y209969D01*
X605824Y210725D01*
X607390Y211927D01*
X608593Y213493D01*
X609348Y215318D01*
X609606Y217276D01*
X609348Y219234D01*
X608593Y221058D01*
X607390Y222625D01*
X605824Y223827D01*
X603999Y224583D01*
X602041Y224840D01*
D02*
G37*
%LPD*%
G36*
X359986Y279734D02*
X359986Y279734D01*
X360425Y279552D01*
X360518Y279514D01*
X360591Y279484D01*
X360626Y279469D01*
Y279367D01*
X360626Y279043D01*
Y279004D01*
Y279004D01*
Y276700D01*
X360169Y276609D01*
X359253Y275997D01*
X345503Y262247D01*
X344891Y261331D01*
X344676Y260250D01*
X344676Y260250D01*
Y172670D01*
X337244Y165238D01*
X332976D01*
X332243Y166508D01*
X332424Y167414D01*
X332171Y168682D01*
X331453Y169757D01*
Y170071D01*
X332171Y171146D01*
X332424Y172414D01*
X332171Y173682D01*
X331453Y174757D01*
X330378Y175475D01*
X329110Y175728D01*
X328578D01*
Y245000D01*
X330000D01*
Y250639D01*
X359356Y279995D01*
X359986Y279734D01*
D02*
G37*
D10*
X244362Y127000D02*
D03*
X229362D02*
D03*
X260096Y167894D02*
D03*
X245096D02*
D03*
X380626Y274066D02*
D03*
X365626D02*
D03*
X341002Y104394D02*
D03*
X326002D02*
D03*
X412376Y286004D02*
D03*
X397376D02*
D03*
X245230Y184404D02*
D03*
X260230Y184404D02*
D03*
X341364Y131934D02*
D03*
X326364D02*
D03*
X421266Y101346D02*
D03*
X406266D02*
D03*
X259976Y152146D02*
D03*
X244976D02*
D03*
X292234Y250698D02*
D03*
X277234D02*
D03*
D11*
X376500Y178000D02*
D03*
X398500D02*
D03*
D12*
X279860Y172414D02*
D03*
Y167414D02*
D03*
Y162414D02*
D03*
Y157414D02*
D03*
Y152414D02*
D03*
X323860Y172414D02*
D03*
Y167414D02*
D03*
Y162414D02*
D03*
Y157414D02*
D03*
Y152414D02*
D03*
D13*
X277480Y219710D02*
D03*
X291480D02*
D03*
X324500Y251000D02*
D03*
X310500D02*
D03*
D14*
X288500Y53950D02*
D03*
Y66650D02*
D03*
Y79350D02*
D03*
Y92050D02*
D03*
X234000Y53950D02*
D03*
Y66650D02*
D03*
Y79350D02*
D03*
Y92050D02*
D03*
D15*
X324593Y251000D02*
X371027Y297434D01*
X324500Y251000D02*
X324593D01*
X171342Y79864D02*
X234000D01*
X267870Y184404D02*
X279860Y172414D01*
X260230Y184404D02*
X267870D01*
X260230D02*
Y202460D01*
X277480Y219710D01*
X481758Y297434D02*
X507500Y271692D01*
X371027Y297434D02*
X481758D01*
X229362Y127000D02*
Y189992D01*
X259080Y219710D01*
X277480D01*
X277234Y219956D02*
X277480Y219710D01*
X277234Y219956D02*
Y250698D01*
X93469Y125848D02*
X125358D01*
X171342Y79864D01*
X213356Y57908D02*
X217314Y53950D01*
X213356Y57908D02*
Y70100D01*
X222606Y79350D01*
X234000D01*
X229362Y110744D02*
Y127000D01*
Y110744D02*
X235712Y104394D01*
X246344D01*
X234000Y92050D02*
X246344Y104394D01*
X326002D01*
X490000Y67164D02*
X650924D01*
X455000D02*
X490000D01*
X507500Y84664D01*
Y87500D01*
X435000Y67000D02*
X454836D01*
X296930D02*
X435000D01*
X427500Y59500D02*
X435000Y67000D01*
X427500Y55000D02*
Y59500D01*
X650924Y67164D02*
X652404Y68644D01*
X323860Y168164D02*
Y172414D01*
X324500Y173054D01*
Y251000D01*
X296580Y66650D02*
X296930Y67000D01*
X288500Y53950D02*
Y66650D01*
X296580D01*
X234000Y79864D02*
Y92050D01*
Y79350D02*
Y79864D01*
Y66650D02*
X263400D01*
X276100Y79350D01*
X288500D01*
Y92050D01*
X93469Y125848D02*
Y127988D01*
X217314Y53950D02*
X234000D01*
X454836Y67000D02*
X455000Y67164D01*
X507500Y87500D02*
Y271692D01*
D16*
X358336Y152414D02*
X406266Y104484D01*
Y101346D02*
Y104484D01*
X388750Y286500D02*
X397500D01*
X245096Y167894D02*
X245230Y168028D01*
Y184404D01*
X279380Y156934D02*
X279860Y157414D01*
X270090Y156934D02*
X279380D01*
X265302Y152146D02*
X270090Y156934D01*
X259976Y152146D02*
X265302D01*
X341002Y104394D02*
X341364Y104756D01*
Y131934D01*
X323860Y167414D02*
Y168164D01*
Y152414D02*
X358336D01*
X317218Y157414D02*
X323860D01*
X313750Y153946D02*
X317218Y157414D01*
X313750Y144548D02*
Y153946D01*
Y144548D02*
X326364Y131934D01*
X426250Y151000D02*
X426250Y151000D01*
X279485Y152039D02*
X279860Y152414D01*
X397500Y250250D02*
Y286500D01*
X376500Y229250D02*
X397500Y250250D01*
X376500Y178000D02*
Y229250D01*
X323860Y162414D02*
X338414D01*
X347500Y171500D01*
Y260250D01*
X361250Y274000D01*
D17*
X380626Y278376D02*
X388750Y286500D01*
X380626Y274066D02*
Y278376D01*
X260096Y167894D02*
X265576Y162414D01*
X279860D01*
Y168164D02*
Y172414D01*
X279360Y162914D02*
X279860Y162414D01*
D18*
X243974Y127508D02*
X244976Y128510D01*
Y152146D01*
D19*
X390906Y151130D02*
D03*
X183388Y149860D02*
D03*
X388112Y332994D02*
D03*
X340614Y333502D02*
D03*
X460756Y173990D02*
D03*
X445770Y134620D02*
D03*
X252500Y272000D02*
D03*
X205000Y111000D02*
D03*
X488750Y325000D02*
D03*
X607500Y52500D02*
D03*
X340106Y292354D02*
D03*
D20*
X427500Y55000D02*
D03*
D21*
X447500D02*
D03*
D22*
X557500Y87500D02*
D03*
X507500D02*
D03*
D23*
X678241Y85294D02*
D03*
X665541Y107290D02*
D03*
X652841Y129288D02*
D03*
X640141Y151285D02*
D03*
X627441Y173282D02*
D03*
X614741Y195279D02*
D03*
X602041Y217276D02*
D03*
X589341Y239273D02*
D03*
X576641Y261270D02*
D03*
X563941Y283267D02*
D03*
X538104Y266618D02*
D03*
X550804Y244621D02*
D03*
X563504Y222624D02*
D03*
X576204Y200627D02*
D03*
X588904Y178630D02*
D03*
X601604Y156632D02*
D03*
X614304Y134635D02*
D03*
X627004Y112638D02*
D03*
X639704Y90641D02*
D03*
X652404Y68644D02*
D03*
X95356Y69857D02*
D03*
X108056Y91854D02*
D03*
X120756Y113851D02*
D03*
X133456Y135848D02*
D03*
X146156Y157845D02*
D03*
X158856Y179842D02*
D03*
X171556Y201839D02*
D03*
X184256Y223836D02*
D03*
X196956Y245833D02*
D03*
X209656Y267830D02*
D03*
X182369Y281968D02*
D03*
X169669Y259971D02*
D03*
X156969Y237974D02*
D03*
X144269Y215977D02*
D03*
X131569Y193980D02*
D03*
X118869Y171982D02*
D03*
X106169Y149986D02*
D03*
X93469Y127988D02*
D03*
X80769Y105991D02*
D03*
X68069Y83994D02*
D03*
D24*
X362500Y205000D02*
D03*
X412500Y222500D02*
D03*
X395000Y42500D02*
D03*
X340000Y45000D02*
D03*
X386588Y101600D02*
D03*
X140000Y70000D02*
D03*
X180000Y47500D02*
D03*
X397500Y250250D02*
D03*
M02*
