%FSLAX44Y44*%
%MOMM*%
G71*
G01*
G75*
G04 Layer_Color=16711935*
%ADD10R,0.7000X0.9000*%
%ADD11R,0.8000X1.4000*%
%ADD12O,1.4000X0.3500*%
%ADD13R,0.8000X0.9000*%
%ADD14O,1.4500X0.6000*%
%ADD15C,0.5000*%
%ADD16C,0.2540*%
%ADD17C,0.2500*%
%ADD18C,0.4000*%
%ADD19C,1.5240*%
%ADD20C,1.6000*%
%ADD21R,1.6000X1.6000*%
%ADD22C,1.7000*%
%ADD23C,1.2000*%
%ADD24C,1.2700*%
%ADD25C,0.6000*%
%ADD26C,0.2000*%
%ADD27C,0.1000*%
%ADD28C,0.1270*%
%ADD29R,0.9032X1.1032*%
%ADD30R,1.0032X1.6032*%
%ADD31O,1.5000X0.4500*%
%ADD32R,1.0032X1.1032*%
%ADD33O,1.5500X0.7000*%
%ADD34C,1.7272*%
%ADD35C,1.8032*%
%ADD36R,1.8032X1.8032*%
%ADD37C,1.9032*%
%ADD38C,1.4032*%
%ADD39C,1.4732*%
D34*
X390906Y151130D02*
D03*
X183388Y149860D02*
D03*
X388112Y332994D02*
D03*
X340614Y333502D02*
D03*
X460756Y173990D02*
D03*
X445770Y134620D02*
D03*
X252500Y272000D02*
D03*
X205000Y111000D02*
D03*
X488750Y325000D02*
D03*
X607500Y52500D02*
D03*
X340106Y292354D02*
D03*
D35*
X427500Y55000D02*
D03*
D36*
X447500D02*
D03*
D37*
X557500Y87500D02*
D03*
X507500D02*
D03*
D38*
X678241Y85294D02*
D03*
X665541Y107290D02*
D03*
X652841Y129288D02*
D03*
X640141Y151285D02*
D03*
X627441Y173282D02*
D03*
X614741Y195279D02*
D03*
X602041Y217276D02*
D03*
X589341Y239273D02*
D03*
X576641Y261270D02*
D03*
X563941Y283267D02*
D03*
X538104Y266618D02*
D03*
X550804Y244621D02*
D03*
X563504Y222624D02*
D03*
X576204Y200627D02*
D03*
X588904Y178630D02*
D03*
X601604Y156632D02*
D03*
X614304Y134635D02*
D03*
X627004Y112638D02*
D03*
X639704Y90641D02*
D03*
X652404Y68644D02*
D03*
X95356Y69857D02*
D03*
X108056Y91854D02*
D03*
X120756Y113851D02*
D03*
X133456Y135848D02*
D03*
X146156Y157845D02*
D03*
X158856Y179842D02*
D03*
X171556Y201839D02*
D03*
X184256Y223836D02*
D03*
X196956Y245833D02*
D03*
X209656Y267830D02*
D03*
X182369Y281968D02*
D03*
X169669Y259971D02*
D03*
X156969Y237974D02*
D03*
X144269Y215977D02*
D03*
X131569Y193980D02*
D03*
X118869Y171982D02*
D03*
X106169Y149986D02*
D03*
X93469Y127988D02*
D03*
X80769Y105991D02*
D03*
X68069Y83994D02*
D03*
D39*
X362500Y205000D02*
D03*
X412500Y222500D02*
D03*
X395000Y42500D02*
D03*
X340000Y45000D02*
D03*
X386588Y101600D02*
D03*
X140000Y70000D02*
D03*
X180000Y47500D02*
D03*
X397500Y250250D02*
D03*
M02*
