M48
;Layer_Color=9474304
;FILE_FORMAT=4:4
METRIC
;TYPE=PLATED
T1F00S00C0.6500
T2F00S00C0.7112
T3F00S00C0.7620
T4F00S00C0.9000
%
T01
X00568441Y00060293
X00555741Y00082290
X00543041Y00104288
X00530341Y00126285
X00517641Y00148282
X00504941Y00170279
X00492241Y00192276
X00479541Y00214273
X00466841Y00236270
X00454141Y00258267
X00428304Y00241618
X00441004Y00219621
X00453704Y00197624
X00466404Y00175627
X00479104Y00153630
X00491804Y00131632
X00504504Y00109635
X00517204Y00087638
X00529904Y00065641
X00542604Y00043644
X-00014444Y00044857
X-00001744Y00066854
X00010956Y00088851
X00023656Y00110848
X00036356Y00132845
X00049056Y00154842
X00061756Y00176839
X00074456Y00198836
X00087156Y00220833
X00099856Y00242830
X00072569Y00256968
X00059869Y00234971
X00047169Y00212974
X00034469Y00190977
X00021769Y00168980
X00009069Y00146982
X-00003631Y00124986
X-00016331Y00102988
X-00029031Y00080991
X-00041731Y00058994
T02
X00185000Y00025000
X00337500Y00062500
X00360000Y00095000
X00415000Y00087500
X00462500Y00100000
X00405000Y00200000
Y00225000
X00372500
Y00200000
X00337500Y00225000
Y00159868
X00160000
X00150000Y00190004
X00120000Y00197500
X00133744Y00139548
X00082500Y00140000
X00160000Y00098654
X00162500Y00078986
X00135000Y00025000
X00097500
X00037500
X00110000Y00280000
X00100000Y00310000
T03
X00340000Y00200000
X00345000Y00280000
X00343750Y00311250
X00305000Y00310000
Y00280000
T04
X00392500Y00027500
Y00052500
X00465000Y00042100
Y00067500
X00390400Y00160000
X00365000
X00132500Y00115000
X00107100
X00080000Y00055000
X00054600
X00150000Y00225000
Y00250400
M30
